<svg width="68" height="68" viewBox="0 0 68 68" fill="none" xmlns="http://www.w3.org/2000/svg">
<rect width="68" height="68" rx="34" fill="#FFF8ED"/>
<path d="M21.9922 46.7891H33.2863V56.5867H21.9922V46.7891Z" fill="#FE677A"/>
<path d="M26.9229 46.7891H28.3563V56.5867H26.9229V46.7891Z" fill="#404047"/>
<path d="M21.9922 46.7891H33.2863V48.7768H21.9922V46.7891Z" fill="#EA4B66"/>
<path d="M25.739 16.1602L25.6242 20.4783L25.6044 21.0016L24.667 24.1348L28.1126 25.1654L28.9428 22.3927C29.6836 22.6163 30.4829 22.5367 31.1652 22.1714C31.8474 21.8061 32.3567 21.185 32.5813 20.4444C32.6284 20.2873 32.6642 20.1103 32.6849 19.9287L33.2882 14.5451L30.1465 12.8369L25.739 16.1602Z" fill="#F8C5AF"/>
<path d="M24.0302 14.2692C24.1225 13.811 24.3041 13.3754 24.5648 12.9874C24.8254 12.5994 25.1599 12.2666 25.5492 12.0079C25.9384 11.7492 26.3749 11.5697 26.8335 11.4797C27.2922 11.3897 27.7641 11.3909 28.2222 11.4833L32.7173 12.3906C33.1048 12.4688 33.4506 12.685 33.6906 12.9991C33.9306 13.3132 34.0484 13.7037 34.022 14.0981C33.9957 14.4925 33.827 14.8639 33.5474 15.1433C33.2678 15.4227 32.8962 15.591 32.5018 15.617L29.8157 15.7948C29.2286 15.8334 28.6706 16.0642 28.2279 16.4516C27.7851 16.8389 27.4821 17.3612 27.3658 17.9379C27.3658 17.9379 27.2792 20.0904 26.8293 20.5977C26.6157 20.8386 25.6058 21.0024 25.6058 21.0024L24.3032 17.5793C23.9015 16.5238 23.8069 15.3762 24.0302 14.2692Z" fill="#404047"/>
<path d="M25.6047 21.0029L25.2734 22.121L28.5224 23.8105L28.9431 22.394L25.6047 21.0029Z" fill="#EAB3A0"/>
<path d="M30.4014 17.9527C30.3591 18.1031 30.3769 18.264 30.451 18.4015C30.5251 18.539 30.6497 18.6423 30.7985 18.6897C30.8731 18.7129 30.9515 18.721 31.0291 18.7136C31.1068 18.7061 31.1823 18.6832 31.251 18.6462C31.3197 18.6092 31.3804 18.5589 31.4294 18.4981C31.4784 18.4374 31.5148 18.3675 31.5364 18.2925C31.5596 18.2179 31.5677 18.1395 31.5602 18.0617C31.5527 17.984 31.5297 17.9085 31.4926 17.8398C31.4555 17.7711 31.4051 17.7104 31.3442 17.6615C31.2834 17.6125 31.2134 17.5762 31.1383 17.5546C30.9878 17.5124 30.8268 17.5303 30.6893 17.6046C30.5518 17.6789 30.4486 17.8037 30.4014 17.9527Z" fill="#404047"/>
<path d="M26.274 17.4987C26.1632 17.8699 26.2042 18.2699 26.3881 18.6108C26.572 18.9518 26.8837 19.2058 27.2547 19.3171C28.0416 19.5524 28.867 19.1326 29.1023 18.3448C29.2149 17.9659 29.1728 17.5578 28.9851 17.2099C28.7974 16.862 28.4794 16.6027 28.1008 16.4888C27.3432 16.2611 26.5093 16.7109 26.274 17.4987Z" fill="#F8C5AF"/>
<path d="M41.744 32.9878C41.6237 32.972 41.5108 32.9213 41.4191 32.8419C41.3274 32.7625 41.2611 32.6579 41.2283 32.5411C41.1955 32.4244 41.1977 32.3005 41.2347 32.185C41.2717 32.0695 41.3417 31.9674 41.4362 31.8913L45.5868 28.5473C45.6502 28.4963 45.7229 28.4582 45.801 28.4353C45.879 28.4124 45.9609 28.4051 46.0417 28.4137C46.1226 28.4224 46.201 28.447 46.2724 28.486C46.3438 28.525 46.4068 28.5776 46.4579 28.641C46.5089 28.7043 46.547 28.7771 46.5699 28.8552C46.5928 28.9332 46.6001 29.015 46.5915 29.0959C46.5828 29.1768 46.5582 29.2552 46.5192 29.3266C46.4802 29.398 46.4276 29.461 46.3642 29.512L42.2136 32.856C42.1484 32.9087 42.0731 32.9475 41.9924 32.9702C41.9116 32.9928 41.8271 32.9988 41.744 32.9878ZM33.9191 47.5996L21.4023 47.2984C21.4023 47.2984 22.7708 38.0993 22.1562 32.7789C21.3816 25.96 23.1162 25.0989 24.2569 23.1817C25.3995 21.2645 29.4268 23.6664 30.6005 25.7981C31.3769 27.16 32.8659 32.9944 33.3581 35.1591C33.5746 36.1172 33.7788 37.0866 33.951 38.0457C34.016 38.3582 34.0696 38.6706 34.1233 38.9822C34.1769 39.2626 34.2202 39.5318 34.2645 39.801C34.9318 43.7652 33.9191 47.5996 33.9191 47.5996Z" fill="#404047"/>
<path d="M34.1246 38.983C33.7689 39.1449 33.4037 39.2954 33.0479 39.4573C30.7731 40.342 29.9496 40.3496 28.2329 38.359C26.7213 36.5331 25.1552 34.3759 24.4521 32.1114C25.5194 33.8187 27.6898 36.3063 28.998 37.6907C29.2776 37.9712 29.5467 38.3157 29.7736 38.4983C30.9472 39.3792 32.0305 38.7166 32.6705 38.5096C33.1016 38.359 33.5213 38.1971 33.9524 38.0465C34.0173 38.359 34.071 38.6714 34.1246 38.983ZM33.3604 35.1599C32.8314 35.3538 32.7307 35.3839 31.7877 35.7086C31.3736 33.2729 30.9547 30.5811 29.9674 27.9326C31.462 29.5976 32.2667 32.1237 32.6498 34.3091C32.8107 34.2545 32.9726 34.2009 33.1336 34.1585C33.2239 34.5613 33.1326 34.1566 33.3604 35.1599Z" fill="#292930"/>
<path d="M37.1641 33.9949C37.1641 33.9949 39.3664 33.257 39.6121 32.2979C39.8587 31.3398 43.9245 29.9911 42.5354 30.9888C41.1452 31.9864 42.7198 31.7568 43.357 31.4029C43.9942 31.0481 46.5288 29.7492 44.2662 32.8871C42.0036 36.025 40.5928 34.5812 39.0587 35.8076C37.5245 37.0339 37.1641 33.9949 37.1641 33.9949Z" fill="#F8C5AF"/>
<path d="M25.9431 25.7499C24.3515 26.1189 22.5953 27.9288 24.4522 32.1142C25.4348 34.3297 27.7134 37.0384 29.1487 38.6224C29.5087 39.0183 29.9809 39.295 30.5022 39.4154C31.0236 39.5358 31.5693 39.4943 32.0664 39.2963L39.608 36.3118L38.4974 32.9339L32.2151 35.0026C32.2151 35.0026 30.9021 24.5998 25.9431 25.7499Z" fill="#404047"/>
<path d="M30.4791 42.4054H26.6795C26.6283 42.4005 26.5807 42.3767 26.546 42.3385C26.5114 42.3004 26.4922 42.2508 26.4922 42.1993C26.4922 42.1478 26.5114 42.0981 26.546 42.06C26.5807 42.0219 26.6283 41.9981 26.6795 41.9932H30.4791C30.5303 41.9981 30.5779 42.0219 30.6126 42.06C30.6472 42.0981 30.6664 42.1478 30.6664 42.1993C30.6664 42.2508 30.6472 42.3004 30.6126 42.3385C30.5779 42.3767 30.5303 42.4005 30.4791 42.4054Z" fill="#292930"/>
</svg>
