<svg width="174" height="160" viewBox="0 0 174 160" fill="none" xmlns="http://www.w3.org/2000/svg">
<path d="M95.4942 109.349C65.181 113.181 38.3264 100.842 35.5128 81.7912C34.6392 75.8726 36.188 70.0036 39.6476 64.6079C39.6213 50.2642 56.8395 36.8511 79.785 33.9512C96.5264 31.8352 111.953 35.8664 120.675 43.5716C134.185 48.303 143.676 57.0099 145.287 67.9173C148.101 86.9682 125.808 105.518 95.4942 109.349Z" fill="url(#paint0_linear_125_4640)"/>
<path d="M117.217 55.1974L112.323 62.1321L108.273 59.1593L114.598 51.7334L117.217 55.1974Z" fill="#050634"/>
<path d="M154.861 47.4598L150.434 43.5545L130.945 72.9934L114.597 51.7348L109.057 58.4041L104.201 54.3097L114.057 39.9436L129.827 59.8233L144.572 39.5961L140.778 36.7692L153.478 30.5537L154.861 47.4598Z" fill="#FD7069"/>
<path d="M153.479 30.5537L159.206 31.7873L160.793 47.6617L154.862 47.4598L153.479 30.5537Z" fill="#050634"/>
<path d="M154.862 47.459L138.003 72.2182L130.945 72.9926L150.434 43.5537L154.862 47.459Z" fill="#050634"/>
<path d="M133.084 55.357L120.304 40.1226L114.059 39.9434L129.828 59.8231L133.084 55.357Z" fill="#050634"/>
<path d="M45.2249 128.638C37.8183 129.136 28.4513 120.418 28.4513 120.418L29.8941 113.614C29.8941 113.614 44.7987 105.213 47.9801 115.073C51.1614 124.932 45.2249 128.638 45.2249 128.638ZM33.3245 91.6729C33.3245 91.6729 36.3244 94.2052 34.8767 95.6189C33.4291 97.0325 28.4512 95.9045 28.4512 95.9045L30.2552 92.8793L33.3245 91.6729Z" fill="#050634"/>
<path d="M132.885 94.1999C132.556 94.8605 131.994 95.3933 131.441 95.9109C130.002 97.2609 128.552 98.4795 126.969 99.6802C120.322 104.726 102.463 116.325 91.9178 121.705C89.9117 122.728 87.7636 123.909 85.5104 124.399C82.3797 125.08 76.2057 124.249 69.628 123.006C69.6261 123.005 69.6241 123.004 69.6222 123.004C60.911 121.357 51.4925 118.986 47.492 118.437C40.4687 117.474 31.7205 123.492 31.7205 123.492L24.7021 120.479C22.5846 113.39 22.0757 105.893 23.2233 98.6145C23.4004 97.4859 23.6446 96.3078 24.4248 95.4257C25.6458 94.046 27.7764 93.7895 29.6891 93.5672C35.2647 92.9183 40.7654 91.7149 46.0657 89.9851C47.5085 89.5144 48.9503 89.0014 50.4641 88.7925C55.061 88.158 60.4527 90.0409 63.9629 92.7293C65.4155 93.8426 66.7678 94.3646 68.6853 94.4879C79.7239 95.1905 91.006 93.5489 101.421 89.6422C104.334 88.5486 107.249 87.7134 110.246 86.8017C111.334 86.4714 112.469 86.1366 113.601 86.2923C114.154 86.3679 114.796 86.7198 114.711 87.2301C115.907 86.9367 117.108 86.6415 118.336 86.5038C118.947 86.4354 119.588 86.4093 120.156 86.6289C120.899 86.916 120.71 87.4717 120.124 87.9924C122.337 87.222 125.332 86.4453 127.26 88.2273C127.864 88.7853 128.265 89.59 128.113 90.3901C129.198 90.5629 130.264 90.832 131.293 91.1938C131.87 91.3963 132.465 91.6492 132.818 92.1172C133.267 92.7131 133.214 93.5393 132.885 94.1999Z" fill="#FF8F8F"/>
<path d="M69.6227 123.004C60.9115 121.357 51.4929 118.986 47.4924 118.437C40.4692 117.474 31.721 123.492 31.721 123.492L24.7026 120.479C23.9116 117.831 23.3444 115.126 23.0059 112.397C28.7255 112.965 34.7038 111.27 39.0196 107.735C46.1771 115.592 56.9051 119.916 67.6497 122.512C68.3064 122.67 68.9689 122.826 69.6227 123.004Z" fill="#EC6161"/>
<path d="M45.2268 128.638C45.2268 128.638 23.0199 132.461 16.2963 123.492C9.57171 114.525 15.9208 91.6729 15.9208 91.6729H33.3264C33.3264 91.6729 24.5437 101.339 27.6229 114.06C30.7021 126.782 45.2268 128.638 45.2268 128.638Z" fill="#333576"/>
<path d="M88.5844 98.6464C88.5613 98.5761 88.6043 98.5016 88.6805 98.4802C96.6259 96.2565 107.286 91.1544 114.613 87.1214C114.681 87.0836 114.77 87.1044 114.81 87.1677C114.851 87.231 114.829 87.3128 114.76 87.3505C107.419 91.3917 96.7341 96.5047 88.7641 98.7354C88.6883 98.7567 88.6076 98.7172 88.5844 98.6464Z" fill="#EC6161"/>
<path d="M96.9589 100.487C96.9408 100.416 96.9886 100.344 97.0662 100.327C99.9755 99.6919 102.683 98.0333 105.322 96.7343C110.321 94.2726 115.575 91.5621 120.028 87.8923C120.087 87.8431 120.178 87.8481 120.231 87.903C120.284 87.9582 120.279 88.0423 120.22 88.0913C114.776 92.5776 108.605 95.3175 103.674 97.8798C101.588 98.9637 99.4315 100.085 97.1323 100.586C97.0588 100.604 96.9779 100.561 96.9589 100.487Z" fill="#EC6161"/>
<path d="M100.831 104.166C100.792 104.102 100.817 104.02 100.886 103.984C108.461 100.074 117.136 93.9191 125.213 90.9764C126.103 90.6521 127.054 90.3344 128.046 90.3193C128.046 90.3193 128.047 90.3193 128.048 90.3193C128.127 90.3193 128.191 90.3777 128.192 90.4506C128.193 90.524 128.13 90.5847 128.05 90.586C127.107 90.6003 126.184 90.9092 125.319 91.2243C117.277 94.1545 108.598 100.308 101.027 104.217C101.005 104.229 100.869 104.229 100.831 104.166Z" fill="#EC6161"/>
<path d="M19.8769 97.8039C20.906 97.8039 21.7402 97.0322 21.7402 96.0802C21.7402 95.1282 20.906 94.3564 19.8769 94.3564C18.8479 94.3564 18.0137 95.1282 18.0137 96.0802C18.0137 97.0322 18.8479 97.8039 19.8769 97.8039Z" fill="#050634"/>
<path d="M80.8321 99.2889H58.9453V61.9209L80.2761 65.6872C80.273 65.3655 80.5155 80.099 80.8321 99.2889Z" fill="#C6DAFF"/>
<path d="M60.9481 67.518L61.4459 99.2908H58.9453V61.9209L80.2773 65.6876L80.3147 67.9732L60.9481 67.518Z" fill="#7F97F7"/>
<path d="M115.167 62.4162V99.2897H80.8333C80.7968 97.0793 80.3111 67.5781 80.2773 65.6879L98.8242 43.5967L115.167 62.4162Z" fill="#FEFEFE"/>
<path d="M115.166 97.2754H58.9453V99.289H115.166V97.2754Z" fill="#191880"/>
<path d="M102.701 80.1309H93.6699V96.3983H102.701V80.1309Z" fill="#191880"/>
<path d="M95.3778 80.1309H93.6699V96.3983H95.3778V80.1309Z" fill="#050634"/>
<path d="M115.167 62.4153V69.5249L98.3209 49.3811L80.3442 69.7371L80.2773 65.6883L98.823 43.5977L115.167 62.4153Z" fill="#DCE8FE"/>
<path d="M80.4236 66.8348L54.9258 65.6882V64.5468L79.909 65.5359L99.0318 42.6631L118.939 65.5879L115.967 66.1514L98.8225 45.1802L80.4236 66.8348Z" fill="#47509F"/>
<path d="M54.9258 64.5464L75.3566 42.541L99.0318 42.6626L79.909 65.5354L54.9258 64.5464Z" fill="#5C6ABB"/>
<path d="M65.4716 71.2324L74.5424 72.2319L74.293 85.5183L65.3477 84.3041L65.4716 71.2324Z" fill="#191880"/>
<path d="M102.967 62.5719V73.2746H92.8633V62.5719C92.8633 59.9907 95.1249 57.8984 97.9151 57.8984C100.705 57.8984 102.967 59.9906 102.967 62.5719Z" fill="#191880"/>
<path d="M98.319 57.9141C95.718 58.1041 93.671 60.1174 93.671 62.5726V73.2753H92.8633V62.5726C92.8633 59.8646 95.3508 57.6996 98.319 57.9141Z" fill="#050634"/>
<path d="M69.3571 84.9335C69.3552 84.9335 69.3533 84.9335 69.3514 84.9335C69.2718 84.9306 69.2099 84.8687 69.213 84.795C69.3984 80.3882 69.7467 72.0202 69.7452 71.7299C69.7384 71.6421 69.8185 71.5742 69.9065 71.5864C70.0762 71.6056 70.1047 70.9638 69.501 84.8054C69.498 84.8773 69.4341 84.9335 69.3571 84.9335Z" fill="#FEFEFE"/>
<path d="M74.5191 76.6545L65.4106 75.3641C65.2227 75.3374 65.2647 75.0736 65.4542 75.1006L74.5628 76.3909C74.6415 76.4021 74.6955 76.4701 74.6834 76.543C74.6716 76.6148 74.5989 76.6656 74.5191 76.6545Z" fill="#FEFEFE"/>
<path d="M74.5192 81.6095L65.4106 80.3191C65.223 80.2924 65.2643 80.0292 65.4542 80.0556L74.5628 81.3459C74.6415 81.3571 74.6955 81.4251 74.6834 81.498C74.6716 81.5698 74.5989 81.6206 74.5192 81.6095Z" fill="#FEFEFE"/>
<path d="M98.3199 73.4084C98.2402 73.4084 98.1758 73.3488 98.1758 73.2751V57.9136C98.1758 57.8399 98.2402 57.7803 98.3199 57.7803C98.3996 57.7803 98.464 57.8399 98.464 57.9136V73.2751C98.464 73.3488 98.3996 73.4084 98.3199 73.4084Z" fill="#FEFEFE"/>
<path d="M103.029 63.2423H92.8922C92.8125 63.2423 92.748 63.1826 92.748 63.1089C92.748 63.0352 92.8125 62.9756 92.8922 62.9756H103.029C103.109 62.9756 103.174 63.0352 103.174 63.1089C103.174 63.1826 103.109 63.2423 103.029 63.2423Z" fill="#FEFEFE"/>
<path d="M55.8123 89.3369C58.0994 89.4507 60.515 91.0727 62.4373 92.1154C67.4381 94.8278 71.5808 98.5641 77.6397 99.0582C83.3392 99.5231 89.4031 97.5482 94.8946 99.4407C99.5456 101.044 102.292 105.143 102.234 107.875C102.209 109.019 101.699 110.188 100.712 110.878C99.5142 111.715 97.5144 111.682 96.055 111.882C93.3702 112.25 86.9291 113.08 83.9473 113.25C74.2733 113.801 64.4814 111.631 54.9258 113.131" fill="#FF8F8F"/>
<path d="M71.5383 113.1C66.0718 112.758 60.4196 112.405 54.9515 113.263C54.8732 113.276 54.7986 113.226 54.7852 113.154C54.772 113.081 54.8248 113.013 54.9033 113C64.4773 111.498 74.281 113.666 83.9401 113.117C88.1305 112.878 95.0795 111.823 97.1228 111.635C98.3485 111.521 99.7377 111.393 100.627 110.772C101.518 110.149 102.066 109.065 102.091 107.873C102.149 105.193 99.4292 101.145 94.8461 99.5658C89.3655 97.6774 83.3877 99.6597 77.6287 99.1911C73.0305 98.8161 68.5803 96.8161 65.4191 93.7041C65.3646 93.6505 65.3674 93.5661 65.4254 93.5156C65.4833 93.4653 65.5748 93.4679 65.6291 93.5213C68.7425 96.5864 73.1254 98.5562 77.654 98.9255C83.4277 99.3952 89.3667 97.3928 94.9466 99.3158C99.6445 100.935 102.439 105.085 102.38 107.878C102.352 109.151 101.762 110.312 100.8 110.985C99.5673 111.846 97.5406 111.814 96.0778 112.014C84.0276 113.666 81.8634 113.745 71.5383 113.1Z" fill="#EC6161"/>
<path d="M102.175 108.3C102.046 109.686 100.901 110.9 99.5191 111.374C98.6822 111.66 97.773 111.696 96.8813 111.728C95.5102 111.777 94.0648 111.595 92.7053 111.389C92.2139 108.649 92.5281 105.912 93.7168 103.362C93.7902 103.204 93.8535 103.173 94.0413 103.211C96.1008 103.623 98.1625 104.139 100.004 105.087C100.469 105.326 100.924 105.596 101.29 105.954C101.924 106.574 102.254 107.45 102.175 108.3Z" fill="#FCB9B9"/>
<defs>
<linearGradient id="paint0_linear_125_4640" x1="91.9209" y1="108.318" x2="89.9718" y2="58.1978" gradientUnits="userSpaceOnUse">
<stop stop-color="#7F97F7"/>
<stop offset="1" stop-color="#C6DAFF"/>
</linearGradient>
</defs>
</svg>
