<svg width="174" height="160" viewBox="0 0 174 160" fill="none" xmlns="http://www.w3.org/2000/svg">
<path d="M32.0351 131.562C37.9877 136.117 44.4982 139.716 51.3712 142.252L94.803 141.543C131.144 141.695 160.179 131.345 166.851 112.793C168.045 109.475 172.538 96.9907 167.139 88.164C163.894 82.8574 158.439 81.1888 156.454 80.5221C134.357 73.0783 108.791 107.985 96.9579 101.475C88.7462 96.9526 92.5442 79.204 83.2843 70.0307C70.6519 57.5202 47.5039 66.6402 38.2856 70.1183C27.8496 74.0497 9.71731 80.884 7.48623 94.7202C4.88848 110.857 25.5597 126.591 32.0351 131.562Z" fill="#ECF3FA"/>
<path d="M81.7562 137.025C62.7868 116.709 57.9199 101.943 57.9199 101.943L57.9511 101.623L58.7847 101.391C58.7847 101.391 67.8093 100.938 71.9983 101.075L72.1574 102.218H73.541C78.2003 110.538 81.7562 137.025 81.7562 137.025Z" fill="url(#paint0_linear_125_4273)"/>
<path d="M80.7363 73.3251C80.5475 75.3284 80.4574 77.3415 80.4665 79.3556C80.4665 83.5079 80.5115 85.6299 81.5976 87.6108C82.0957 88.5175 83.2372 90.2013 85.8038 91.4203L83.1611 91.7784C84.0234 92.618 85.1239 93.1015 86.2742 93.146C86.9814 93.155 87.6817 92.9924 88.3254 92.6699C87.2468 94.3384 85.8243 95.7014 84.1746 96.647C78.4326 99.8927 72.3239 96.3651 71.6113 95.9346C75.3402 87.8579 76.7688 78.7297 75.7103 69.7441L80.7363 73.3251Z" fill="url(#paint1_linear_125_4273)"/>
<path d="M71.584 113.009C72.4072 113.45 73.1952 113.968 73.9396 114.555C75.719 115.963 77.2332 117.738 78.3983 119.782C78.4229 117.997 78.3071 116.212 78.0524 114.449C77.5785 111.176 76.9524 106.83 74.5934 105.957C73.9297 105.735 73.2193 105.748 72.5629 105.995C72.2424 108.329 71.9161 110.667 71.584 113.009Z" fill="url(#paint2_linear_125_4273)"/>
<path d="M69.8388 112.971C69.1265 113.436 68.5402 114.103 68.1404 114.902C66.7152 117.87 68.9982 121.336 68.2753 121.851C67.5523 122.365 64.2455 119.946 64.2835 116.86C64.3077 114.986 65.5634 113.664 66.3071 112.879C66.5561 112.62 68.3825 110.681 69.3268 111.306C69.78 111.618 69.8491 112.407 69.8388 112.971Z" fill="url(#paint3_linear_125_4273)"/>
<path d="M94.8119 141.543L51.5946 142.412C51.5946 142.412 49.4396 141.33 44.6453 139.318L43.9016 139.002C43.151 138.69 42.3727 138.316 41.5945 137.905C36.8659 135.417 32.0371 131.562 32.0371 131.562C33.3198 128.329 34.3779 124.994 35.2021 121.585C36.6411 115.722 40.9511 108.354 43.1822 105.036C45.057 102.236 52.0373 102.351 54.1923 102.461L54.8322 102.495L57.9454 101.623L57.9108 101.943C57.9108 101.943 62.7535 116.709 81.7505 137.025C81.7505 137.025 78.1946 110.537 73.5526 102.225H72.1586L71.9995 101.082C73.0372 101.12 73.7913 101.193 74.0161 101.314C74.1123 101.376 74.2047 101.445 74.2928 101.52C74.2928 101.539 74.3205 101.543 74.3309 101.554C74.535 101.733 74.7944 101.981 75.1022 102.29C77.4717 104.663 82.5012 110.419 82.5012 110.419C83.3763 114.221 94.8119 141.543 94.8119 141.543Z" fill="url(#paint4_linear_125_4273)"/>
<path d="M58.7851 86.6582L57.9238 101.942L71.9433 115.881L72.2685 101.39L70.7569 100.319L70.6773 93.7553L58.3527 86.7763" fill="url(#paint5_linear_125_4273)"/>
<path opacity="0.36" d="M57.7051 120.038L61.3717 122.651L61.4824 134.175L82.2954 138.567L62.6688 118.377L57.7051 120.038Z" fill="#D83227"/>
<path d="M79.3885 72.4044C79.016 74.6386 78.8354 76.9063 78.8489 79.1778C78.8697 83.1473 79.4681 83.3492 79.1706 85.4711C78.7866 88.2406 77.1159 90.4235 73.7779 94.7397C71.8962 97.1778 71.2252 97.6425 70.4365 97.8254C69.6478 98.0083 68.2781 98.0159 64.9332 95.3302C62.4599 93.3454 60.3914 91.0825 57.9251 87.7111C55.0299 83.8102 53.584 81.8368 53.1759 80.0006C51.851 74.0997 55.3966 68.9911 55.7632 68.4768C56.7006 67.1702 59.0943 63.8254 62.6813 63.4902C67.524 63.033 70.5991 68.4997 74.6531 66.8159C75.8845 66.3054 76.4656 65.4406 77.3477 65.7454C78.8766 66.2863 79.2813 69.6882 79.3885 72.4044Z" fill="url(#paint6_linear_125_4273)"/>
<path opacity="0.4" d="M62.7868 65.4547C62.7868 65.4547 64.2949 70.0681 61.8874 72.7995C61.1956 73.4738 60.3066 74.4262 60.3066 74.4262H68.7917C68.7917 74.4262 70.3379 71.3366 69.9781 68.3652C69.9781 68.3652 70.5523 72.6014 69.8329 74.5823H76.9516C76.9516 74.5823 78.3905 69.4738 77.384 66.8604C76.3774 64.2471 64.4402 62.9023 64.4402 62.9023L62.7868 65.4547Z" fill="#E95158"/>
<path d="M77.6049 67.5954C77.4641 69.1235 77.1931 70.6336 76.7955 72.1058C76.5674 72.9528 76.2984 73.7857 75.9895 74.6011L70.1645 74.0677C70.8053 71.8965 70.8796 69.5708 70.3789 67.3553C70.3447 68.8769 70.1638 70.3902 69.8393 71.8696C69.7113 72.4601 69.5661 73.0125 69.4069 73.5344L62.8832 73.1192C63.5247 72.3336 63.9548 71.3666 64.125 70.3268C64.5297 67.702 63.0042 65.7554 62.7759 65.4544C62.085 66.0933 61.5788 66.9408 61.3197 67.8925C61.1337 68.691 61.1337 69.5283 61.3197 70.3268C61.593 71.7668 60.3961 74.5439 54.2529 80.3649L58.6631 88.7611L58.5697 92.0563C59.1304 93.142 59.8818 94.0939 60.7801 94.8563C62.0507 95.9195 63.5618 96.5783 65.1489 96.7611C64.419 97.2868 59.8946 100.441 54.5227 98.7192C50.5655 97.4506 48.4347 94.2696 47.6046 93.0049C45.1037 89.1573 44.9169 85.1839 44.8546 83.3249C44.6471 77.302 46.9992 72.883 48.8983 69.3096C50.6762 65.9649 52.5441 62.4525 56.4493 59.6868C58.0993 58.5173 62.814 55.2868 69.0126 56.3611C70.6245 56.6392 75.6332 57.5992 79.0992 62.6582C82.4303 67.5153 82.0774 72.8715 81.9564 74.1782C81.2139 74.3905 80.4556 74.5295 79.6907 74.5934C79.0264 74.6508 78.3591 74.6508 77.6948 74.5934C77.9236 73.3029 78.0142 71.9872 77.9646 70.6734C77.9328 69.6372 77.8123 68.6067 77.6049 67.5954Z" fill="url(#paint7_linear_125_4273)"/>
<path d="M63.537 78.412L54.0938 78.2329V77.6272L63.5162 77.292L63.537 78.412Z" fill="url(#paint8_linear_125_4273)"/>
<path d="M56.4673 79.8893C56.3047 79.1616 55.8931 77.3178 54.3089 76.4607C53.4026 75.9578 51.8391 75.6226 50.964 76.4607C49.5319 77.8321 50.6769 81.6607 52.313 83.7635C52.7661 84.3464 53.8142 85.6988 54.8485 85.4283C55.8827 85.1578 56.322 83.3254 56.4673 82.6969C56.673 81.7747 56.673 80.8114 56.4673 79.8893Z" fill="url(#paint9_linear_125_4273)"/>
<path opacity="0.36" d="M54.2879 113.627C53.5961 116.934 50.8288 118.264 50.3342 118.496C49.6499 118.821 48.922 119.022 48.1792 119.09C47.3041 119.89 46.4255 120.698 45.5573 121.505C45.2183 123.446 44.8816 125.385 44.5472 127.323L46.0208 130.256C45.5596 133.273 45.0983 136.294 44.6371 139.319L43.8934 139.003C43.1428 138.69 42.3645 138.317 41.5863 137.905C40.9878 136.504 40.3929 135.102 39.791 133.715C40.1162 128.844 40.439 123.974 40.7596 119.105L52.5514 107.296C52.7209 107.471 55.0143 110.096 54.2879 113.627Z" fill="#D83227"/>
<path d="M55.0101 79.7107C54.3425 78.5679 52.9174 77.7564 52.2428 78.225C51.4403 78.7964 51.5718 81.4136 52.8897 82.4421C53.5365 82.9488 54.64 83.204 55.2073 82.6212C55.8679 81.9431 55.4667 80.4879 55.0101 79.7107Z" fill="url(#paint10_linear_125_4273)"/>
<path d="M74.6685 80.4834C74.5504 81.3869 74.6022 82.3076 74.8207 83.1882C74.925 83.6091 75.1463 83.9834 75.4537 84.2586L75.7062 84.4643C75.8135 84.5532 75.8903 84.6794 75.9241 84.8224C75.9428 84.9557 75.9371 85.0918 75.9074 85.2226C75.8777 85.3534 75.8246 85.4764 75.7512 85.5844C75.4868 85.9856 75.1139 86.2843 74.6858 86.4377C74.2635 86.5911 73.8075 86.5911 73.3852 86.4377C72.9744 86.2984 72.5999 86.0528 72.293 85.7214C71.986 85.39 71.7557 84.9825 71.6211 84.5329C71.7953 84.942 72.0489 85.304 72.3638 85.5936C72.6787 85.8832 73.0474 86.0933 73.444 86.2091C73.8247 86.3288 74.229 86.3221 74.6063 86.1901C74.9763 86.0473 75.2967 85.7809 75.5229 85.4282C75.6318 85.2792 75.6828 85.0888 75.6647 84.8986C75.6647 84.7463 75.4676 84.6434 75.2946 84.4834C74.9456 84.1732 74.7019 83.7423 74.6028 83.2605C74.5181 82.8016 74.4741 82.3346 74.4714 81.8663C74.4783 81.3974 74.5447 80.932 74.6685 80.4834Z" fill="url(#paint11_linear_125_4273)"/>
<path d="M74.5473 88.0537C74.4124 88.1147 74.2602 88.1795 74.0838 88.2404C73.0987 88.608 72.0552 88.7468 71.019 88.648C69.4498 88.4894 67.9607 87.8122 66.7471 86.7052C66.5707 86.549 66.4323 86.408 66.332 86.3242C66.588 86.4385 66.8578 86.5604 67.1449 86.6709C68.487 87.2209 69.8785 87.6117 71.2958 87.8366C72.2271 87.988 73.1666 88.0695 74.108 88.0804L74.5473 88.0537Z" fill="url(#paint12_linear_125_4273)"/>
<path d="M74.0964 88.2402L74.0687 88.5831C74.0541 88.7672 73.9981 88.9445 73.9057 89.0988C73.8133 89.2531 73.6874 89.3796 73.5395 89.4669C73.2368 89.6476 72.9059 89.7639 72.564 89.8097C70.6408 90.0993 68.3544 88.9945 67.3374 88.4269C67.176 88.3342 67.0395 88.1963 66.9418 88.0271C66.844 87.8579 66.7884 87.6634 66.7805 87.4631L66.7598 86.7012C67.9734 87.8082 69.4625 88.4854 71.0317 88.644C72.0676 88.744 73.1111 88.6065 74.0964 88.2402Z" fill="white"/>
<path d="M57.9249 101.943C60.2286 103.996 62.6015 106.263 65.0056 108.754C66.3039 110.098 67.5388 111.431 68.7102 112.754C68.1351 113.801 67.6708 114.917 67.3266 116.08C66.5377 118.862 66.4185 121.822 66.9807 124.671L54.791 100.796L58.1359 99.9658L57.9249 101.943Z" fill="white"/>
<path d="M43.794 138.807L45.1777 130.106C44.5654 129.154 39.8542 121.965 36.7376 123.157C36.5364 123.235 36.3465 123.344 36.1738 123.481L32.3965 131.862C32.3965 131.862 37.969 136.788 43.794 138.807Z" fill="url(#paint13_linear_125_4273)"/>
<path d="M81.7569 137.025C77.952 132.945 74.7005 129.09 71.954 125.532L71.6738 118.259L73.8842 117.543L79.5189 123.364C80.9199 130.758 81.7569 137.025 81.7569 137.025Z" fill="url(#paint14_linear_125_4273)"/>
<path d="M36.4043 123.604C36.4043 123.604 36.9439 128.354 42.6064 130.312C48.2688 132.27 42.7689 126.122 42.7689 126.122L36.4043 123.604Z" fill="#C82127"/>
<path d="M84.4576 122.77L83.0394 133.117L82.2957 138.568L78.4424 137.181L62.7867 131.562L62.3578 120.515L55.8686 119.92C56.0449 114.696 55.5795 109.469 54.485 104.381C54.3432 103.547 54.2498 102.934 54.2117 102.477C54.0872 101.018 54.53 101.136 55.6749 100.656C56.4669 100.293 57.3043 100.066 58.1585 99.9814L57.9683 101.639L57.9371 101.959C57.9371 101.959 61.0503 111.387 71.9705 125.547C74.717 129.105 77.965 132.96 81.7734 137.04C81.7734 137.04 80.9363 130.774 79.5354 123.38C78.0584 115.574 75.9588 106.507 73.5755 102.24H72.1919L72.0327 101.098L72.012 100.934C72.012 100.934 72.3821 100.13 74.0528 101.315L74.3261 101.52C74.3382 101.534 74.3522 101.546 74.3676 101.555C74.4817 101.646 74.6097 101.749 74.7343 101.867C74.8789 101.996 75.0142 102.138 75.139 102.29C77.7575 105.376 84.2605 118.53 84.2605 118.53C84.2605 118.53 82.0329 119.364 81.8391 121.197L84.4576 122.77Z" fill="url(#paint15_linear_125_4273)"/>
<path d="M54.3628 110.121C54.3144 112.537 52.0418 116.072 50.8761 116.777C50.8114 116.828 50.7379 116.865 50.66 116.885C50.5822 116.904 50.5016 116.906 50.4229 116.891C49.655 116.624 49.8314 114.944 49.8764 114.605V114.556C49.7415 114.845 47.9359 118.853 44.968 120L43.1658 127.862L42.5986 130.335C40.7085 129.877 39.0212 128.711 37.8251 127.036C37.1285 126.021 36.641 124.851 36.3965 123.607C36.3965 123.607 36.5279 123.226 36.7424 122.613C37.3373 120.773 38.5376 116.937 38.6207 115.6C38.7313 113.817 38.8905 107.641 39.4301 105.207C39.9697 102.773 40.4021 99.9805 39.7518 97.7215C39.1015 95.4624 40.1323 94.3958 41.9137 96.0567C43.6951 97.7177 43.529 101.996 43.152 103.481C43.152 103.481 45.0925 100.392 47.5173 101.523C49.9421 102.655 49.783 104.141 49.783 104.141C49.783 104.141 51.2946 103.603 51.8342 106.217C51.8273 106.201 54.4147 107.329 54.3628 110.121Z" fill="url(#paint16_linear_125_4273)"/>
<path d="M154.206 101.788C153.894 105.921 152.666 111.913 150.985 117.567C148.747 125.113 145.7 132.043 142.988 133.148C138.239 135.052 98.6913 135.247 97.0033 135.327C96.0452 135.369 95.3188 135.327 94.7653 135.064C94.3144 134.835 93.9586 134.427 93.7691 133.921C93.188 132.614 95.3499 124.892 95.3499 124.892C97.2801 116.671 99.3635 108.279 101.6 99.7153C103.527 92.3933 105.059 85.0714 107.481 78.26L107.54 78.0924C107.619 77.8867 107.955 77.7533 108.515 77.6886C114.983 76.9267 151.061 84.9495 153.061 86.4048C155.209 88.001 154.922 92.1229 154.206 101.788Z" fill="url(#paint17_linear_125_4273)"/>
<path d="M101.6 127.524C99.5966 130.321 97.3027 132.852 94.7653 135.063C94.3144 134.833 93.9586 134.425 93.7691 133.92C93.188 132.613 95.3499 124.891 95.3499 124.891C97.2801 116.67 99.3635 108.278 101.6 99.714C103.527 92.3921 105.059 85.0702 107.481 78.2588C108.93 82.0852 109.93 86.1 110.456 90.2055C110.826 93.1655 112.943 111.729 101.6 127.524Z" fill="url(#paint18_linear_125_4273)"/>
<path d="M154.207 101.787C153.895 105.92 152.668 111.913 150.986 117.566C151.059 111.726 151.128 103.547 151.042 99.8861C150.9 93.8632 145.431 94.1718 136.946 98.6175C128.461 103.063 124.148 102.259 118.537 99.5699C113.964 97.3718 109.862 82.9299 108.506 77.7032C114.974 76.9413 151.052 84.9642 153.051 86.4194C155.21 88.0004 154.923 92.1223 154.207 101.787Z" fill="#4A6FA4"/>
<path d="M129.545 110.18L138.767 111.486C139.243 111.637 139.67 111.933 139.999 112.34C140.967 113.524 140.728 115.364 140.6 116.237C139.376 124.618 135.066 134.904 133.357 141.578C133.143 142.42 132.69 144.302 131.192 145.49C130.76 145.833 129.808 146.465 126.526 146.568C124.466 146.629 122.406 146.456 120.379 146.054L123.181 142.667L132.133 113.803L129.545 110.18Z" fill="url(#paint19_linear_125_4273)"/>
<path d="M71.9804 111.92C72.6865 112.263 73.3608 112.68 73.9935 113.166C75.6386 114.447 76.9716 116.154 77.8746 118.137C77.8746 118.137 77.4975 115.734 76.9303 112.838C76.1001 108.591 75.7819 106.785 74.8548 104.598C73.5127 101.425 72.3297 100.549 71.3128 100.358C71.1287 100.326 70.9422 100.313 70.7559 100.32L71.2643 100.888C71.5431 101.197 71.7629 101.564 71.9108 101.967C72.0588 102.371 72.1318 102.803 72.1256 103.238C72.0772 106.134 72.0288 109.028 71.9804 111.92Z" fill="white"/>
<path d="M125.008 113.029C125.008 113.029 131.625 112.161 130.332 116.595C129.038 121.029 124.074 142.881 120.913 143.441C117.751 144.001 105.523 143.441 105.523 143.441V146.054H120.373C120.373 146.054 123.607 146.233 125.278 141.898C126.949 137.563 133.154 116.191 133.154 116.191C133.154 116.191 134.662 111.795 131.266 110.667C127.869 109.54 125.333 110.191 125.333 110.191L125.008 113.029Z" fill="#4A6FA4"/>
<path d="M74.507 88.6479C74.68 88.7203 74.59 90.6251 73.4693 92.0955C73.1995 92.4498 72.1376 93.8555 70.664 93.7565C69.5122 93.6803 68.7685 92.7279 68.0213 91.7679C67.1695 90.6614 66.5684 89.3479 66.2676 87.9355C66.714 89.1701 67.4833 90.2308 68.4779 90.9832C69.1186 91.5348 69.9029 91.8459 70.7159 91.8708C72.1376 91.8365 73.1372 90.6898 73.4416 90.3279C74.2234 89.4213 74.3894 88.6022 74.507 88.6479Z" fill="url(#paint20_linear_125_4273)"/>
<path d="M63.0536 77.6426C63.0536 77.7988 63.0536 77.9512 63.0536 78.1073C62.8772 78.1073 62.7077 78.0654 62.5312 78.0426V77.9892C62.5312 77.8978 62.5312 77.8064 62.5312 77.715L63.0051 77.6464L63.0536 77.6426Z" fill="#D76868"/>
<path d="M62.9924 77.6455V78.0493C62.8332 78.0226 62.6776 78.0036 62.5254 77.9884C62.5254 77.8969 62.5254 77.8055 62.5254 77.7141L62.9924 77.6455Z" fill="#E26F6F"/>
<path d="M68.3848 116.179L68.8171 112.198L72.3212 111.844L74.3724 114.042L73.8881 117.543L71.6743 118.255L68.3848 116.179Z" fill="url(#paint21_linear_125_4273)"/>
<path opacity="0.4" d="M70.6211 77.0977C70.7321 77.8319 70.6859 78.5846 70.4862 79.2957C69.9812 81.0596 68.3762 82.8653 66.4702 82.7243C65.583 82.6359 64.7525 82.2056 64.125 81.5091C64.5721 82.4297 65.3107 83.1373 66.2004 83.4977C67.93 84.1338 69.4831 82.9453 70.0054 82.5453C70.7733 82.0005 71.3757 81.215 71.7349 80.29C72.0818 79.3473 72.1567 78.3098 71.9494 77.3186L70.6211 77.0977ZM76.8508 78.1986C76.4523 78.9035 76.2292 79.7115 76.204 80.5415C76.1452 82.9643 77.892 84.5072 78.1169 84.7015C77.271 84.6265 76.4773 84.2212 75.8788 83.5586C74.6025 82.0348 75.1386 79.8215 75.232 79.4596C75.3431 79.0401 75.5073 78.64 75.7197 78.271L76.8508 78.1986Z" fill="#E95158"/>
<path d="M81.7449 79.5545C81.7431 79.5116 81.7329 79.4696 81.715 79.4315C81.6971 79.3933 81.6719 79.3599 81.6411 79.3336C80.5541 78.383 79.2227 77.8338 77.8361 77.764C77.0455 77.7332 76.2565 77.8623 75.5082 78.145C75.4729 78.1575 75.4403 78.1778 75.4123 78.2047C75.3844 78.2315 75.3617 78.2643 75.3456 78.3012C75.2972 78.4193 75.2522 78.5374 75.2073 78.6555C74.8777 78.3398 74.4818 78.1198 74.0554 78.0155C73.4688 77.8854 72.8596 77.9767 72.3259 78.2745C72.3265 77.9674 72.308 77.6607 72.2705 77.3564C72.2621 77.2965 72.2374 77.2409 72.1998 77.1967C72.1621 77.1525 72.1132 77.1219 72.0595 77.1088C70.5296 76.705 68.963 76.4928 67.3898 76.4764C66.0889 76.4644 64.7897 76.5842 63.5088 76.8345C63.4581 76.8457 63.411 76.8718 63.3727 76.91C63.3343 76.9483 63.306 76.9972 63.2909 77.0516C63.0912 77.8262 63.044 78.6389 63.1526 79.4351C63.2612 80.2314 63.523 80.993 63.9204 81.6688C64.3009 82.2859 65.3697 83.7374 67.1684 83.9545C67.3068 83.9697 67.4417 83.9774 67.5731 83.9774C69.6486 83.9774 71.0322 82.145 71.2985 81.7564C71.8464 80.9572 72.1871 80.0092 72.2844 79.0136C72.5242 78.8287 72.7957 78.6995 73.0824 78.634C73.369 78.5685 73.6648 78.568 73.9516 78.6326C74.3656 78.7348 74.7418 78.9725 75.0309 79.3145C74.5293 81.3374 75.0827 83.4478 76.4698 84.4116C77.0432 84.8018 77.7052 85.0052 78.3792 84.9983C79.1051 85.0171 79.8148 84.7602 80.3889 84.2707C81.1326 83.5888 81.3678 82.5602 81.5581 81.7374C81.72 81.0243 81.783 80.2883 81.7449 79.5545ZM70.8592 81.3678C70.6067 81.7488 69.2439 83.5469 67.2238 83.3297C66.6465 83.2387 66.0937 83.0124 65.6026 82.6661C65.1115 82.3198 64.6936 81.8615 64.377 81.3221C64.0428 80.7453 63.8176 80.1002 63.7148 79.4254C63.612 78.7506 63.6337 78.0599 63.7786 77.3945C64.9695 77.1742 66.1753 77.0671 67.3829 77.0745C68.8523 77.0904 70.3159 77.2807 71.7482 77.6421C71.8924 78.9633 71.5745 80.2954 70.8592 81.3678ZM81.0219 81.5583C80.8455 82.3202 80.6414 83.2193 80.0361 83.7755C79.2232 84.5374 77.7531 84.5602 76.7638 83.8707C75.4079 82.9221 74.9963 80.6593 75.8091 78.6707C76.4612 78.4405 77.145 78.3387 77.8292 78.3697C79.052 78.436 80.2279 78.9089 81.2018 79.7259C81.2203 80.343 81.1598 80.9599 81.0219 81.5583Z" fill="url(#paint22_linear_125_4273)"/>
<path d="M50.8773 116.778C50.8126 116.83 50.7391 116.866 50.6613 116.886C50.5834 116.906 50.5028 116.908 50.4241 116.892C49.6562 116.626 49.8326 114.946 49.8776 114.607V114.557V114.538L52.0499 110.729C51.787 111.266 50.0091 114.854 50.8773 116.778Z" fill="url(#paint23_linear_125_4273)"/>
<path d="M43.1737 127.843L42.6064 130.316C40.7163 129.858 39.029 128.692 37.8329 127.017C37.1363 126.002 36.6488 124.832 36.4043 123.588C36.4043 123.588 36.5357 123.207 36.7502 122.594C36.7702 123.369 36.9301 124.132 37.2205 124.838C37.5109 125.544 37.926 126.18 38.4417 126.708C39.0899 127.301 39.8582 127.714 40.6818 127.912C41.5054 128.109 42.3601 128.086 43.1737 127.843Z" fill="url(#paint24_linear_125_4273)"/>
<path d="M73.49 86.1258C73.5765 85.9696 73.2548 85.4934 72.8432 85.3448C72.7948 85.3258 72.5215 85.2229 72.4489 85.3448C72.3762 85.4667 72.5699 85.8781 72.8778 86.0686C73.0957 86.1867 73.4209 86.2477 73.49 86.1258Z" fill="#E95158"/>
<path d="M119.807 65.5237C116.427 71.5428 109.015 71.4742 107.942 71.4628C102.754 71.4133 94.798 68.5371 94.1374 62.6742C93.5147 57.2723 99.3917 52.1066 104.49 50.6742C111.36 48.7695 120.011 52.7009 121.208 58.7542C121.834 61.9047 120.25 64.7237 119.807 65.5237Z" fill="#ECF3FA"/>
<path d="M102.266 44.6246L100.145 45.3522L98.7373 40.3808C98.5041 39.5727 98.4183 38.7217 98.4847 37.877C98.5511 37.0322 98.7685 36.2102 99.1243 35.4583C99.4802 34.7063 99.9675 34.0392 100.558 33.4954C101.149 32.9516 101.831 32.5417 102.566 32.2893L103.732 31.8855C105.101 31.4135 106.58 31.5111 107.889 32.1599C109.197 32.8087 110.243 33.9635 110.83 35.4055C110.899 35.5654 110.936 35.7397 110.94 35.9167C110.943 36.0936 110.912 36.2694 110.849 36.4322C110.786 36.595 110.692 36.7411 110.573 36.861C110.455 36.9809 110.315 37.0717 110.163 37.1274C109.989 37.1792 109.807 37.1883 109.63 37.1541C109.455 37.1135 109.291 37.0263 109.154 36.9001C109.016 36.774 108.909 36.6127 108.841 36.4303C108.505 35.5894 107.922 34.8981 107.184 34.4684C106.331 33.9787 105.336 33.8815 104.417 34.1979L103.248 34.6017C102.789 34.7568 102.362 35.0104 101.992 35.3478C101.622 35.6852 101.316 36.0999 101.092 36.5679C100.868 37.0359 100.73 37.548 100.686 38.0749C100.642 38.6017 100.694 39.1329 100.837 39.6379L102.266 44.6246Z" fill="url(#paint25_linear_125_4273)"/>
<path d="M99.791 43.6562L112.99 39.0842C113.636 38.8605 114.336 38.9285 114.936 39.2732C115.536 39.618 115.988 40.2113 116.191 40.9226L119.578 52.784C119.782 53.4952 119.72 54.2663 119.407 54.9274C119.094 55.5886 118.555 56.0857 117.909 56.3094L104.71 60.8814L99.791 43.6562Z" fill="#4A6FA4"/>
<path d="M109.488 40.299L99.813 43.6503C98.1656 44.221 97.2501 46.1544 97.7683 47.9687L100.811 58.6236C101.329 60.438 103.085 61.4462 104.732 60.8755L114.407 57.5242C116.054 56.9535 116.97 55.0201 116.452 53.2058L113.409 42.5509C112.891 40.7365 111.135 39.7283 109.488 40.299Z" fill="url(#paint26_linear_125_4273)"/>
<path d="M107.118 33.1436C108.156 33.851 108.994 34.8628 109.539 36.0655M106.025 32.6407C106.413 32.754 106.785 32.9245 107.132 33.1474M104.254 32.534C104.634 32.4736 105.02 32.4672 105.402 32.515M100.272 42.7588L99.366 39.5855C98.9965 38.3025 99.0963 36.9113 99.6442 35.7081C100.192 34.505 101.145 33.5848 102.299 33.1436" stroke="white" stroke-width="0.380952" stroke-miterlimit="10"/>
<path d="M108.581 49.8739C108.487 49.541 108.311 49.2435 108.072 49.015C107.833 48.7864 107.541 48.6359 107.228 48.5805C106.916 48.525 106.596 48.5668 106.304 48.701C106.012 48.8353 105.76 49.0567 105.576 49.3404C105.392 49.624 105.284 49.9586 105.263 50.3063C105.243 50.6541 105.311 51.0012 105.46 51.3086C105.609 51.616 105.833 51.8714 106.107 52.0459C106.381 52.2205 106.694 52.3074 107.01 52.2967L107.681 54.6396L108.581 54.3272L107.91 51.9767C108.212 51.7527 108.441 51.427 108.562 51.048C108.683 50.6691 108.69 50.2572 108.581 49.8739Z" fill="url(#paint27_linear_125_4273)"/>
<path d="M113.082 35.146L114.023 32.7041" stroke="url(#paint28_linear_125_4273)" stroke-width="0.380952" stroke-miterlimit="10"/>
<path d="M114.732 35.8816L116.403 34.8721" stroke="url(#paint29_linear_125_4273)" stroke-width="0.380952" stroke-miterlimit="10"/>
<path d="M115.281 37.9971L117.17 38.2752" stroke="url(#paint30_linear_125_4273)" stroke-width="0.380952" stroke-miterlimit="10"/>
<defs>
<linearGradient id="paint0_linear_125_4273" x1="57.9199" y1="119.037" x2="81.7562" y2="119.037" gradientUnits="userSpaceOnUse">
<stop stop-color="white"/>
<stop offset="1" stop-color="#ABCBE0"/>
</linearGradient>
<linearGradient id="paint1_linear_125_4273" x1="71.6217" y1="83.8622" x2="88.3393" y2="83.8622" gradientUnits="userSpaceOnUse">
<stop stop-color="#0E1538"/>
<stop offset="0.94" stop-color="#2D327D"/>
</linearGradient>
<linearGradient id="paint2_linear_125_4273" x1="71.584" y1="112.78" x2="78.4018" y2="112.78" gradientUnits="userSpaceOnUse">
<stop stop-color="#B8D3E7"/>
<stop offset="1" stop-color="#ABCBE0"/>
</linearGradient>
<linearGradient id="paint3_linear_125_4273" x1="64.2835" y1="116.548" x2="69.8388" y2="116.548" gradientUnits="userSpaceOnUse">
<stop stop-color="#B8D3E7"/>
<stop offset="1" stop-color="#ABCBE0"/>
</linearGradient>
<linearGradient id="paint4_linear_125_4273" x1="32.0371" y1="121.745" x2="94.8119" y2="121.745" gradientUnits="userSpaceOnUse">
<stop stop-color="#F16433"/>
<stop offset="1" stop-color="#D83227"/>
</linearGradient>
<linearGradient id="paint5_linear_125_4273" x1="63.192" y1="110.822" x2="67.0037" y2="95.5715" gradientUnits="userSpaceOnUse">
<stop stop-color="#F9BEB7"/>
<stop offset="1" stop-color="#E95158"/>
</linearGradient>
<linearGradient id="paint6_linear_125_4273" x1="52.8784" y1="80.6825" x2="79.3851" y2="80.6825" gradientUnits="userSpaceOnUse">
<stop stop-color="#F9BEB7"/>
<stop offset="1" stop-color="#E95158"/>
</linearGradient>
<linearGradient id="paint7_linear_125_4273" x1="44.8581" y1="77.6868" x2="82.0463" y2="77.6868" gradientUnits="userSpaceOnUse">
<stop stop-color="#0E1538"/>
<stop offset="0.94" stop-color="#2D327D"/>
</linearGradient>
<linearGradient id="paint8_linear_125_4273" x1="54.0938" y1="77.852" x2="63.537" y2="77.852" gradientUnits="userSpaceOnUse">
<stop stop-color="#F5E18A"/>
<stop offset="1" stop-color="#EBBA60"/>
</linearGradient>
<linearGradient id="paint9_linear_125_4273" x1="50.3137" y1="80.6892" x2="56.6195" y2="80.6892" gradientUnits="userSpaceOnUse">
<stop stop-color="#F9BEB7"/>
<stop offset="1" stop-color="#E95158"/>
</linearGradient>
<linearGradient id="paint10_linear_125_4273" x1="51.762" y1="80.5259" x2="55.5635" y2="80.5259" gradientUnits="userSpaceOnUse">
<stop stop-color="#F07973"/>
<stop offset="1" stop-color="#D52B37"/>
</linearGradient>
<linearGradient id="paint11_linear_125_4273" x1="71.4896" y1="83.5158" x2="75.9449" y2="83.5158" gradientUnits="userSpaceOnUse">
<stop stop-color="#E95158"/>
<stop offset="1" stop-color="#F9BEB7"/>
</linearGradient>
<linearGradient id="paint12_linear_125_4273" x1="66.3355" y1="87.4937" x2="74.5576" y2="87.4937" gradientUnits="userSpaceOnUse">
<stop stop-color="#F07973"/>
<stop offset="1" stop-color="#D52B37"/>
</linearGradient>
<linearGradient id="paint13_linear_125_4273" x1="32.4138" y1="130.914" x2="45.195" y2="130.914" gradientUnits="userSpaceOnUse">
<stop stop-color="#D83227"/>
<stop offset="1" stop-color="#F16433"/>
</linearGradient>
<linearGradient id="paint14_linear_125_4273" x1="71.6738" y1="127.284" x2="81.7569" y2="127.284" gradientUnits="userSpaceOnUse">
<stop stop-color="#0E1538"/>
<stop offset="0.94" stop-color="#2D327D"/>
</linearGradient>
<linearGradient id="paint15_linear_125_4273" x1="64.2395" y1="119.265" x2="94.5235" y2="119.265" gradientUnits="userSpaceOnUse">
<stop stop-color="#F16433"/>
<stop offset="1" stop-color="#D83227"/>
</linearGradient>
<linearGradient id="paint16_linear_125_4273" x1="30.7963" y1="112.773" x2="48.7557" y2="112.773" gradientUnits="userSpaceOnUse">
<stop stop-color="#E95158"/>
<stop offset="1" stop-color="#F9BEB7"/>
</linearGradient>
<linearGradient id="paint17_linear_125_4273" x1="93.6688" y1="106.496" x2="154.731" y2="106.496" gradientUnits="userSpaceOnUse">
<stop stop-color="#A4C8EA"/>
<stop offset="1" stop-color="#5C7FBE"/>
</linearGradient>
<linearGradient id="paint18_linear_125_4273" x1="93.6688" y1="106.666" x2="110.846" y2="106.666" gradientUnits="userSpaceOnUse">
<stop stop-color="white" stop-opacity="0"/>
<stop offset="1" stop-color="#FFF8F6"/>
</linearGradient>
<linearGradient id="paint19_linear_125_4273" x1="130.725" y1="128.382" x2="151.071" y2="128.382" gradientUnits="userSpaceOnUse">
<stop stop-color="#A4C8EA"/>
<stop offset="1" stop-color="#5C7FBE"/>
</linearGradient>
<linearGradient id="paint20_linear_125_4273" x1="66.2814" y1="90.8498" x2="74.5762" y2="90.8498" gradientUnits="userSpaceOnUse">
<stop stop-color="#F07973"/>
<stop offset="1" stop-color="#D52B37"/>
</linearGradient>
<linearGradient id="paint21_linear_125_4273" x1="68.3848" y1="115.051" x2="74.3724" y2="115.051" gradientUnits="userSpaceOnUse">
<stop stop-color="#0E1538"/>
<stop offset="0.94" stop-color="#2D327D"/>
</linearGradient>
<linearGradient id="paint22_linear_125_4273" x1="63.0971" y1="80.7164" x2="81.7552" y2="80.7164" gradientUnits="userSpaceOnUse">
<stop stop-color="#F5E18A"/>
<stop offset="1" stop-color="#EBBA60"/>
</linearGradient>
<linearGradient id="paint23_linear_125_4273" x1="49.8292" y1="113.818" x2="53.3297" y2="113.818" gradientUnits="userSpaceOnUse">
<stop offset="0.64" stop-color="#E95158"/>
<stop offset="1" stop-color="#F9BEB7"/>
</linearGradient>
<linearGradient id="paint24_linear_125_4273" x1="34.9204" y1="126.46" x2="41.6897" y2="126.46" gradientUnits="userSpaceOnUse">
<stop stop-color="#F9BEB7"/>
<stop offset="1" stop-color="#E95158"/>
</linearGradient>
<linearGradient id="paint25_linear_125_4273" x1="100.533" y1="38.2503" x2="112.975" y2="34.6827" gradientUnits="userSpaceOnUse">
<stop stop-color="#ABCBE0"/>
<stop offset="1" stop-color="white"/>
</linearGradient>
<linearGradient id="paint26_linear_125_4273" x1="94.2149" y1="55.0541" x2="110.103" y2="50.5165" gradientUnits="userSpaceOnUse">
<stop stop-color="#A4C8EA"/>
<stop offset="1" stop-color="#5C7FBE"/>
</linearGradient>
<linearGradient id="paint27_linear_125_4273" x1="104.953" y1="51.4622" x2="108.232" y2="50.522" gradientUnits="userSpaceOnUse">
<stop stop-color="#21295D"/>
<stop offset="1" stop-color="#5078BA"/>
</linearGradient>
<linearGradient id="paint28_linear_125_4273" x1="111.926" y1="33.619" x2="113.689" y2="33.1134" gradientUnits="userSpaceOnUse">
<stop stop-color="#ABCBE0"/>
<stop offset="1" stop-color="white"/>
</linearGradient>
<linearGradient id="paint29_linear_125_4273" x1="113.885" y1="35.0795" x2="115.748" y2="34.5452" gradientUnits="userSpaceOnUse">
<stop stop-color="#ABCBE0"/>
<stop offset="1" stop-color="white"/>
</linearGradient>
<linearGradient id="paint30_linear_125_4273" x1="114.571" y1="37.8186" x2="116.377" y2="37.3006" gradientUnits="userSpaceOnUse">
<stop stop-color="#ABCBE0"/>
<stop offset="1" stop-color="white"/>
</linearGradient>
</defs>
</svg>
