<svg width="84" height="84" viewBox="0 0 84 84" fill="none" xmlns="http://www.w3.org/2000/svg">
<rect x="2" y="2" width="80" height="80" rx="40" fill="#FFF8ED" fill-opacity="0.6"/>
<rect x="1" y="1" width="82" height="82" rx="41" stroke="#FFDAA8" stroke-opacity="0.4" stroke-width="2"/>
<path d="M44.0491 25.0942C43.453 25.0556 42.8589 25.195 42.3421 25.4946L20.9491 37.8456C20.424 38.1526 20.0411 38.6541 19.8835 39.2416C19.726 39.8291 19.8065 40.4552 20.1076 40.9837L26.8111 52.5937C27.1181 53.1188 27.6197 53.5016 28.2072 53.6592C28.7947 53.8167 29.4207 53.7362 29.9491 53.4351L51.3436 41.084C52.0576 40.6715 52.5451 40.0041 52.7446 39.2616C53.2711 37.2936 53.8846 34.6671 54.4021 32.5671C55.5511 32.6901 56.5771 32.9107 57.3436 33.1792C57.8596 33.3592 58.2556 33.5691 58.4806 33.7386C58.6906 33.8976 58.6861 33.9622 58.6861 33.9292C58.6801 33.9292 58.6831 33.9305 58.6711 33.944C58.5364 34.0668 58.3816 34.1658 58.2136 34.2366C57.7336 34.4586 56.9371 34.6611 55.9726 34.7706C55.9616 34.7703 55.9506 34.7703 55.9396 34.7706H55.8766C55.8196 34.7706 55.7401 34.7856 55.6606 34.7856C55.5016 34.8006 55.4356 34.8006 55.2706 34.8096C55.1689 34.814 55.0692 34.8391 54.9775 34.8834C54.8858 34.9276 54.8041 34.9902 54.7374 35.067C54.6706 35.1439 54.6202 35.2335 54.5891 35.3305C54.5581 35.4275 54.5472 35.5297 54.557 35.631C54.5668 35.7323 54.5971 35.8307 54.6461 35.9199C54.6951 36.0092 54.7617 36.0874 54.842 36.1501C54.9222 36.2127 55.0144 36.2584 55.1128 36.2843C55.2113 36.3102 55.314 36.3157 55.4146 36.3006C55.3111 36.3156 55.5706 36.3006 55.7371 36.2856C55.8196 36.2856 55.9036 36.2706 55.9771 36.2706C56.0131 36.2706 56.0461 36.2706 56.0791 36.2556C56.1001 36.2556 56.1421 36.2405 56.1736 36.2405C57.2266 36.1205 58.1341 35.9106 58.8391 35.5881C59.1961 35.4231 59.5081 35.2312 59.7616 34.9612C60.0166 34.6912 60.2116 34.2981 60.1966 33.8766C60.1726 33.2886 59.8036 32.8565 59.3866 32.537C58.9696 32.2205 58.4506 31.9701 57.8371 31.7556C56.6116 31.3251 55.0066 31.0402 53.2441 30.9682V30.983C51.4801 30.9095 49.8916 31.0627 48.6811 31.3987C48.0766 31.5652 47.5636 31.7706 47.1466 32.0736C46.7296 32.3736 46.3591 32.8536 46.3816 33.4431C46.4011 33.9231 46.6621 34.3132 46.9711 34.6012C47.0326 34.6597 47.1106 34.7031 47.1796 34.7556C46.9517 34.8079 46.7146 34.8063 46.4874 34.7508C46.2602 34.6953 46.049 34.5876 45.8708 34.436C45.6927 34.2845 45.5523 34.0935 45.4611 33.8781C45.3698 33.6628 45.3301 33.4291 45.3451 33.1957C45.3648 32.883 45.4823 32.5843 45.6809 32.342C45.8796 32.0998 46.1494 31.9262 46.4521 31.8456C46.5487 31.8216 46.6396 31.7785 46.7193 31.7189C46.7991 31.6594 46.8663 31.5846 46.9168 31.4988C46.9674 31.4131 47.0004 31.3181 47.0139 31.2194C47.0273 31.1208 47.0211 31.0206 46.9954 30.9244C46.9697 30.8283 46.9251 30.7381 46.8642 30.6593C46.8034 30.5805 46.7274 30.5147 46.6408 30.4656C46.5543 30.4165 46.4588 30.3849 46.3599 30.3731C46.2611 30.3613 46.1609 30.3693 46.0651 30.3965C45.4604 30.5595 44.9216 30.9075 44.5241 31.3915C44.1267 31.8756 43.8903 32.4717 43.8481 33.0966C43.8079 33.722 43.9641 34.3443 44.2949 34.8766C44.6257 35.4088 45.1146 35.8244 45.6931 36.0651C46.8781 36.5556 48.2521 36.2346 49.0981 35.2701C49.4022 34.9213 49.6215 34.507 49.7389 34.0594C49.8562 33.6118 49.8685 33.1432 49.7746 32.6901C50.7999 32.5153 51.8402 32.4449 52.8796 32.4801C52.3696 34.5516 51.7876 37.0326 51.2926 38.8806C51.2421 39.0708 51.1541 39.2491 51.0338 39.405C50.9135 39.5608 50.7634 39.6909 50.5921 39.788L29.1961 52.1407C29.1064 52.1954 29.0064 52.2312 28.9024 52.2462C28.7984 52.2611 28.6924 52.2547 28.5909 52.2275C28.4893 52.2003 28.3944 52.1527 28.3118 52.0878C28.2291 52.0228 28.1605 51.9418 28.1101 51.8496L21.4051 40.2396C21.3504 40.1496 21.3145 40.0494 21.2995 39.9451C21.2845 39.8409 21.2908 39.7347 21.318 39.6329C21.3452 39.5312 21.3927 39.436 21.4577 39.3532C21.5227 39.2703 21.6038 39.2013 21.6961 39.1506L43.0891 26.8011C43.2596 26.7015 43.4481 26.6366 43.6437 26.6101C43.8394 26.5836 44.0383 26.5959 44.2291 26.6465H44.2321L52.6216 29.0542C52.6256 29.0542 52.6296 29.0542 52.6336 29.0542C52.8902 29.1207 53.1134 29.2793 53.2606 29.4997C53.3141 29.5846 53.384 29.6578 53.4663 29.7152C53.5486 29.7726 53.6416 29.8129 53.7398 29.8337C53.8379 29.8545 53.9393 29.8555 54.0378 29.8364C54.1363 29.8174 54.2299 29.7786 54.3133 29.7227C54.3966 29.6668 54.4678 29.5948 54.5228 29.5109C54.5777 29.4269 54.6153 29.3329 54.6332 29.2342C54.6512 29.1355 54.6491 29.034 54.6272 28.9361C54.6053 28.8382 54.564 28.7458 54.5056 28.6642C54.1574 28.1451 53.6332 27.7693 53.0296 27.6066L44.6296 25.1991C44.6261 25.1991 44.6226 25.1991 44.6191 25.1991C44.4327 25.1485 44.2418 25.1159 44.0491 25.1017V25.0942ZM48.3166 33.1266C48.3364 33.3077 48.3222 33.4908 48.2746 33.6666C48.1906 33.6081 48.0436 33.5421 47.9941 33.4956C47.8636 33.3756 47.8801 33.3351 47.8831 33.3786C47.8831 33.4326 47.8381 33.4177 48.0256 33.2812C48.0916 33.2332 48.2071 33.1791 48.3166 33.1266ZM34.1956 37.1616C33.8619 37.1914 33.539 37.2955 33.2506 37.4661C32.8861 37.6761 32.6131 37.9222 32.4316 38.2042C32.248 38.4901 32.1287 38.8126 32.0821 39.1492C32.0311 39.5002 32.0296 39.8841 32.0731 40.3011C32.1181 40.7181 32.1811 41.1665 32.2681 41.6465C32.3041 41.876 32.3281 42.0757 32.3311 42.2497C32.338 42.403 32.3203 42.5564 32.2786 42.7042C32.2468 42.8321 32.1845 42.9504 32.0971 43.0491C31.9986 43.1628 31.8808 43.2583 31.7491 43.3311C31.6406 43.3961 31.5212 43.4408 31.3966 43.4631C31.2824 43.4915 31.1629 43.4915 31.0486 43.4631C30.9261 43.4287 30.8121 43.3689 30.7141 43.2875C30.5977 43.1875 30.5006 43.0671 30.4276 42.9321C30.341 42.7837 30.2749 42.6242 30.2311 42.4581C30.1918 42.2897 30.1919 42.1145 30.2314 41.9461C30.271 41.7778 30.3489 41.6209 30.4591 41.4876C30.6123 41.3063 30.798 41.1552 31.0066 41.0421L29.8381 39.0172C29.3971 39.2722 29.0656 39.5661 28.8391 39.9006C28.6156 40.2321 28.4716 40.5861 28.4086 40.9581C28.3471 41.3301 28.3561 41.7082 28.4356 42.0952C28.5166 42.4852 28.6396 42.8632 28.8076 43.2262L27.7231 43.8532L28.2736 44.8071L29.3551 44.1831C29.5966 44.5296 29.8576 44.8191 30.1396 45.0501C30.4291 45.2841 30.7246 45.4536 31.0306 45.5601C31.3396 45.6651 31.6531 45.7026 31.9711 45.6741C32.2936 45.6441 32.6131 45.5362 32.9311 45.3517C33.2941 45.1432 33.5641 44.8957 33.7441 44.6107C33.9241 44.3257 34.0411 44.0075 34.0951 43.655C34.1506 43.304 34.1566 42.9172 34.1161 42.5002C34.0768 42.0522 34.0203 41.6057 33.9466 41.1621C33.9118 40.9522 33.8918 40.7402 33.8866 40.5276C33.8911 40.3491 33.9076 40.1946 33.9436 40.0671C33.976 39.9479 34.0349 39.8377 34.1161 39.7446C34.2027 39.6499 34.304 39.57 34.4161 39.5077C34.5246 39.4435 34.6426 39.3969 34.7656 39.3696C34.8806 39.3385 35.001 39.3334 35.1181 39.3546C35.2336 39.3786 35.3416 39.4297 35.4436 39.5092C35.5636 39.6031 35.6631 39.7204 35.7361 39.8541C35.8094 39.9788 35.8583 40.1162 35.8801 40.2592C35.901 40.3983 35.8877 40.5404 35.8411 40.6732C35.7888 40.8235 35.7038 40.9602 35.5921 41.0736C35.4721 41.2086 35.3101 41.3316 35.1061 41.4486L36.2776 43.4796C36.6072 43.2956 36.8992 43.0514 37.1386 42.7596C37.5724 42.2046 37.7731 41.5025 37.6981 40.8021C37.6601 40.418 37.5645 40.0417 37.4146 39.686L38.5696 39.0172L38.0176 38.0632L36.8851 38.7187C36.6542 38.3833 36.3781 38.0815 36.0646 37.8217C35.7937 37.5919 35.4838 37.4126 35.1496 37.2921C34.8447 37.1807 34.5192 37.1351 34.1956 37.1616ZM47.9881 44.8447C47.793 44.8534 47.6089 44.9378 47.4751 45.0801L35.7616 57.1732C35.6903 57.2505 35.604 57.3126 35.5079 57.3557C35.4119 57.3988 35.3081 57.4221 35.2029 57.424C35.0976 57.426 34.9931 57.4068 34.8955 57.3672C34.7979 57.3277 34.7094 57.2687 34.6351 57.194L31.9801 54.6216C31.9092 54.5531 31.8255 54.4993 31.7338 54.4632C31.6421 54.4271 31.5442 54.4095 31.4456 54.4112C31.3471 54.4129 31.2498 54.4341 31.1595 54.4735C31.0691 54.5128 30.9873 54.5695 30.9189 54.6404C30.8504 54.7114 30.7966 54.795 30.7605 54.8867C30.7244 54.9784 30.7067 55.0764 30.7085 55.1749C30.7102 55.2735 30.7313 55.3707 30.7707 55.4611C30.81 55.5515 30.8667 55.6331 30.9376 55.7015L33.5926 58.2696C34.0319 58.69 34.6192 58.9203 35.2272 58.9105C35.8351 58.9006 36.4147 58.6514 36.8401 58.217L48.5536 46.1242C48.6601 46.0171 48.7318 45.8803 48.7592 45.7318C48.7867 45.5833 48.7687 45.4299 48.7076 45.2918C48.6465 45.1537 48.5451 45.0374 48.4168 44.9578C48.2884 44.8783 48.139 44.8379 47.9881 44.8447Z" fill="url(#paint0_linear_125_4869)"/>
<defs>
<linearGradient id="paint0_linear_125_4869" x1="19.8016" y1="41.9991" x2="60.1966" y2="41.9991" gradientUnits="userSpaceOnUse">
<stop stop-color="#F7D321"/>
<stop offset="1" stop-color="#F52A9B"/>
</linearGradient>
</defs>
</svg>
