<svg width="68" height="68" viewBox="0 0 68 68" fill="none" xmlns="http://www.w3.org/2000/svg">
<rect width="68" height="68" rx="34" fill="#FFF8ED"/>
<path d="M38.3012 55.369C47.6352 55.369 55.202 47.8022 55.202 38.4682C55.202 29.1341 47.6352 21.5674 38.3012 21.5674C28.9671 21.5674 21.4004 29.1341 21.4004 38.4682C21.4004 47.8022 28.9671 55.369 38.3012 55.369Z" fill="#00A964"/>
<path d="M15.4094 51.8896C15.0686 51.3568 15.875 50.8336 16.2158 51.3712C17.7854 53.824 21.371 55.6912 23.8862 54.088C22.187 53.3152 22.1918 51.5728 23.3966 50.9584C24.9662 50.1568 26.987 51.664 25.7966 53.5504C27.5822 53.6368 29.4158 52.5376 30.8318 51.448C31.3358 51.064 31.9214 51.8224 31.4174 52.2112C29.531 53.6608 27.3566 54.8368 25.0286 54.4288C22.5902 56.5744 17.9342 55.8208 15.4142 51.8896H15.4094ZM24.3182 51.7024C23.2766 51.7024 23.0654 52.8928 24.731 53.3728C25.187 52.8544 25.4318 52.3216 24.9038 51.8848C24.755 51.7648 24.539 51.7024 24.3182 51.7024Z" fill="black"/>
<path d="M49.1139 21.9898C48.6435 21.9898 48.6627 21.6682 47.9859 19.6522C47.7843 19.0522 48.6963 18.745 48.8979 19.3498L49.5699 21.361C49.6755 21.673 49.4403 21.9946 49.1139 21.9946V21.9898ZM50.8227 21.8794C50.4867 21.8794 50.2515 21.5386 50.3763 21.2218L51.2595 18.9994C51.4947 18.409 52.3875 18.7642 52.1523 19.3546C51.2259 21.6826 51.2547 21.8794 50.8227 21.8794ZM52.2243 23.137C51.7587 23.137 51.5667 22.5418 51.9459 22.2682L53.6163 21.0634C54.1299 20.6938 54.6915 21.4714 54.1779 21.841C52.3443 23.161 52.4307 23.1322 52.2243 23.1322V23.137Z" fill="black"/>
<path d="M42.1416 40.2831H52.6344V47.3967C52.6344 48.2079 51.9768 48.8607 51.1704 48.8607H42.1416V40.2783V40.2831Z" fill="white"/>
<path d="M51.1651 49.3412H42.1363C41.8723 49.3412 41.6562 49.1252 41.6562 48.8612V40.2788C41.6562 40.0148 41.8723 39.7988 42.1363 39.7988H52.6291C52.8931 39.7988 53.1091 40.0148 53.1091 40.2788V47.3924C53.1091 48.4676 52.2355 49.3364 51.1651 49.3364V49.3412ZM42.6211 48.3812H51.1699C51.7123 48.3812 52.1539 47.9396 52.1539 47.3972V40.7636H42.6211V48.386V48.3812Z" fill="black"/>
<path d="M15.1699 40.2832H25.6627V48.8656H16.6387C15.8275 48.8656 15.1747 48.208 15.1747 47.4016V40.288L15.1699 40.2832Z" fill="white"/>
<path d="M25.6633 49.3403H16.6393C15.5641 49.3403 14.6953 48.4667 14.6953 47.3963V40.2827C14.6953 40.0187 14.9113 39.8027 15.1753 39.8027H25.6681C25.9321 39.8027 26.1481 40.0187 26.1481 40.2827V48.8651C26.1481 49.1291 25.9321 49.3451 25.6681 49.3451L25.6633 49.3403ZM15.6505 40.7627V47.3963C15.6505 47.9387 16.0921 48.3803 16.6345 48.3803H25.1833V40.7579H15.6505V40.7627Z" fill="black"/>
<path d="M23.8436 16.0576H43.9652C45.314 16.0576 46.4084 17.152 46.4084 18.5008V47.68C46.4084 48.3328 45.8804 48.8608 45.2276 48.8608H22.5812C21.9284 48.8608 21.4004 48.3328 21.4004 47.68V18.5008C21.4004 17.152 22.4948 16.0576 23.8436 16.0576Z" fill="#F16622"/>
<path d="M45.2223 49.3413H22.5807C21.6639 49.3413 20.9199 48.5973 20.9199 47.6805V18.5013C20.9199 16.8885 22.2303 15.5781 23.8431 15.5781H43.9647C45.5775 15.5781 46.8879 16.8885 46.8879 18.5013V47.6805C46.8879 48.5973 46.1439 49.3413 45.2271 49.3413H45.2223ZM23.8431 16.5381C22.7631 16.5381 21.8799 17.4165 21.8799 18.5013V47.6805C21.8799 48.0693 22.1967 48.3813 22.5807 48.3813H45.2223C45.6111 48.3813 45.9231 48.0645 45.9231 47.6805V18.5013C45.9231 17.4213 45.0447 16.5381 43.9599 16.5381H23.8431Z" fill="black"/>
<path d="M29.1954 19.8828H24.7842V24.294H29.1954V19.8828Z" fill="white"/>
<path d="M36.1075 19.8828H31.6963V24.294H36.1075V19.8828Z" fill="white"/>
<path d="M43.0196 19.8828H38.6084V24.294H43.0196V19.8828Z" fill="white"/>
<path d="M29.1954 28.0479H24.7842V32.4591H29.1954V28.0479Z" fill="white"/>
<path d="M36.1075 28.0479H31.6963V32.4591H36.1075V28.0479Z" fill="white"/>
<path d="M43.0196 28.0479H38.6084V32.4591H43.0196V28.0479Z" fill="white"/>
<path d="M42.1367 36.6543H25.6631V40.2831H42.1367V36.6543Z" fill="#6055A3"/>
<path d="M42.1411 40.7636H25.6675C25.4035 40.7636 25.1875 40.5476 25.1875 40.2836V36.6548C25.1875 36.3908 25.4035 36.1748 25.6675 36.1748H42.1411C42.4051 36.1748 42.6211 36.3908 42.6211 36.6548V40.2836C42.6211 40.5476 42.4051 40.7636 42.1411 40.7636ZM26.1427 39.8036H41.6563V37.1348H26.1427V39.8036Z" fill="black"/>
<path d="M40.2889 40.2832H27.3193V48.8656H40.2889V40.2832Z" fill="white"/>
<path d="M40.2894 49.3412H27.3198C27.0558 49.3412 26.8398 49.1252 26.8398 48.8612V40.2788C26.8398 40.0148 27.0558 39.7988 27.3198 39.7988H40.2894C40.5534 39.7988 40.7694 40.0148 40.7694 40.2788V48.8612C40.7694 49.1252 40.5534 49.3412 40.2894 49.3412ZM27.7998 48.3812H39.8094V40.7588H27.7998V48.3812Z" fill="black"/>
<path d="M33.3242 48.8603V40.2779C33.3242 39.6443 34.2842 39.6443 34.2842 40.2779V48.8603C34.2842 49.4939 33.3242 49.4939 33.3242 48.8603Z" fill="black"/>
<path d="M54.3676 40.2835H46.4092V29.8867H53.3452C54.046 29.8867 54.622 30.4387 54.6508 31.1347L55.0252 39.5971C55.0396 39.9715 54.742 40.2835 54.3676 40.2835Z" fill="#F16622"/>
<path d="M46.4038 40.763C46.1398 40.763 45.9238 40.5471 45.9238 40.2831V29.8863C45.9238 29.6223 46.1398 29.4062 46.4038 29.4062H53.3398C54.2998 29.4062 55.0822 30.1551 55.1254 31.1151C55.5238 40.1775 55.6486 39.9231 55.183 40.4127C54.7174 40.9023 54.8518 40.763 46.4038 40.763ZM46.8838 39.8031H54.3622C54.631 39.8031 54.5542 40.0095 54.1654 31.1583C54.1462 30.7167 53.7814 30.3663 53.3398 30.3663H46.8838V39.8031Z" fill="black"/>
<path d="M21.3996 40.2835H13.4364C13.062 40.2835 12.7644 39.9715 12.7788 39.5971L13.1532 31.1347C13.182 30.4339 13.758 29.8867 14.4588 29.8867H21.3948V40.2835H21.3996Z" fill="#F16622"/>
<path d="M21.4006 40.763C12.9238 40.763 13.087 40.8975 12.6214 40.4127C12.1558 39.9279 12.2854 40.1007 12.679 31.1151C12.7222 30.1551 13.5046 29.4062 14.4646 29.4062H21.4006C21.6646 29.4062 21.8806 29.6223 21.8806 29.8863V40.2831C21.8806 40.5471 21.6646 40.763 21.4006 40.763ZM14.4598 30.3663C14.0182 30.3663 13.6534 30.7119 13.6342 31.1583L13.2598 39.6207C13.2502 39.8847 12.8758 39.8031 20.9158 39.8031V30.3663H14.4598Z" fill="black"/>
<path d="M52.754 32.2627H48.3428V36.6739H52.754V32.2627Z" fill="white"/>
<path d="M19.5089 32.2627H15.0977V36.6739H19.5089V32.2627Z" fill="white"/>
<path d="M44.4069 19.533C44.2917 17.9202 43.1541 17.8674 43.0293 17.877C42.3957 17.877 42.3717 16.917 43.0485 16.917C43.8069 16.917 45.2181 17.445 45.3669 19.4658C45.4149 20.0994 44.4549 20.1666 44.4117 19.533H44.4069ZM22.9893 37.6866V35.7186C22.9893 34.7682 23.7621 33.9954 24.7125 33.9954H25.6629C26.2965 33.9954 26.2965 34.9554 25.6629 34.9554H24.7125C24.2901 34.9554 23.9493 35.2962 23.9493 35.7186V37.6866C23.9493 38.3202 22.9893 38.3202 22.9893 37.6866ZM53.0613 38.949H50.8293C50.1957 38.949 50.1957 37.989 50.8293 37.989H53.0613C53.6949 37.989 53.6949 38.949 53.0613 38.949Z" fill="white"/>
</svg>
