<svg width="68" height="68" viewBox="0 0 68 68" fill="none" xmlns="http://www.w3.org/2000/svg">
<rect width="68" height="68" rx="34" fill="#FFF8ED"/>
<path d="M47.8059 28.2223L43.3035 25.6063L43.291 21.1807L47.7934 23.7976L47.8059 28.2223Z" fill="#2ECC71"/>
<path d="M43.2899 21.1809C43.2794 17.4628 42.0102 14.6932 39.7168 13.3809C41.2154 14.2516 42.7139 15.1223 44.2125 15.993C46.5107 17.3044 47.7818 20.0759 47.7933 23.7978L43.2899 21.1809Z" fill="#2ECC71"/>
<path d="M46.582 40.3088L42.0835 37.689L42.0355 21.9095C42.0259 18.5667 40.8883 16.0813 38.8271 14.9062L43.3257 17.5271C45.3878 18.7021 46.8326 21.2173 46.8422 24.5504L46.582 40.3088Z" fill="#1D2943"/>
<path d="M39.7167 13.3789C41.2153 14.2499 42.7138 15.1209 44.2124 15.992L39.71 13.376L39.7167 13.3789Z" fill="#2ECC71"/>
<path d="M30.2324 51.907C30.2266 53.4775 29.6737 54.5825 28.779 55.1019L26.0218 56.7041C26.9156 56.1838 25.0686 55.5137 25.0734 53.9451C25.082 50.7838 24.1969 48.3502 21.4455 46.7614C20.0622 45.9627 19.873 44.0388 18.9668 44.5649L21.7239 42.9617C22.6292 42.4356 23.8839 42.5105 25.2673 43.3092C28.0186 44.8971 30.2401 48.7467 30.2324 51.907Z" fill="#F45170"/>
<path d="M22.5105 44.9115C19.7601 43.3237 17.5233 44.5986 17.5147 47.7589C17.5051 50.9192 19.7275 54.7688 22.4779 56.3567C25.2292 57.9455 27.466 56.6706 27.4747 53.5103C27.4843 50.349 25.2609 46.4994 22.5115 44.9115H22.5105Z" fill="#DF3260"/>
<path d="M23.5817 53.5839L19.0793 50.967L19.0342 35.1846L23.5375 37.8015L23.5817 53.5839Z" fill="#1D2943"/>
<path d="M35.6254 16.8632L31.123 14.2463C34.3611 12.3762 37.411 12.0671 39.7102 13.3765L44.2126 15.9925C41.9144 14.684 38.8645 14.9931 35.6254 16.8632Z" fill="#5B5E71"/>
<path d="M35.6245 16.8627C38.8636 14.9926 41.9135 14.6835 44.2117 15.9919C46.51 17.3033 47.781 20.0748 47.7925 23.7967L47.804 28.2223L47.8367 39.5791L46.581 40.3049L46.5359 24.5225C46.5263 21.1846 45.3868 18.7001 43.3266 17.526C41.2655 16.3529 38.5324 16.6294 35.6274 18.3065C29.6332 21.7673 24.7717 30.1875 24.7919 37.0755L24.836 52.8579L23.5804 53.5836L23.5362 37.8012C23.5256 34.0783 24.7765 29.8505 27.0594 25.8953C29.3442 21.9401 32.3845 18.7337 35.6245 16.8627Z" fill="#4C5C75"/>
<path d="M23.5366 37.8016L19.0342 35.1847C19.0246 31.4618 20.2755 27.2339 22.5584 23.2787C24.8422 19.3235 27.8835 16.1171 31.1226 14.2461L35.625 16.8631C32.3859 18.7331 29.3446 21.9415 27.0618 25.8967C24.7779 29.8509 23.527 34.0787 23.5376 37.8007L23.5366 37.8016Z" fill="#5B5E71"/>
<path d="M45.0971 14.4619C42.5636 13.0171 39.2603 13.643 35.6862 15.7042C32.1121 17.7758 28.8952 21.2635 26.3713 25.6277C23.8561 29.9918 22.2664 34.4222 22.276 38.5262L22.2952 42.948L17.787 40.3368L17.7774 35.9064C17.7678 31.8024 19.1454 27.1397 21.6692 22.7755C24.1835 18.4114 27.5454 14.867 31.1195 12.805C34.6936 10.7342 38.0555 10.3963 40.5985 11.843L45.098 14.4638L45.0971 14.4619Z" fill="#FFD06C"/>
<path d="M35.6205 15.4187C39.1955 13.3547 42.5613 13.0148 45.0976 14.4587C47.6339 15.9054 49.0375 18.963 49.049 23.0708L49.0615 27.4964L47.8048 28.2212L47.7923 23.7956C47.7827 20.0747 46.5107 17.3032 44.2125 15.9918C41.9143 14.6833 38.8643 14.9924 35.6253 16.8625C32.3853 18.7326 29.344 21.9409 27.0611 25.8961C24.7773 29.8504 23.5264 34.0782 23.537 37.8001L23.5495 42.2257L22.2928 42.9515L22.2803 38.5259C22.2688 34.418 23.6503 29.7515 26.1703 25.3873C28.6893 21.0232 32.0455 17.4827 35.6205 15.4187Z" fill="#FEBC1F"/>
<path d="M50.4853 40.2224C50.4805 41.793 49.9266 42.8979 49.0329 43.4173L46.2757 45.0186C47.1685 44.5002 47.3452 43.4864 47.35 41.9178C47.3586 38.7565 44.9327 35.1853 42.1823 33.5965C40.798 32.7978 40.126 32.3533 39.2207 32.8803L41.9778 31.2771C42.8831 30.7511 44.1378 30.8259 45.5202 31.6247C48.2725 33.2125 50.494 37.0621 50.4853 40.2224Z" fill="#F45170"/>
<path d="M47.7276 41.8208C47.718 44.9897 45.4831 46.2617 42.7279 44.672C39.9823 43.0822 37.757 39.2384 37.7666 36.0704C37.7762 32.9101 40.0111 31.6381 42.7663 33.2278C45.5119 34.8176 47.7372 38.6614 47.7276 41.8208Z" fill="#DF3260"/>
<path d="M46.7648 41.8214C46.7648 42.2448 46.7072 42.9869 46.3788 43.5744C46.1292 44.0371 45.6857 44.3933 44.9628 44.3933C44.4425 44.3933 43.8358 44.2013 43.2099 43.8345C40.7715 42.4281 38.7199 38.8733 38.7305 36.0701C38.7305 35.3376 38.8937 33.6816 40.3001 33.527C40.3673 33.5078 40.4441 33.5078 40.5219 33.5078C41.0422 33.5078 41.6585 33.6998 42.2844 34.0665C44.7228 35.4729 46.7744 39.0278 46.7648 41.8214Z" fill="#F45170"/>
<path d="M46.7656 41.8214C46.7656 42.2448 46.708 42.9869 46.3797 43.5744C46.3029 43.5936 46.2261 43.5936 46.1493 43.5936C45.628 43.5936 45.0213 43.4016 44.3954 43.0349C41.958 41.6285 39.9064 38.0736 39.916 35.2704C39.916 34.847 39.9736 34.1049 40.301 33.527C40.3682 33.5078 40.445 33.5078 40.5228 33.5078C41.0431 33.5078 41.6594 33.6998 42.2853 34.0665C44.7237 35.4729 46.7752 39.0278 46.7656 41.8214Z" fill="#1D2943"/>
<path d="M22.8471 50.3722C22.8462 50.833 22.6839 51.1575 22.4209 51.3102L22.1156 51.4868C22.3787 51.3342 21.9361 51.0961 21.9371 50.6343C21.9399 49.706 21.5991 49.0666 20.7918 48.6001C20.3847 48.3658 20.3099 47.7678 20.0439 47.9223L20.3492 47.7447C20.6151 47.5911 20.9828 47.6122 21.3899 47.8465C22.1972 48.313 22.8491 49.4449 22.8471 50.3722Z" fill="#F3F1FC"/>
<path d="M21.0851 48.023C20.2777 47.5565 19.6211 47.9309 19.6182 48.8582C19.6153 49.7875 20.2681 50.9174 21.0755 51.383C21.8838 51.8506 22.5404 51.4761 22.5433 50.5478C22.5462 49.6195 21.8934 48.4896 21.0851 48.023Z" fill="#DEDFFB"/>
<path d="M31.4035 55.7097C29.1513 55.7097 27.191 55.0425 25.6732 54.2678C22.5724 52.6838 20.6803 50.3731 20.6006 50.2761L21.7372 49.3545C21.7545 49.3766 23.542 51.55 26.3807 52.9871C30.0959 54.8678 33.8063 54.6623 37.4092 52.3766L40.9151 49.9497L41.7475 51.1516L38.206 53.6035C35.7724 55.151 33.4655 55.7097 31.4035 55.7097Z" fill="#4C5C75"/>
<path d="M37.935 54.4481C37.5974 54.4488 37.2684 54.3415 36.9961 54.1418C36.7239 53.9422 36.5226 53.6607 36.4218 53.3385C36.321 53.0163 36.3259 52.6703 36.4358 52.351C36.5457 52.0318 36.7548 51.7561 37.0326 51.5643L40.2639 49.3274C40.6089 49.0885 41.0347 48.9964 41.4476 49.0714C41.8605 49.1464 42.2268 49.3823 42.4657 49.7273C42.7047 50.0723 42.7968 50.4981 42.7218 50.911C42.6468 51.3239 42.4109 51.6901 42.0659 51.929L38.8345 54.1668C38.5705 54.3506 38.2566 54.4481 37.935 54.4481Z" fill="#4C5C75"/>
<path d="M21.0834 48.6249C20.565 48.3253 20.1445 48.5663 20.1426 49.1615C20.1407 49.7567 20.5592 50.4825 21.0776 50.782C21.596 51.0805 22.0184 50.8405 22.0184 50.2444C22.0213 49.6492 21.6018 48.9244 21.0834 48.6249Z" fill="white"/>
</svg>
