<svg width="174" height="160" viewBox="0 0 174 160" fill="none" xmlns="http://www.w3.org/2000/svg">
<path d="M136.365 110.419C124.409 120.583 27.9486 110.419 27.9486 110.419C27.9486 110.419 9.57534 86.9147 26.2942 55.088C43.0131 23.2602 76.3057 16.3885 86.4658 27.1672C96.6269 37.9449 94.8365 56.717 111.315 58.0977C127.794 59.4783 139.478 52.9305 143.412 59.7414C147.346 66.5512 148.321 100.255 136.365 110.419Z" fill="url(#paint0_linear_125_4335)"/>
<path d="M142.562 121.207C141.755 122.408 140.652 123.569 139.282 124.684C129.829 132.367 107.628 137.76 81.7465 137.76C51.8342 137.76 26.8363 130.555 20.7568 120.938C19.8811 119.555 19.3438 118.032 19.3438 116.398C19.3438 104.6 47.2833 95.0352 81.7465 95.0352C121.497 95.0352 151.64 107.699 142.562 121.207Z" fill="#191880"/>
<path d="M14.0137 85.723L27.8112 84.9952L39.5371 60.0376L35.1617 54.6758L14.0137 85.723Z" fill="#36233B"/>
<path d="M108.731 109.742L54.512 113.578C53.3379 73.2953 53.5342 80.0303 53.5118 79.2623L107.625 75.9805C107.627 76.0546 108.657 107.484 108.731 109.742Z" fill="#FF8F8F"/>
<path d="M74.4235 108.062L61.44 109.743L60.7188 109.529V85.779L74.3264 84.4131L74.4235 108.062Z" fill="#191880"/>
<path d="M108.73 109.742L54.5111 113.578L54.4004 109.801L54.4903 109.726L108.578 105.092L108.73 109.742Z" fill="#050634"/>
<path d="M54.5114 113.578L24.7695 109.035C24.9497 76.9223 24.9232 81.6506 24.9259 81.1659L38.4877 60.001L54.3506 82.5524C54.3529 82.9971 54.3289 78.38 54.5114 113.578Z" fill="#FEFEFE"/>
<path d="M54.7528 81.1144L53.1585 82.6352L35.1616 54.6768L14.0136 85.724L13.207 83.8085L34.8549 51.4131L54.7528 81.1144Z" fill="#FF8F8F"/>
<path d="M54.7514 81.1144L111.469 78.044L94.1716 51.4131H34.8535L54.7514 81.1144Z" fill="#EF5148"/>
<path d="M53.1582 82.6342L110.716 79.2632L111.47 78.043L54.7525 81.1134L53.1582 82.6342Z" fill="#8A111B"/>
<path d="M54.5116 113.578L24.7695 109.035L24.7903 105.479L54.4908 109.726L54.5116 113.578Z" fill="#9B5A67"/>
<path d="M40.8477 86.1582L49.5241 86.9406V103.513L40.8854 102.261L40.8477 86.1582Z" fill="url(#paint1_linear_125_4335)"/>
<path d="M29.1172 85.127L37.2471 86.0488V101.925L29.2054 100.737L29.1172 85.127Z" fill="url(#paint2_linear_125_4335)"/>
<path d="M37.2457 87.1798L30.1936 86.3801L30.276 100.894L29.2037 100.736L29.1152 85.126L37.2457 86.0484V87.1798Z" fill="#4557D9"/>
<path d="M41.9253 69.7598L41.7748 81.6373C41.188 81.5979 43.8856 81.7791 36.084 81.2552V69.502C43.7766 69.8416 41.306 69.7325 41.9253 69.7598Z" fill="#5678EE"/>
<path d="M37.6653 69.5715C37.6402 71.729 37.562 77.9952 37.503 81.3508L36.084 81.2552V69.502L37.6653 69.5715Z" fill="#4557D9"/>
<path d="M70.699 89.0059V106.658L62.2217 107.469L62.207 89.9067L70.699 89.0059Z" fill="#13141F"/>
<path d="M142.561 121.207C141.754 122.407 140.652 123.568 139.282 124.683L53.9458 135.446L20.7563 120.937C20.3007 120.218 19.9517 119.485 19.7148 118.741L111.682 109.842L142.561 121.207Z" fill="#050634"/>
<path d="M53.9473 134.021L16.457 117.633L111.684 108.418L148.76 122.064L53.9473 134.021Z" fill="#FEFEFE"/>
<path d="M85.0919 128.953L88.9787 128.267L60.2983 114.937L57.3359 115.255L85.0919 128.953Z" fill="#DCE8FE"/>
<path d="M93.6818 127.626L97.5686 126.941L68.8882 113.61L65.9258 113.928L93.6818 127.626Z" fill="#DCE8FE"/>
<path d="M102.666 126.534L106.553 125.848L77.8725 112.518L74.9102 112.836L102.666 126.534Z" fill="#DCE8FE"/>
<path d="M111.741 125.507L115.628 124.821L88.7905 111.537L85.8281 111.855L111.741 125.507Z" fill="#DCE8FE"/>
<path d="M121.497 124.215L125.384 123.529L97.5542 110.709L94.5918 111.027L121.497 124.215Z" fill="#DCE8FE"/>
<path d="M72.982 126.087L54.3634 128.387L38.8691 120.719L55.9257 118.637L72.982 126.087Z" fill="#DCE8FE"/>
<path d="M116.468 112.81C116.554 111.602 114.481 110.491 111.838 110.329C109.194 110.167 106.981 111.016 106.895 112.225C106.808 113.433 108.881 114.544 111.525 114.706C114.168 114.868 116.381 114.019 116.468 112.81Z" fill="#FFBBBB"/>
<path d="M114.178 44.7125C114.178 44.7125 114.414 46.5315 116.258 46.2103C118.103 45.8891 120.809 42.657 120.809 42.657C120.809 42.657 119.568 40.3484 119.204 40.509C118.84 40.6696 115.629 42.1351 115.629 42.1351C115.629 42.1351 114.376 43.6564 114.178 44.7125ZM141.027 67.5961C141.027 67.5961 137.755 67.6313 137.448 64.581C137.142 61.5308 144.096 53.4074 145.159 53.4334C146.221 53.4594 148.758 56.4627 148.758 56.4627C148.758 56.4627 147.19 63.4814 145.159 65.2983C143.127 67.1151 141.027 67.5961 141.027 67.5961Z" fill="#0E1044"/>
<path d="M146.711 57.8937C143.165 60.8209 140.141 64.2999 137.881 67.9585L132.135 68.8412C127.388 68.0854 122.349 69.0247 118.286 71.4211C113.974 73.9654 110.905 77.5011 103.344 79.6797C102.675 79.8709 102.497 79.9981 102.242 80.6588C101.054 83.7167 100.173 87.0737 99.878 88.996C99.5743 91.0046 99.58 93.1736 98.6406 94.9997C98.1443 95.9641 97.3292 96.8378 96.2054 97.0974C95.181 97.3238 94.0819 96.9569 93.2739 96.3332C92.4648 95.7084 91.905 94.8551 91.4279 93.986C89.7781 90.9858 88.9554 87.6647 88.1474 84.3814C87.8075 90.1481 87.3247 96.0816 85.4006 101.598C85.038 102.636 84.6402 103.689 83.9048 104.542C83.0028 105.591 81.2793 106.383 79.8809 105.704C78.7591 105.16 78.2208 103.968 77.8446 102.849C76.921 100.106 76.8055 97.4067 76.4123 94.6077C74.5393 81.3403 75.4495 81.9121 75.2474 75.607C72.6082 76.8912 69.9962 78.3117 67.3004 79.5654C65.0091 80.6326 62.6261 81.8518 60.0821 80.6316C59.8056 80.4985 59.5359 80.3307 59.3682 80.0875C58.9319 79.4543 59.341 78.6272 59.7761 77.993C61.1971 75.9226 63.0204 73.5859 65.1859 72.1235C67.2143 70.7534 68.9696 69.0163 70.9084 67.5036C74.0661 65.0417 77.5123 62.7705 81.2158 60.7546C81.7076 60.4862 84.4725 59.4515 84.5847 59.0259C84.9893 57.5016 85.404 55.9533 86.2516 54.5936C88.1996 51.4697 91.8212 51.4896 95.2139 50.6782C110.886 46.9229 111.791 46.1796 116.222 45.4356C117.065 45.2946 117.075 45.1579 117.614 44.5225C118.254 43.7667 118.941 43.0045 119.468 42.189C119.576 42.0212 120.213 40.6888 120.429 40.7203C131.575 42.7401 139.293 49.8363 146.711 57.8937Z" fill="#FFBBBB"/>
<path d="M104.669 80.7856C102.185 82.1539 100.314 84.4978 97.9627 86.0794C98.6305 83.1865 99.8092 80.425 101.054 77.7094C102.196 75.2164 103.645 72.7693 104.298 70.1448C102.993 69.822 101.645 69.6445 100.294 69.6172C98.6941 71.5696 97.5211 73.789 96.4323 76.0226C94.9437 79.0765 94.6809 80.1639 94.3491 82.4413C94.0366 84.5864 93.4918 86.9563 93.7036 89.1187C91.4845 86.3924 91.0128 82.507 91.2049 79.0989C91.3925 75.7707 92.0073 72.4138 93.5691 69.4106C94.2084 68.1812 95.0358 66.9875 96.2513 66.2152C98.2204 64.964 100.791 65.0362 103.175 64.9043C104.757 64.8168 106.298 64.5797 107.854 64.3161C109.185 64.0906 110.411 63.2356 111.653 62.712C113.354 61.9951 114.479 61.8599 115.745 63.0897C116.854 64.1666 117.481 65.6151 117.704 67.088C117.927 68.5608 117.767 70.0631 117.463 71.5233C117.026 73.6161 116.291 76.2741 113.98 77.2724C110.956 78.5782 107.562 79.1923 104.669 80.7856Z" fill="#FF8F8F"/>
<path d="M88.1479 85.0603C88.0688 85.0522 88.0117 84.9863 88.0204 84.9131C88.4615 81.2131 88.9175 77.3871 89.8608 73.6939C91.083 68.9063 92.692 66.7252 97.5007 64.3485C97.5702 64.3144 97.6578 64.3381 97.6958 64.4035C97.7332 64.4683 97.7068 64.5491 97.6364 64.584C92.9137 66.9183 91.3483 69.0305 90.1412 73.7553C89.2021 77.4324 88.7472 81.2501 88.307 84.9423C88.2984 85.0139 88.2291 85.0682 88.1479 85.0603Z" fill="#FF8F8F"/>
<path d="M146.712 57.8937C144.861 59.4211 143.152 61.0953 141.608 62.89C136.14 52.2492 126.801 46.0409 117.615 44.5225C118.254 43.7667 118.942 43.0045 119.469 42.189C119.577 42.0212 120.214 40.6888 120.43 40.7203C131.576 42.7401 139.294 49.8363 146.712 57.8937Z" fill="#FF8F8F"/>
<path d="M160.791 44.9242C160.791 44.9242 148.193 62.1165 145.803 65.2981C143.413 68.4808 141.026 67.596 141.026 67.596C148.097 64.6325 145.7 57.0102 138.273 50.6081C137.499 49.9403 136.674 49.2752 135.868 48.6772C129.916 44.2609 125.912 44.0287 120.366 43.0718C114.525 42.0634 114.177 44.7124 114.177 44.7124C113.675 43.8885 115.908 40.9972 115.908 40.9972L127.482 22.9799C136.577 21.1479 144.792 22.6326 151.849 28.3001C152.297 28.6578 152.746 29.0387 153.161 29.4239C159.78 35.5827 160.791 44.9242 160.791 44.9242Z" fill="#C6DAFF"/>
<path d="M153.162 29.4229L137.569 50.0107C134.754 47.6802 131.782 45.7682 128.205 44.6465L145.079 24.2568C148.198 25.5446 151.115 27.52 153.162 29.4229Z" fill="#7F97F7"/>
<path d="M160.792 44.9249C160.792 44.9249 148.194 62.1172 145.804 65.2988C143.414 68.4815 141.027 67.5967 141.027 67.5967C148.098 64.6332 145.701 57.0109 138.274 50.6088C137.439 49.8886 136.639 49.2481 135.869 48.6779L151.85 28.3008C152.058 28.4664 152.264 28.6362 152.469 28.8103C159.712 34.9397 160.792 44.9249 160.792 44.9249Z" fill="#5678EE"/>
<path d="M75.2339 76.0949C75.1607 76.0658 75.1269 75.9874 75.1581 75.9197C77.0647 71.8046 79.6843 68.0402 82.9449 64.7319C83.0741 64.6011 83.286 64.7818 83.1577 64.9116C79.9191 68.198 77.3169 71.9369 75.4233 76.0249C75.3915 76.0928 75.3068 76.1235 75.2339 76.0949Z" fill="#FF8F8F"/>
<path d="M102.244 80.3587C102.183 80.3108 102.176 80.2267 102.228 80.1707C105.518 76.6022 107.799 72.3308 110.005 68.2001C110.04 68.134 110.128 68.1074 110.198 68.1397C110.27 68.1722 110.299 68.2522 110.264 68.3183C108.05 72.4637 105.76 76.7501 102.447 80.3436C102.395 80.4 102.304 80.4061 102.244 80.3587Z" fill="#FF8F8F"/>
<path d="M116.393 52.3618C116.393 52.3618 118.259 48.579 119.978 48.7217C121.697 48.8645 120.312 52.8257 119.384 53.8607C118.456 54.8956 116.393 52.3618 116.393 52.3618Z" fill="#0E1044"/>
<path d="M119.978 54.5264L122.82 56.1018L115.913 69.3277L114.988 68.6984L120.619 57.748L118.904 57.2189L119.978 54.5264Z" fill="#0E1044"/>
<path d="M86.6194 114.845L83.2402 118.734L84.1897 114.465L86.6194 114.845Z" fill="#0E1044"/>
<path d="M120.721 53.8866C89.7555 115.194 124.568 46.2703 96.5059 101.829C96.5059 101.829 87.9731 117.713 84.7617 116.002C81.5503 114.291 92.201 94.3325 92.201 94.3325C92.5083 93.7765 109.177 63.6064 115.683 51.834L120.721 53.8866Z" fill="#191880"/>
<path d="M118.873 57.5471L107.148 80.7621L101.191 78.0629L102.097 76.4242L104.708 77.3605L115.793 56.2725L118.873 57.5471Z" fill="#0E1044"/>
<path d="M119.673 55.1207L118.748 56.7226L114.264 54.3974L115.013 53.043C116.199 53.5619 119.673 55.1207 119.673 55.1207Z" fill="#0E1044"/>
<path d="M106.616 81.8152L105.028 84.9592L98.8477 82.3037L100.679 78.9912L106.616 81.8152Z" fill="#0E1044"/>
<path d="M138.151 67.5254C136.424 71.9378 134.571 76.5294 130.839 79.7057C128.356 81.8181 125.251 83.1201 122.296 84.5552C115.804 87.7061 112.933 91.8226 108.074 95.8665C106.159 97.462 103.896 99.3396 101.301 99.7662C99.5142 100.06 97.4326 99.4402 96.6326 97.9338C96.2892 97.2849 96.2099 96.5395 96.2632 95.8193C96.4558 93.1912 98.2643 90.9363 100.001 88.8491C106.495 81.0537 107.152 80.2166 108.362 78.9646C111.748 75.458 115.409 71.4859 119.749 68.9794C124.06 66.4897 129.155 65.1384 134.244 65.2695L138.151 67.5254Z" fill="#FFBBBB"/>
<path d="M100.1 99.9604C98.4781 99.87 97.0999 99.1156 96.5025 97.9916C96.1853 97.3914 96.0563 96.6573 96.1188 95.8091C96.3209 93.051 98.2982 90.6755 99.8867 88.7666C109.833 76.8212 106.6 80.7107 109.034 78.0648C113.726 73.1867 117.374 69.5273 123.058 67.208C123.131 67.1776 123.216 67.2086 123.248 67.276C123.281 67.3434 123.247 67.4221 123.175 67.4518C116.93 70.0006 113.115 74.2447 108.469 79.0523C107.288 80.2745 106.808 80.8915 100.115 88.9294C98.5501 90.8096 96.6027 93.1497 96.4065 95.8273C96.3474 96.6281 96.4668 97.3169 96.7615 97.8742C97.3127 98.9122 98.5988 99.6096 100.118 99.6942C100.197 99.6987 100.257 99.7619 100.253 99.8354C100.248 99.9123 100.173 99.9665 100.1 99.9604Z" fill="#FF8F8F"/>
<path d="M85.1286 59.7197C84.1537 62.5088 83.1787 65.2978 82.2038 68.0869C81.3273 70.5945 79.8896 73.8059 80.298 76.4943C80.6842 79.0363 81.6928 81.6247 82.7222 84.0056C84.738 88.6677 86.2981 93.5238 88.5906 97.7048C89.3131 99.0222 90.178 101.177 91.8963 101.605C92.7633 101.821 93.7136 101.417 94.2755 100.769C94.8374 100.121 95.0649 99.2745 95.1308 98.4462C95.2276 97.2295 95.259 96.2662 94.9474 95.0476C94.3791 92.8242 94.0806 90.6383 93.5171 88.422C92.8775 85.9062 92.4235 83.35 92.16 80.7771C92.0906 80.1001 92.0355 79.4085 92.207 78.7473C92.3701 78.119 92.2849 78.3863 98.0933 66.8491C98.3363 66.3665 98.4923 66.2881 98.9952 66.2623C104.593 65.9748 105.236 65.9971 106.265 65.6511C107.093 65.3726 107.86 64.8248 108.156 64.057" fill="#FFBBBB"/>
<path d="M91.8591 101.734C90.0888 101.294 89.2439 99.19 88.4622 97.7655C86.1583 93.5617 84.626 88.7678 82.5888 84.0554C81.6072 81.7859 80.5507 79.115 80.1555 76.5132C79.8053 74.2088 80.7748 71.5757 81.6303 69.2523C82.1958 67.7174 81.825 68.718 84.9916 59.6791C85.0161 59.6093 85.0966 59.5708 85.1732 59.5934C85.2489 59.6161 85.2903 59.6911 85.2658 59.7614L82.3413 68.1286C81.4503 70.6751 80.0381 73.8253 80.4409 76.4762C80.8319 79.0497 81.8814 81.7017 82.8562 83.9564C84.91 88.7052 86.4212 93.4527 88.7195 97.6447C88.8231 97.8338 88.9298 98.04 89.0413 98.2559C89.7022 99.5348 90.525 101.126 91.9339 101.477C92.6931 101.665 93.5889 101.348 94.1634 100.686C94.6343 100.143 94.9116 99.3861 94.9873 98.4366C95.0786 97.2892 95.123 96.3132 94.8075 95.0788C94.2378 92.8496 93.9382 90.6604 93.3772 88.4528C92.7376 85.9374 92.2799 83.3593 92.0167 80.79C91.9441 80.0799 91.8934 79.3869 92.0671 78.7168C92.2298 78.0891 92.083 78.4723 97.9631 66.7931C98.228 66.2664 98.4301 66.1589 98.9874 66.1296C104.631 65.8395 105.218 65.8617 106.215 65.5262C107.107 65.2265 107.765 64.6749 108.021 64.0127C108.085 63.8454 108.356 63.9369 108.292 64.1023C108.008 64.8395 107.287 65.4499 106.314 65.7767C105.46 66.064 104.55 66.1109 103.67 66.1562C98.5979 66.4169 98.7321 66.3809 98.548 66.4838C98.4047 66.564 98.3166 66.7223 98.2243 66.9056C92.3784 78.5174 92.5025 78.1808 92.3475 78.7788C92.1839 79.4093 92.2335 80.078 92.3038 80.765C92.5656 83.3221 93.0211 85.8882 93.6576 88.3918C93.9385 89.496 94.1569 90.6101 94.3683 91.6872C95.2082 95.9672 95.4913 95.7313 95.275 98.4562C95.1948 99.4606 94.8964 100.267 94.388 100.853C93.7682 101.568 92.7572 101.959 91.8591 101.734Z" fill="#FF8F8F"/>
<path d="M151.065 56.5569C151.831 55.7099 152.068 54.7255 151.593 54.3581C151.118 53.9907 150.113 54.3794 149.346 55.2263C148.58 56.0732 148.344 57.0576 148.818 57.4251C149.293 57.7925 150.299 57.4038 151.065 56.5569Z" fill="#0E1044"/>
<path d="M98.0553 66.8073C97.9818 66.779 97.9472 66.7008 97.9781 66.6329C98.359 65.7928 98.5248 64.8683 98.457 63.9594C98.4516 63.886 98.5116 63.8224 98.591 63.8172C98.6647 63.8086 98.739 63.8678 98.7447 63.9412C98.8153 64.8915 98.6422 65.8579 98.2439 66.736C98.2136 66.803 98.1301 66.8361 98.0553 66.8073Z" fill="#FF8F8F"/>
<path d="M91.8116 79.3121C91.5917 78.1201 91.2289 76.9475 90.7334 75.8264C90.7033 75.7582 90.7385 75.6803 90.8122 75.6524C90.8866 75.6248 90.9702 75.6571 91.0003 75.7254C91.5036 76.8644 91.8724 78.0561 92.0959 79.2673C92.1091 79.3399 92.0565 79.4087 91.9779 79.4212C91.901 79.4335 91.8253 79.3859 91.8116 79.3121Z" fill="#FF8F8F"/>
<defs>
<linearGradient id="paint0_linear_125_4335" x1="149.344" y1="106.995" x2="56.0833" y2="61.119" gradientUnits="userSpaceOnUse">
<stop offset="0.041" stop-color="#EBAFB8"/>
<stop offset="0.545" stop-color="#C2C5EA"/>
<stop offset="1" stop-color="#A6C9F9"/>
</linearGradient>
<linearGradient id="paint1_linear_125_4335" x1="40.8477" y1="94.8358" x2="49.5241" y2="94.8358" gradientUnits="userSpaceOnUse">
<stop stop-color="#4855D9"/>
<stop offset="1" stop-color="#7788FB"/>
</linearGradient>
<linearGradient id="paint2_linear_125_4335" x1="29.1172" y1="93.5259" x2="37.2471" y2="93.5259" gradientUnits="userSpaceOnUse">
<stop stop-color="#4855D9"/>
<stop offset="1" stop-color="#7788FB"/>
</linearGradient>
</defs>
</svg>
