<svg width="84" height="84" viewBox="0 0 84 84" fill="none" xmlns="http://www.w3.org/2000/svg">
<rect x="2" y="2" width="80" height="80" rx="40" fill="#FFF8ED" fill-opacity="0.6"/>
<rect x="1" y="1" width="82" height="82" rx="41" stroke="#FFDAA8" stroke-opacity="0.4" stroke-width="2"/>
<path d="M52.6405 37.0005V64.518H50.9496V43.2196C50.9496 42.9659 50.7441 42.7601 50.49 42.7601H43.761C43.507 42.7601 43.3014 42.9659 43.3014 43.2196V64.5181H41.6087V49.1958C41.6087 48.9421 41.4032 48.7363 41.1491 48.7363H34.4206C34.1666 48.7363 33.961 48.9421 33.961 49.1958V64.5181H32.2683V55.3271C32.2683 55.0733 32.0628 54.8675 31.8087 54.8675H25.0797C24.8257 54.8675 24.6201 55.0733 24.6201 55.3271V64.5181H23.7298C23.4758 64.5181 23.2702 64.7238 23.2702 64.9776C23.2702 65.2314 23.4757 65.4372 23.7298 65.4372C35.2365 65.4372 48.3104 65.4372 61.1809 65.4372C61.4348 65.4372 61.6404 65.2314 61.6404 64.9776C61.6404 64.7238 61.4349 64.5181 61.1809 64.5181H60.2901V53.3374C60.2901 53.0836 60.0846 52.8779 59.8305 52.8779C59.5765 52.8779 59.3709 53.0836 59.3709 53.3374V64.5181H53.5596V37.46H59.3709V48.0624C59.3709 48.3162 59.5764 48.522 59.8305 48.522C60.0845 48.522 60.2901 48.3162 60.2901 48.0624V37.0005C60.2901 36.7467 60.0846 36.5409 59.8305 36.5409H53.1002C52.8461 36.5409 52.6405 36.7467 52.6405 37.0005ZM25.5393 64.5181V55.7866H31.3491V64.518H25.5393V64.5181ZM34.8801 64.5181V49.6554H40.6896V64.5181H34.8801ZM44.2206 64.5181V43.6792H50.0304V64.5181H44.2206ZM53.4944 29.0021L51.4518 29.3895C51.2004 29.4391 50.9617 29.273 50.9146 29.0237C50.8674 28.7742 51.0313 28.5339 51.2803 28.4866L54.521 27.8719C54.5992 27.883 54.7719 27.8273 54.9451 28.0261C55.0372 28.1312 55.072 28.2779 55.0644 28.3631L54.779 31.6495C54.7583 31.8889 54.5577 32.0693 54.3216 32.0693C54.0508 32.0693 53.8401 31.8376 53.8635 31.57L54.0152 29.8235C45.401 40.6205 35.8263 46.7614 25.5366 48.0798C25.2906 48.1134 25.0554 47.9376 25.0223 47.6824C24.99 47.4306 25.1682 47.2005 25.4199 47.1684C35.5425 45.8714 44.9829 39.7605 53.4944 29.0021ZM18.8322 33.8134C19.1277 33.9319 19.4563 33.8566 19.6687 33.6245C20.8467 32.3416 22.5396 31.4913 24.2351 31.6943C24.0112 32.6457 23.9138 33.5555 23.9505 34.3957L22.7335 37.2486C22.6638 37.4119 22.639 37.5866 22.6543 37.7568C22.0544 37.9097 21.5123 38.2474 21.1121 38.7317C21.0843 38.7647 21.0538 38.8035 21.0273 38.8452C20.8899 39.0586 20.9613 39.331 21.1749 39.4683C21.3886 39.6061 21.6825 39.5318 21.8194 39.3182C22.1577 38.9092 22.6424 38.6509 23.168 38.5946C23.2152 38.6337 25.5559 40.5677 25.4077 40.4454C25.4505 40.9703 25.2873 41.4942 24.9482 41.9043C24.4581 42.4969 22.5701 43.0048 21.2049 43.2511C21.2004 42.7624 21.2103 41.9942 21.2888 41.2425C21.3153 40.99 21.1322 40.7641 20.88 40.7376C20.6156 40.712 20.4016 40.8945 20.3751 41.1469C20.2383 42.4522 20.2961 43.7566 20.2988 43.8116C20.3046 43.9411 20.3652 44.062 20.4653 44.1446C20.5633 44.2254 20.6924 44.2639 20.8239 44.2451C21.2175 44.1879 24.6951 43.653 25.6564 42.4902C26.0601 42.0019 26.2911 41.4025 26.3275 40.7822C26.4964 40.7648 26.6632 40.7175 26.8097 40.6187L29.3853 38.8855C30.2139 38.7634 31.0879 38.4919 31.9787 38.0928C32.5029 39.7014 31.9916 41.5389 30.9452 42.9468C30.7566 43.2006 30.7455 43.5376 30.9173 43.8049C31.0891 44.0732 31.4011 44.2 31.7041 44.1346C32.2247 44.0239 32.7443 43.8381 33.2483 43.5821C36.1623 42.1042 37.8564 38.6181 37.0248 35.8111C36.9303 35.4918 36.8026 35.1951 36.6506 34.9161C37.3885 34.236 38.1021 33.4881 38.771 32.6792C43.1106 27.4301 41.7459 19.2888 41.6857 18.9448C41.611 18.5188 41.1298 18.5648 41.2253 18.5633C38.4261 18.6067 34.3906 19.532 31.4442 21.3238C31.2275 21.4557 31.1584 21.7384 31.2903 21.9552C31.4222 22.1722 31.7054 22.2413 31.9217 22.1091C32.5773 21.7104 33.258 21.3727 33.9396 21.0857C35.3256 23.8953 37.5538 25.7382 40.5735 26.572C40.1686 28.4831 39.4148 30.458 38.0628 32.0936C35.4203 35.2898 32.1003 37.5212 29.3457 37.9654C28.8873 37.5866 31.0065 39.3377 24.8619 34.2605C24.7844 31.6725 26.1119 28.3354 28.4427 25.283C28.5966 25.0813 28.558 24.793 28.3561 24.6388C28.1541 24.4842 27.8661 24.5239 27.7121 24.7251C27.2647 25.3111 26.8543 25.9087 26.4797 26.5107C26.1787 26.414 25.8646 26.3445 25.5346 26.3117C22.6126 26.0211 19.5156 28.3425 18.6117 31.4822C18.456 32.024 18.3711 32.5693 18.3595 33.1029C18.3534 33.417 18.5388 33.6959 18.8322 33.8134ZM34.7968 20.7531C37.4129 19.8061 39.891 19.5621 40.8367 19.5024C40.9547 20.4417 41.18 22.918 40.7413 25.6681C38.0153 24.8997 36.064 23.2861 34.7968 20.7531ZM26.2963 39.8563C26.245 39.8903 26.1772 39.8861 26.1302 39.8488C26.0839 39.8105 23.4519 37.6365 23.6189 37.7744C23.5709 37.7344 23.5543 37.6667 23.579 37.6095L24.5934 35.2309C29.7847 39.5224 28.0945 38.1252 28.4419 38.4123L26.2963 39.8563ZM36.1434 36.0717C36.8552 38.4737 35.3697 41.4752 32.8327 42.7623C32.5397 42.9109 32.2417 43.0319 31.9424 43.1238C32.9954 41.5194 33.453 39.4614 32.8121 37.6877C33.8593 37.1312 34.9163 36.4081 35.9377 35.5473C36.0186 35.7129 36.0888 35.8867 36.1434 36.0717ZM19.4951 31.736C20.2716 29.04 22.9171 26.9758 25.4441 27.226C25.6352 27.2449 25.8194 27.2785 25.9978 27.3234C25.3396 28.4935 24.8291 29.6686 24.4803 30.8027C22.6235 30.5056 20.6888 31.3399 19.308 32.6782C19.3416 32.3666 19.4045 32.0511 19.4951 31.736ZM30.26 32.2951C32.1455 33.8531 34.9263 33.5672 36.4648 31.7062C38.0171 29.829 37.7547 27.0535 35.876 25.5012C34.0037 23.9524 31.2194 24.2165 29.6716 26.0897C28.1193 27.9671 28.3812 30.7418 30.26 32.2951ZM30.3798 26.6754C31.5991 25.2002 33.801 24.9782 35.2908 26.2096C36.7772 27.4386 36.9852 29.6341 35.7566 31.1206C34.5315 32.6025 32.328 32.8122 30.8456 31.5866C29.3597 30.3583 29.1507 28.1623 30.3798 26.6754ZM35.0224 30.5138C35.9143 29.4358 35.7633 27.8353 34.684 26.9435C33.6076 26.0535 32.0073 26.2013 31.114 27.2822C30.2221 28.3602 30.3731 29.9607 31.4524 30.8524C32.5282 31.7417 34.129 31.5946 35.0224 30.5138ZM31.8221 27.8678C32.3939 27.1765 33.415 27.0872 34.0984 27.6519C34.7858 28.22 34.8826 29.2409 34.3143 29.9282C33.738 30.6249 32.7162 30.7036 32.038 30.1442V30.1441C31.3506 29.5759 31.2538 28.5551 31.8221 27.8678Z" fill="url(#paint0_linear_125_4901)"/>
<defs>
<linearGradient id="paint0_linear_125_4901" x1="18.3561" y1="41.9996" x2="61.6396" y2="41.9996" gradientUnits="userSpaceOnUse">
<stop stop-color="#F7D321"/>
<stop offset="1" stop-color="#F52A9B"/>
</linearGradient>
</defs>
</svg>
