<svg width="84" height="84" viewBox="0 0 84 84" fill="none" xmlns="http://www.w3.org/2000/svg">
<rect x="2" y="2" width="80" height="80" rx="40" fill="#FFF8ED" fill-opacity="0.6"/>
<rect x="1" y="1" width="82" height="82" rx="41" stroke="#FFDAA8" stroke-opacity="0.4" stroke-width="2"/>
<path d="M56.1806 60.2206V38.9554H57.1701C57.8379 38.9554 58.3782 38.4151 58.3782 37.7473V31.355C58.3782 30.6873 57.8379 30.147 57.1701 30.147H51.2999C52.2408 29.7099 53.0057 29.1635 53.4185 28.5018C53.8131 27.8705 53.8556 27.1967 53.5399 26.5471C53.5278 26.5168 53.5096 26.4864 53.4914 26.45C53.4367 26.365 53.37 26.2679 53.285 26.1768C53.285 26.1707 53.2789 26.1707 53.2789 26.1647C53.0968 25.9219 51.7855 24.1189 50.8932 23.184C50.4561 22.7287 49.8248 22.5102 49.2116 22.5952C46.5891 22.9473 44.0638 24.9141 41.8359 26.6503C41.7145 26.7475 41.5991 26.8324 41.4777 26.9296C41.1256 26.5046 40.5975 26.2254 39.9965 26.2254C39.3955 26.2254 38.8734 26.5046 38.5153 26.9296C38.3939 26.8385 38.2785 26.7475 38.1571 26.6503C35.9292 24.9141 33.4099 22.9473 30.7874 22.5952C30.1682 22.5102 29.5369 22.7287 29.0998 23.184C28.2317 24.0885 26.9691 25.8187 26.7505 26.1343C26.6109 26.2739 26.5138 26.4196 26.4531 26.5471C26.1374 27.1967 26.1799 27.8705 26.5745 28.5018C26.9873 29.1635 27.7522 29.7099 28.6931 30.147H22.835C22.1672 30.147 21.627 30.6873 21.627 31.355V37.7473C21.627 38.4151 22.1672 38.9554 22.835 38.9554H23.8184V60.2206C23.8184 60.8883 24.3648 61.4286 25.0325 61.4286H35.8139H44.1913H54.9726C55.6404 61.4286 56.1806 60.8883 56.1806 60.2206ZM35.8139 60.2206H25.0325V38.9614H35.8139V60.2206ZM35.8139 37.7473H23.8184L22.8411 37.7534V31.3672H34.7272H35.8078V37.7473H35.8139ZM38.0721 30.153H37.028H34.7272C31.6434 30.153 28.3896 29.1028 27.6125 27.8644C27.4486 27.6034 27.4243 27.3667 27.5397 27.1117C27.564 27.0874 27.5883 27.0449 27.6247 26.9903C27.6307 26.9781 27.6368 26.9721 27.6429 26.966C27.6915 26.9296 27.7582 26.8931 27.8554 26.8567C28.0496 26.7899 28.2864 26.7596 28.5595 26.7596C30.7085 26.7596 35.225 28.5868 38.0721 29.977V30.153ZM40.7128 29.2242V30.153H39.2862V28.1558C39.2862 27.7612 39.608 27.4395 40.0026 27.4395C40.3972 27.4395 40.7007 27.7491 40.7128 28.1376C40.7128 28.1437 40.7128 28.1498 40.7128 28.1558V29.2242ZM57.1641 31.3672V37.7473H56.1806H44.1913V31.3672H45.2658C45.2658 31.3672 45.2718 31.3672 45.2779 31.3672H57.1641ZM42.9771 30.153H41.9269V29.977C45.1383 28.4047 50.4743 26.2922 52.1437 26.8567C52.2408 26.8871 52.3076 26.9296 52.3501 26.9599C52.3623 26.9721 52.3683 26.9781 52.3744 26.9903C52.4108 27.0388 52.4351 27.0813 52.4594 27.1056C52.4715 27.1238 52.4776 27.1481 52.4837 27.1663C52.4958 27.1967 52.5079 27.227 52.514 27.2513C52.5201 27.2756 52.5262 27.3059 52.5262 27.3302C52.5504 27.5063 52.5079 27.6763 52.3865 27.8644C51.6095 29.1028 48.3557 30.153 45.2718 30.153H42.9771ZM44.1913 60.2206V38.9554H54.9665V60.2145H44.1913V60.2206Z" fill="url(#paint0_linear_125_4893)"/>
<defs>
<linearGradient id="paint0_linear_125_4893" x1="21.6242" y1="42.0027" x2="58.3774" y2="42.0027" gradientUnits="userSpaceOnUse">
<stop stop-color="#F7D321"/>
<stop offset="1" stop-color="#F52A9B"/>
</linearGradient>
</defs>
</svg>
