<svg width="84" height="84" viewBox="0 0 84 84" fill="none" xmlns="http://www.w3.org/2000/svg">
<rect x="2" y="2" width="80" height="80" rx="40" fill="#FFF8ED" fill-opacity="0.6"/>
<rect x="1" y="1" width="82" height="82" rx="41" stroke="#FFDAA8" stroke-opacity="0.4" stroke-width="2"/>
<path d="M49.3013 39.3247C49.8876 39.1678 50.2814 38.6548 50.2814 38.0483V37.5075H54.0088C54.2529 38.346 55.0269 38.9611 55.9432 38.9611C57.0532 38.9611 57.9562 38.0568 57.9562 36.9454C57.9562 35.834 57.0532 34.9323 55.9432 34.9323C55.0272 34.9323 54.2534 35.5463 54.009 36.3834H50.2814V35.8425C50.2814 35.2359 49.8875 34.723 49.3009 34.566L48.2191 34.2775C48.2178 34.2735 48.2162 34.2694 48.2149 34.2653H50.3838C50.5328 34.2653 50.6758 34.206 50.7812 34.1007L52.1287 32.7532H54.009C54.2533 33.5903 55.0272 34.2043 55.9432 34.2043C57.0532 34.2043 57.9562 33.3012 57.9562 32.1912C57.9562 31.0812 57.0532 30.1782 55.9432 30.1782C55.0272 30.1782 54.2534 30.792 54.009 31.6291H51.8959C51.7468 31.6291 51.6038 31.6884 51.4985 31.7938L50.151 33.1412H47.7579C47.7382 33.1009 47.7196 33.0602 47.6992 33.0202L48.2568 32.0522C48.5598 31.5335 48.4735 30.8766 48.0493 30.4571L46.4894 28.8971C46.0623 28.47 45.4222 28.3843 44.8937 28.6857L43.9234 29.2467C43.8834 29.2262 43.8427 29.2077 43.8024 29.1879V26.7954L45.1525 25.4453C45.2579 25.3399 45.3172 25.197 45.3172 25.0479V22.9349C46.1542 22.6908 46.7682 21.918 46.7682 21.0032C46.7682 19.8932 45.8651 18.9902 44.7551 18.9902C43.6451 18.9902 42.7394 19.8932 42.7394 21.0032C42.7394 21.9182 43.3545 22.6913 44.1931 22.935V24.8151L42.843 26.1652C42.7376 26.2706 42.6784 26.4135 42.6784 26.5626V28.7309C42.675 28.7297 42.6717 28.7285 42.6683 28.7274L42.3775 27.645C42.2206 27.0588 41.7076 26.665 41.1011 26.665H40.5603V22.935C41.3989 22.6912 42.014 21.9182 42.014 21.0032C42.014 19.8932 41.1097 18.9902 39.9983 18.9902C38.8868 18.9902 37.9852 19.8932 37.9852 21.0032C37.9852 21.918 38.5991 22.6908 39.4362 22.9349V26.665H38.8954C38.2888 26.665 37.776 27.0588 37.6189 27.6455L37.3303 28.7273C37.3263 28.7286 37.3223 28.7302 37.3182 28.7314V26.5626C37.3182 26.4137 37.2592 26.271 37.154 26.1656L35.806 24.8154V22.935C36.6446 22.6912 37.2597 21.9182 37.2597 21.0032C37.2597 19.8932 36.3554 18.9902 35.244 18.9902C34.1326 18.9902 33.231 19.8932 33.231 21.0032C33.231 21.918 33.8449 22.6908 34.682 22.9349V25.0479C34.682 25.1968 34.741 25.3395 34.8462 25.4449L36.1942 26.7951V29.1885C36.154 29.2081 36.1135 29.2266 36.0737 29.247L35.1018 28.6852C34.5833 28.3867 33.9277 28.4748 33.5106 28.8965L31.9521 30.455C31.5277 30.8749 31.4396 31.5303 31.7386 32.0501L32.2999 33.0208C32.2795 33.0606 32.2611 33.1011 32.2414 33.1412H29.848L28.4978 31.7934C28.3924 31.6882 28.2496 31.6291 28.1007 31.6291H25.9877C25.7437 30.7921 24.9709 30.1782 24.0561 30.1782C22.9461 30.1782 22.043 31.0812 22.043 32.1912C22.043 33.3012 22.9461 34.2043 24.0561 34.2043C24.9709 34.2043 25.7437 33.5903 25.9877 32.7532H27.8682L29.2185 34.101C29.3239 34.2062 29.4667 34.2653 29.6155 34.2653H31.7843C31.783 34.2693 31.7814 34.2734 31.7801 34.2775L30.6981 34.5661C30.1118 34.723 29.7178 35.236 29.7178 35.8425V36.3834H25.9877C25.7437 35.5463 24.9709 34.9323 24.0561 34.9323C22.9461 34.9323 22.043 35.8354 22.043 36.9454C22.043 38.0554 22.9461 38.9611 24.0561 38.9611C24.9711 38.9611 25.744 38.346 25.9878 37.5075H29.7177V38.0483C29.7177 38.6549 30.1116 39.1678 30.6973 39.3246L31.7801 39.6155C31.7812 39.6189 31.7825 39.6222 31.7836 39.6255H29.6154C29.4664 39.6255 29.3234 39.6848 29.218 39.7902L27.8678 41.1403H25.9878C25.744 40.3017 24.9711 39.6866 24.0561 39.6866C22.9461 39.6866 22.043 40.5909 22.043 41.7023C22.043 42.8137 22.9461 43.7154 24.0561 43.7154C24.9709 43.7154 25.7437 43.1014 25.9877 42.2643H28.1007C28.2498 42.2643 28.3928 42.2051 28.4981 42.0997L29.8483 40.7496H32.2408C32.2606 40.7898 32.2792 40.8306 32.2996 40.8705L31.7369 41.8438C31.4373 42.3692 31.5229 43.0094 31.9499 43.4364L33.5077 44.9941C33.7613 45.2506 34.1001 45.3841 34.4422 45.384C34.6686 45.384 34.8966 45.3255 35.102 45.2055L36.0745 44.6453C36.5768 44.8967 37.1703 45.1278 37.7221 45.2853V47.2461C37.0151 46.1724 36.0713 45.6312 34.8978 45.6312C34.8826 45.6312 34.8671 45.6312 34.8518 45.6318C33.8709 45.6765 33.1972 45.9351 32.792 46.4229C32.469 46.8116 32.3476 47.3121 32.4311 47.9108C32.4345 47.9349 32.4394 47.9587 32.4458 47.9822L33.2421 50.8744C33.597 52.1634 33.8543 53.0979 34.0137 53.6804C34.2533 54.5477 35.129 56.0043 36.1433 57.2225C36.7006 57.8919 37.4218 58.639 38.1863 59.1211C37.8142 59.4962 37.5838 60.0122 37.5838 60.581V62.9383C37.5838 64.0805 38.5143 65.0098 39.6579 65.0098H51.1382C52.2805 65.0098 53.2098 64.0805 53.2098 62.9383V60.5784C53.2098 59.7466 52.7167 59.0282 52.0078 58.699C52.3618 58.2645 52.5746 57.7106 52.5746 57.1078C52.5746 55.243 52.5727 53.383 52.5707 51.5232C52.5687 49.6645 52.5667 47.8062 52.5667 45.9437C52.5667 44.4573 51.4209 43.6796 50.2892 43.6796C49.8894 43.6796 49.488 43.7766 49.1359 43.9676V43.233C49.1359 42.211 48.5935 41.5244 47.8866 41.1955L47.6992 40.8709C47.7197 40.8309 47.7383 40.79 47.7581 40.7497H50.1503L51.4977 42.0994C51.6032 42.2051 51.7463 42.2644 51.8955 42.2644H54.0086C54.2529 43.1015 55.0268 43.7155 55.9429 43.7155C57.0529 43.7155 57.9559 42.8124 57.9559 41.7024C57.9559 40.5924 57.0529 39.6867 55.9429 39.6867C55.0267 39.6867 54.2526 40.3018 54.0084 41.1404H52.1286L50.7812 39.7906C50.6757 39.685 50.5327 39.6256 50.3834 39.6256H48.2152C48.2163 39.6223 48.2175 39.619 48.2186 39.6156L49.301 39.3248L49.3013 39.3247ZM55.9432 36.0565C56.4334 36.0565 56.8321 36.4553 56.8321 36.9454C56.8321 37.4355 56.4333 37.8371 55.9432 37.8371C55.4532 37.8371 55.0516 37.437 55.0516 36.9454C55.0516 36.4538 55.4516 36.0565 55.9432 36.0565ZM55.9432 31.3023C56.4334 31.3023 56.8321 31.7011 56.8321 32.1912C56.8321 32.6812 56.4333 33.0801 55.9432 33.0801C55.4532 33.0801 55.0516 32.6813 55.0516 32.1912C55.0516 31.701 55.4516 31.3023 55.9432 31.3023ZM43.8636 21.0032C43.8636 20.5131 44.2636 20.1144 44.7552 20.1144C45.2468 20.1144 45.6442 20.5132 45.6442 21.0032C45.6442 21.4933 45.2453 21.8922 44.7552 21.8922C44.2651 21.8922 43.8636 21.4934 43.8636 21.0032ZM39.1094 21.0032C39.1094 20.5131 39.5082 20.1144 39.9983 20.1144C40.4883 20.1144 40.8899 20.5132 40.8899 21.0032C40.8899 21.4933 40.4899 21.8922 39.9983 21.8922C39.5066 21.8922 39.1094 21.4934 39.1094 21.0032ZM34.3552 21.0032C34.3552 20.5131 34.754 20.1144 35.244 20.1144C35.734 20.1144 36.1357 20.5132 36.1357 21.0032C36.1357 21.4933 35.7356 21.8922 35.244 21.8922C34.7524 21.8922 34.3552 21.4934 34.3552 21.0032ZM24.0562 33.0802C23.5659 33.0802 23.1672 32.6814 23.1672 32.1913C23.1672 31.7011 23.566 31.3024 24.0562 31.3024C24.5463 31.3024 24.945 31.7012 24.945 32.1913C24.945 32.6813 24.5462 33.0802 24.0562 33.0802ZM24.0562 37.8371C23.5659 37.8371 23.1672 37.437 23.1672 36.9454C23.1672 36.4538 23.566 36.0565 24.0562 36.0565C24.5463 36.0565 24.945 36.4553 24.945 36.9454C24.945 37.4355 24.5462 37.8371 24.0562 37.8371ZM24.0562 42.5913C23.5659 42.5913 23.1672 42.1925 23.1672 41.7024C23.1672 41.2123 23.566 40.8107 24.0562 40.8107C24.5463 40.8107 24.945 41.2108 24.945 41.7024C24.945 42.194 24.5462 42.5913 24.0562 42.5913ZM55.9432 40.8107C56.4334 40.8107 56.8321 41.2108 56.8321 41.7024C56.8321 42.194 56.4333 42.5913 55.9432 42.5913C55.4532 42.5913 55.0516 42.1925 55.0516 41.7024C55.0516 41.2123 55.4516 40.8107 55.9432 40.8107ZM36.3364 43.5128C36.164 43.4167 35.9534 43.418 35.7821 43.5166L34.538 44.2333C34.459 44.2793 34.3706 44.268 34.3048 44.2016L32.7448 42.6416C32.6775 42.5743 32.6658 42.4842 32.7117 42.4035L33.4292 41.1626C33.5285 40.9908 33.5299 40.7795 33.4329 40.6065C33.1495 40.1007 32.9261 39.5608 32.7688 39.0016C32.7152 38.8109 32.5649 38.6625 32.3736 38.611L30.9886 38.2389C30.8967 38.2142 30.8419 38.1431 30.8419 38.0483V35.8426C30.8419 35.748 30.8967 35.6767 30.9882 35.6523L32.3728 35.283C32.5648 35.2317 32.7155 35.0828 32.7692 34.8915C32.9245 34.3365 33.1481 33.7956 33.4337 33.2835C33.5301 33.1107 33.5285 32.8998 33.4294 32.7285L32.7125 31.4885C32.6663 31.4082 32.678 31.3185 32.7457 31.2514L34.3072 29.6899C34.3713 29.6251 34.461 29.6132 34.5403 29.6591L35.7814 30.3765C35.9527 30.4756 36.1637 30.4771 36.3365 30.3809C36.8487 30.0951 37.3896 29.8715 37.9442 29.7164C38.1356 29.6628 38.2845 29.5121 38.3358 29.32L38.705 27.9359C38.7296 27.844 38.8008 27.7891 38.8955 27.7891H41.1011C41.1959 27.7891 41.2672 27.844 41.2918 27.9363L41.6638 29.3209C41.7153 29.5124 41.8637 29.6625 42.0545 29.7162C42.6133 29.8733 43.1533 30.0968 43.6593 30.3803C43.8323 30.4771 44.0437 30.4758 44.2154 30.3765L45.4535 29.6607C45.537 29.6129 45.6272 29.6247 45.6945 29.6921L47.2566 31.2542C47.3209 31.3178 47.3322 31.4063 47.2843 31.4882L46.5695 32.7292C46.4708 32.9004 46.4694 33.1109 46.5656 33.2835C46.8514 33.7958 47.075 34.3367 47.2301 34.8913C47.2837 35.0827 47.4344 35.2316 47.6265 35.2829L49.0108 35.6521C49.1026 35.6767 49.1573 35.7479 49.1573 35.8425V38.0482C49.1573 38.143 49.1025 38.2142 49.0102 38.2389L47.6256 38.6109C47.4341 38.6624 47.2839 38.8108 47.2303 39.0015C47.0732 39.5604 46.8497 40.1004 46.5662 40.6064C46.4988 40.7265 46.4801 40.8651 46.5076 40.9962C46.1518 41.0473 45.8068 41.1756 45.5096 41.3794C45.2496 40.7964 44.7605 40.4083 44.2034 40.224C44.9289 39.2965 45.3306 38.151 45.3306 36.9453C45.3306 34.0065 42.9385 31.6157 39.9983 31.6157C37.0582 31.6157 34.6687 34.0065 34.6687 36.9453C34.6687 39.0032 35.881 40.8933 37.7222 41.7663V44.1089C37.2326 43.9474 36.7333 43.7341 36.3364 43.5127V43.5128ZM39.9996 34.2342C38.8679 34.2342 37.7222 35.0112 37.7222 36.4964V40.4816C36.5425 39.7163 35.7928 38.383 35.7928 36.9454C35.7928 34.6265 37.6793 32.74 39.9983 32.74C42.3172 32.74 44.2064 34.6265 44.2064 36.9454C44.2064 38.2282 43.6312 39.4254 42.6282 40.2302L42.6311 40.2339C42.5092 40.2758 42.3904 40.3264 42.277 40.3879V36.4964C42.277 35.0112 41.1313 34.2342 39.9996 34.2342ZM52.0859 62.9383C52.0859 63.4606 51.6608 63.8856 51.1385 63.8856H39.6582C39.1343 63.8856 38.7082 63.4606 38.7082 62.9383V60.581C38.7082 60.0571 39.1343 59.631 39.6582 59.631H51.1385C51.6608 59.631 52.0859 60.0559 52.0859 60.5783V62.9382V62.9383ZM48.012 44.1046V46.507C48.012 46.8175 48.2636 47.069 48.574 47.069C48.8844 47.069 49.1361 46.8174 49.1361 46.507V45.9436C49.1361 45.1021 49.7573 44.8035 50.2894 44.8035C50.8214 44.8035 51.4428 45.1022 51.4428 45.9436C51.4428 47.8064 51.4447 49.6651 51.4467 51.5242C51.4487 53.3836 51.4507 55.2434 51.4507 57.1077C51.4507 57.8791 50.8231 58.5069 50.0515 58.5069H39.6794C38.2376 58.5069 35.4974 54.829 35.0978 53.3823C34.9388 52.8008 34.6812 51.8657 34.326 50.5759L33.5403 47.7217C33.4944 47.3368 33.616 47.1903 33.6567 47.1414C33.8392 46.9216 34.2778 46.7847 34.8922 46.7554C35.4161 46.7511 36.9623 46.7689 37.7344 50.4105C37.7941 50.692 38.0571 50.8822 38.3428 50.8531C38.629 50.823 38.8463 50.5817 38.8463 50.294V36.4964C38.8463 35.6564 39.4675 35.3582 39.9996 35.3582C40.5316 35.3582 41.153 35.6564 41.153 36.4964V44.7664C41.153 45.0769 41.4046 45.3285 41.715 45.3285C42.0254 45.3285 42.277 45.0768 42.277 44.7664V42.3641C42.277 41.5226 42.8984 41.224 43.4304 41.224C43.9625 41.224 44.5838 41.5227 44.5838 42.3641V45.6381C44.5838 45.9486 44.8355 46.2001 45.1459 46.2001C45.4563 46.2001 45.7079 45.9485 45.7079 45.6381V43.233C45.7079 42.393 46.3285 42.095 46.8599 42.095C47.3913 42.095 48.012 42.393 48.012 43.233V44.1046Z" fill="url(#paint0_linear_125_4861)"/>
<defs>
<linearGradient id="paint0_linear_125_4861" x1="22.0431" y1="42" x2="57.9562" y2="42" gradientUnits="userSpaceOnUse">
<stop stop-color="#F8BA16"/>
<stop offset="1" stop-color="#E93728"/>
</linearGradient>
</defs>
</svg>
