<svg width="84" height="84" viewBox="0 0 84 84" fill="none" xmlns="http://www.w3.org/2000/svg">
<rect x="2" y="2" width="80" height="80" rx="40" fill="#FFF8ED" fill-opacity="0.6"/>
<rect x="1" y="1" width="82" height="82" rx="41" stroke="#FFDAA8" stroke-opacity="0.4" stroke-width="2"/>
<path d="M29.8751 49.1067C29.8751 48.7544 29.5894 48.4688 29.237 48.4688H26.1068C25.7544 48.4688 25.4688 48.7544 25.4688 49.1067V56.6434C25.4688 56.9957 25.7544 57.2813 26.1068 57.2813H29.237C29.5894 57.2813 29.8751 56.9957 29.8751 56.6434V49.1067ZM28.5626 55.9688H26.6876V49.6875H28.5626V55.9688Z" fill="url(#paint0_linear_125_4878)"/>
<path d="M36.6251 42.263C36.6251 41.9107 36.3394 41.625 35.9869 41.625H32.8569C32.5045 41.625 32.2188 41.9107 32.2188 42.263V56.5496C32.2188 56.9019 32.5044 57.1876 32.8569 57.1876H35.9869C36.3393 57.1876 36.6251 56.9019 36.6251 56.5496V42.263ZM35.3126 55.9688H33.5313V42.9375H35.3126V55.9688Z" fill="url(#paint1_linear_125_4878)"/>
<path d="M43.4688 35.7941C43.4688 35.4418 43.1832 35.1562 42.8308 35.1562H39.7006C39.3482 35.1562 39.0625 35.4418 39.0625 35.7941V56.5497C39.0625 56.902 39.3482 57.1876 39.7006 57.1876H42.8308C43.1832 57.1876 43.4688 56.902 43.4688 56.5497V35.7941ZM42.1563 55.9688H40.3751V36.4688H42.1563V55.9688Z" fill="url(#paint2_linear_125_4878)"/>
<path d="M50.3126 40.1067C50.3126 39.7544 50.0269 39.4688 49.6744 39.4688H46.5444C46.192 39.4688 45.9062 39.7544 45.9062 40.1067V56.6434C45.9062 56.9957 46.1919 57.2813 46.5444 57.2813H49.6744C50.0268 57.2813 50.3126 56.9957 50.3126 56.6434V40.1067ZM49.0001 55.9688H47.1251V40.6875H49.0001V55.9688Z" fill="url(#paint3_linear_125_4878)"/>
<path d="M23.5897 45.4976C23.6984 45.5696 23.821 45.6045 23.9422 45.6045C24.1487 45.6045 24.3513 45.5044 24.4743 45.3196L30.3994 36.4023L34.5755 38.7135C34.7237 38.796 34.8978 38.8152 35.0608 38.7685C35.2234 38.7218 35.3608 38.6127 35.4427 38.4644L40.9358 28.5308L44.5625 30.4601C44.5866 30.566 44.6111 30.672 44.6394 30.7776C45.617 34.4255 48.9344 36.9735 52.7068 36.9735C52.8181 36.9735 52.9293 36.9705 53.0405 36.966L53.7018 39.4345C52.8852 40.2972 52.5208 41.5327 52.85 42.762L53.5299 45.2815H53.3148C52.9625 45.2815 52.6561 45.6044 52.6561 45.9568V56.5868C52.6561 56.9392 52.9626 57.1877 53.3148 57.1877H56.4102C56.7625 57.1877 57.0623 56.9392 57.0623 56.5868V50.9166C57.2498 50.9649 57.528 50.9903 57.7726 50.9903C58.0788 50.9903 58.3814 50.9503 58.6789 50.871C59.5871 50.6268 60.346 50.0416 60.8189 49.2227C61.292 48.4039 61.4173 47.4522 61.1737 46.5443L59.675 40.9523C59.3517 39.7453 58.4203 38.8237 57.2643 38.4802L56.6026 36.0113C57.9897 35.2848 59.147 34.1819 59.9489 32.793C61.0651 30.86 61.3613 28.608 60.7833 26.4518C59.8062 22.8038 56.4889 20.2559 52.7165 20.2559C51.988 20.2559 51.2586 20.3522 50.5488 20.5423C48.3925 21.12 46.5904 22.5034 45.4743 24.4365C44.6786 25.8144 44.3019 27.3546 44.359 28.9066L40.9806 27.1097C40.673 26.9458 40.2914 27.06 40.1228 27.3649L34.635 37.2888L30.5026 35.0012C30.2125 34.8403 29.846 34.9292 29.6621 35.2066L23.4113 44.6134C23.2164 44.9064 23.2961 45.3026 23.5897 45.4976ZM55.7497 55.969H53.9685V46.8972L54.3449 48.3726C54.5694 49.2098 55.0935 49.9092 55.7497 50.3741V55.969ZM58.442 41.2822L59.9403 46.8743C60.0954 47.4536 60.0144 48.0611 59.7119 48.5848C59.4095 49.1085 58.9238 49.483 58.3448 49.6381C58.1552 49.6884 57.9601 49.7144 57.7654 49.7144C56.743 49.7144 55.8446 49.0268 55.5805 48.0424L54.0822 42.4504C53.7605 41.2481 54.4762 40.0085 55.6779 39.6867C55.8676 39.6355 56.0627 39.6096 56.2575 39.6096C57.2797 39.6096 58.178 40.2972 58.442 41.2822ZM55.909 38.3532C55.7199 38.3722 55.5321 38.4048 55.3477 38.454C55.161 38.504 54.9821 38.5689 54.8111 38.6458L54.3207 36.8152C54.5063 36.7786 54.6909 36.7362 54.8743 36.6871C55.0584 36.6378 55.239 36.5805 55.4177 36.5195L55.909 38.3532ZM46.5793 25.0741C47.525 23.4363 49.052 22.2644 50.8789 21.7749C51.4811 21.6139 52.0994 21.5316 52.7165 21.5316C55.9124 21.5316 58.7228 23.6908 59.5508 26.7817C60.0404 28.6086 59.7893 30.5172 58.8438 32.1549C57.898 33.7927 56.3711 34.9647 54.544 35.4542C53.9419 35.6152 53.3236 35.6975 52.7067 35.6975C49.5107 35.6975 46.7001 33.5383 45.8719 30.4474C45.3822 28.6205 45.6335 26.712 46.5793 25.0741Z" fill="url(#paint4_linear_125_4878)"/>
<path d="M52.7093 34.41C53.2146 34.41 53.7203 34.3433 54.2124 34.2113C55.7074 33.8108 56.9566 32.8524 57.7305 31.512C58.5044 30.1717 58.7098 28.6103 58.3093 27.1156C57.6316 24.5862 55.3317 22.8193 52.7159 22.8193C52.2107 22.8193 51.7051 22.8862 51.2131 23.0182C48.1274 23.8444 46.2894 27.0281 47.1159 30.1145C47.7938 32.6439 50.094 34.41 52.7093 34.41ZM51.5432 24.251C51.9276 24.1479 52.3223 24.0953 52.7159 24.0953C54.7552 24.0953 56.5484 25.4734 57.0769 27.4457C57.7215 29.852 56.2885 32.3339 53.8822 32.9785C53.4977 33.0816 53.1031 33.1343 52.7093 33.1343C50.6704 33.1343 48.8772 31.7568 48.3483 29.7846C47.7039 27.3775 49.1371 24.8956 51.5432 24.251Z" fill="url(#paint5_linear_125_4878)"/>
<path d="M62.7827 60.3479L60.4747 58.0404C60.2256 57.7919 59.8216 57.7912 59.5724 58.0404C59.3232 58.2895 59.3234 58.707 59.5724 58.9563L60.7909 60.1874H20.5942V25.9433L21.8231 27.1612C21.9478 27.2858 22.1163 27.3481 22.2796 27.3481C22.443 27.3481 22.6088 27.2858 22.7334 27.1612C22.9825 26.9127 22.9838 26.5084 22.7347 26.2592L20.4279 23.9515C20.1787 23.7024 19.7752 23.7024 19.5259 23.9515L17.218 26.2592C16.969 26.5084 16.9689 26.912 17.2181 27.1612C17.4669 27.4104 17.889 27.4096 18.1386 27.1619L19.3755 25.9433V60.7989C19.3755 61.1514 19.6251 61.4063 19.9774 61.4063H60.7911L59.5724 62.6402C59.3234 62.8894 59.3232 63.3007 59.5724 63.5499C59.697 63.6744 59.8602 63.7406 60.0236 63.7406C60.1867 63.7406 60.3501 63.6802 60.4748 63.5563L62.7828 61.2497C62.9024 61.1296 62.9697 60.9676 62.9697 60.7985C62.9697 60.6294 62.9023 60.4674 62.7827 60.3479Z" fill="url(#paint6_linear_125_4878)"/>
<defs>
<linearGradient id="paint0_linear_125_4878" x1="25.4684" y1="52.875" x2="29.875" y2="52.875" gradientUnits="userSpaceOnUse">
<stop stop-color="#F7D321"/>
<stop offset="1" stop-color="#F52A9B"/>
</linearGradient>
<linearGradient id="paint1_linear_125_4878" x1="32.2184" y1="49.4062" x2="36.625" y2="49.4062" gradientUnits="userSpaceOnUse">
<stop stop-color="#F7D321"/>
<stop offset="1" stop-color="#F52A9B"/>
</linearGradient>
<linearGradient id="paint2_linear_125_4878" x1="39.0622" y1="46.1718" x2="43.4688" y2="46.1718" gradientUnits="userSpaceOnUse">
<stop stop-color="#F7D321"/>
<stop offset="1" stop-color="#F52A9B"/>
</linearGradient>
<linearGradient id="paint3_linear_125_4878" x1="45.9059" y1="48.375" x2="50.3125" y2="48.375" gradientUnits="userSpaceOnUse">
<stop stop-color="#F7D321"/>
<stop offset="1" stop-color="#F52A9B"/>
</linearGradient>
<linearGradient id="paint4_linear_125_4878" x1="23.3018" y1="38.7216" x2="61.2944" y2="38.7216" gradientUnits="userSpaceOnUse">
<stop stop-color="#F7D321"/>
<stop offset="1" stop-color="#F52A9B"/>
</linearGradient>
<linearGradient id="paint5_linear_125_4878" x1="46.9171" y1="28.6146" x2="58.5089" y2="28.6146" gradientUnits="userSpaceOnUse">
<stop stop-color="#F7D321"/>
<stop offset="1" stop-color="#F52A9B"/>
</linearGradient>
<linearGradient id="paint6_linear_125_4878" x1="17.0278" y1="43.7524" x2="62.9688" y2="43.7524" gradientUnits="userSpaceOnUse">
<stop stop-color="#F7D321"/>
<stop offset="1" stop-color="#F52A9B"/>
</linearGradient>
</defs>
</svg>
