<svg width="174" height="160" viewBox="0 0 174 160" fill="none" xmlns="http://www.w3.org/2000/svg">
<path d="M87.0002 142.685C122.111 142.685 150.575 116.354 150.575 83.8719C150.575 51.3902 122.111 25.0586 87.0002 25.0586C51.889 25.0586 23.4258 51.3902 23.4258 83.8719C23.4258 116.354 51.889 142.685 87.0002 142.685Z" fill="url(#paint0_linear_125_4410)"/>
<path d="M57.7102 138.222C51.921 139.802 45.2959 139.882 40.2235 136.855C38.8873 136.057 37.6403 134.991 37.1597 133.588C37.0605 133.295 37.0919 132.855 37.4223 132.824C34.7201 132.514 32.4886 130.647 31.04 128.512C29.9383 126.889 29.1703 125.008 29.276 123.095C29.3801 121.18 30.4818 119.251 32.3399 118.403C29.8756 115.82 28.5922 112.303 28.8614 108.868C28.9407 107.852 29.167 106.806 29.8227 105.989C31.1094 104.386 33.6845 104.14 35.7326 104.771C38.514 105.627 40.7406 107.882 41.4111 110.523C42.4897 109.809 43.9151 109.074 45.0482 109.711C45.8773 110.177 46.1218 111.178 46.1763 112.074C46.2506 113.31 46.1086 114.555 45.7584 115.75C47.1537 114.173 49.599 114.016 50.3898 114.524C50.664 114.702 50.8259 114.989 50.9696 115.269C51.8087 116.902 52.3471 118.668 52.5535 120.468L57.7102 138.222ZM113.76 138.728C119.549 140.308 126.174 140.388 131.247 137.361C132.583 136.563 133.83 135.497 134.31 134.094C134.41 133.8 134.378 133.36 134.048 133.33C136.75 133.02 138.981 131.152 140.43 129.018C141.532 127.395 142.3 125.514 142.194 123.601C142.09 121.686 140.988 119.757 139.13 118.908C141.594 116.326 142.878 112.809 142.609 109.374C142.529 108.358 142.303 107.312 141.647 106.495C140.361 104.892 137.786 104.646 135.738 105.277C132.956 106.133 130.73 108.388 130.059 111.028C128.98 110.315 127.555 109.58 126.422 110.217C125.593 110.683 125.348 111.684 125.294 112.579C125.219 113.816 125.361 115.061 125.712 116.256C124.316 114.678 121.871 114.522 121.08 115.03C120.806 115.208 120.644 115.495 120.5 115.774C119.661 117.408 119.123 119.174 118.917 120.974L113.76 138.728Z" fill="#EE6B73"/>
<path d="M120.61 101.457V142.95H87.7739C87.7658 140.066 87.6797 109.257 87.6681 105.13L87.6582 101.457H120.61Z" fill="url(#paint1_linear_125_4410)"/>
<path d="M43.8613 105.741H52.3775L66.9312 83.0429L65.035 80.9365L43.8613 105.741Z" fill="#110F51"/>
<path d="M87.7734 105.244V142.952H50.1309V104.033L66.9306 83.043L87.6679 105.132L87.7734 105.244Z" fill="#FEFEFE"/>
<path d="M72.4933 92.6944V104.984H63.4766V92.6944C63.4766 90.3917 65.4949 88.5244 67.9841 88.5244C69.2295 88.5244 70.3559 88.992 71.1719 89.7453C71.9878 90.5001 72.4933 91.5438 72.4933 92.6944Z" fill="#587BEB"/>
<path d="M120.609 137.817H50.1309V142.952H120.609V137.817Z" fill="#444395"/>
<path d="M42.3672 104.363L43.8595 105.741L65.0332 80.936L87.2803 105.656L89.013 104.982L64.8862 78.4189L42.3672 104.363Z" fill="#FF8F8F"/>
<path d="M128.203 105.108L89.0133 104.984L64.8867 78.4197L104.395 78.2666L128.203 105.108Z" fill="#444395"/>
<path d="M112.772 101.223L97.0696 101.445L96.8828 87.6519L104.826 81.4434L112.922 89.8599L112.772 101.223Z" fill="#9BB5FA"/>
<path d="M84.1895 86.5205L97.0686 101.445V88.0285L84.1895 86.5205Z" fill="#FEFEFE"/>
<path d="M120.609 137.817V142.952H87.7725L87.7578 137.817H120.609Z" fill="#110F51"/>
<path d="M98.0433 90.7744L96.5449 90.1608L104.825 80.8174L114.32 89.4539L112.921 89.859L104.825 83.2891L98.0433 90.7744Z" fill="#110F51"/>
<path d="M96.5455 90.1608L84.1895 86.5199L93.1541 80.3271L104.825 80.8173L96.5455 90.1608Z" fill="#587BEB"/>
<path d="M108.138 93.0532V97.9978H101.713V93.0532C101.713 90.4026 105.188 89.0935 107.197 90.9522C107.778 91.49 108.138 92.2326 108.138 93.0532Z" fill="url(#paint2_linear_125_4410)"/>
<path d="M67.984 105.165C67.9043 105.165 67.8398 105.105 67.8398 105.031V88.522C67.8398 88.4483 67.9043 88.3887 67.984 88.3887C68.0636 88.3887 68.1281 88.4483 68.1281 88.522V105.031C68.1281 105.105 68.0636 105.165 67.984 105.165Z" fill="#FEFEFE"/>
<path d="M72.4927 96.3926H63.4762C63.3965 96.3926 63.332 96.333 63.332 96.2593C63.332 96.1856 63.3965 96.126 63.4762 96.126H72.4927C72.5723 96.126 72.6368 96.1856 72.6368 96.2593C72.6368 96.333 72.5723 96.3926 72.4927 96.3926Z" fill="#FEFEFE"/>
<path d="M66.3299 109.941H56.8359V126.468H66.3299V109.941Z" fill="#587BEB"/>
<path d="M61.5485 126.544H61.5473C61.4677 126.543 61.4036 126.483 61.4043 126.409C61.4436 122.039 61.5216 110.653 61.4174 110.055C61.4069 110.034 61.4022 110.009 61.4052 109.985C61.414 109.911 61.4861 109.861 61.5644 109.867C61.7471 109.885 61.7851 109.889 61.7478 118.211C61.7293 122.312 61.6926 126.411 61.6926 126.411C61.6919 126.485 61.6276 126.544 61.5485 126.544Z" fill="#FEFEFE"/>
<path d="M66.397 118.447H56.857C56.7774 118.447 56.7129 118.388 56.7129 118.314C56.7129 118.24 56.7774 118.181 56.857 118.181H66.397C66.4767 118.181 66.5411 118.24 66.5411 118.314C66.5411 118.388 66.4767 118.447 66.397 118.447Z" fill="#FEFEFE"/>
<path d="M79.656 109.941H70.1621V126.468H79.656V109.941Z" fill="#587BEB"/>
<path d="M74.8766 126.544H74.8755C74.7958 126.543 74.7317 126.483 74.7325 126.409C74.7716 122.039 74.8496 110.653 74.7455 110.055C74.735 110.034 74.7303 110.009 74.7333 109.984C74.742 109.911 74.8142 109.861 74.8925 109.867C75.075 109.885 75.113 109.889 75.0759 118.211C75.0574 122.312 75.0207 126.411 75.0207 126.411C75.02 126.485 74.9557 126.544 74.8766 126.544Z" fill="#FEFEFE"/>
<path d="M79.7232 118.447H70.1832C70.1035 118.447 70.0391 118.388 70.0391 118.314C70.0391 118.24 70.1035 118.181 70.1832 118.181H79.7232C79.8028 118.181 79.8673 118.24 79.8673 118.314C79.8673 118.388 79.8028 118.447 79.7232 118.447Z" fill="#FEFEFE"/>
<path d="M102.919 111.988H95.5078V134.246H102.919V111.988Z" fill="#4856C8"/>
<path d="M102.919 111.988V134.247H102.057V112.786H95.5078V111.988H102.919Z" fill="#191880"/>
<path d="M114.835 111.988H107.424V134.246H114.835V111.988Z" fill="#4856C8"/>
<path d="M114.835 111.988V134.247H113.973V112.786H107.424V111.988H114.835Z" fill="#191880"/>
<path d="M64.9314 146.171C69.2946 146.171 72.8316 145.771 72.8316 145.279C72.8316 144.786 69.2946 144.387 64.9314 144.387C60.5683 144.387 57.0312 144.786 57.0312 145.279C57.0312 145.771 60.5683 146.171 64.9314 146.171Z" fill="#4856C8"/>
<path d="M74.3766 143.038V144.974C74.3766 145.678 70.1482 146.248 64.9305 146.248C64.3524 146.248 63.7858 146.241 63.2358 146.229C58.8274 146.12 55.4844 145.601 55.4844 144.974V143.038H74.3766Z" fill="#444395"/>
<path d="M74.3771 143.038V144.974C74.3771 145.678 70.1487 146.248 64.931 146.248C64.3529 146.248 63.7863 146.241 63.2363 146.229V143.038H74.3771Z" fill="#201B5F"/>
<path d="M64.9327 144.31C70.1498 144.31 74.3791 143.74 74.3791 143.037C74.3791 142.334 70.1498 141.764 64.9327 141.764C59.7156 141.764 55.4863 142.334 55.4863 143.037C55.4863 143.74 59.7156 144.31 64.9327 144.31Z" fill="#9BB5FA"/>
<path d="M64.9314 143.929C69.2946 143.929 72.8316 143.529 72.8316 143.037C72.8316 142.544 69.2946 142.145 64.9314 142.145C60.5683 142.145 57.0312 142.544 57.0312 143.037C57.0312 143.529 60.5683 143.929 64.9314 143.929Z" fill="#4856C8"/>
<path d="M74.3766 140.715V142.651C74.3766 143.355 70.1482 143.925 64.9305 143.925C64.3524 143.925 63.7858 143.918 63.2358 143.905C58.8274 143.797 55.4844 143.277 55.4844 142.651V140.715H74.3766Z" fill="#444395"/>
<path d="M74.3771 140.715V142.651C74.3771 143.355 70.1487 143.925 64.931 143.925C64.3529 143.925 63.7863 143.918 63.2363 143.905V140.715H74.3771Z" fill="#201B5F"/>
<path d="M64.9307 141.988C70.1478 141.988 74.3771 141.418 74.3771 140.714C74.3771 140.011 70.1478 139.441 64.9307 139.441C59.7137 139.441 55.4844 140.011 55.4844 140.714C55.4844 141.418 59.7137 141.988 64.9307 141.988Z" fill="#9BB5FA"/>
<path d="M64.9314 141.606C69.2946 141.606 72.8316 141.207 72.8316 140.714C72.8316 140.222 69.2946 139.822 64.9314 139.822C60.5683 139.822 57.0312 140.222 57.0312 140.714C57.0312 141.207 60.5683 141.606 64.9314 141.606Z" fill="#4856C8"/>
<path d="M74.3766 138.473V140.409C74.3766 141.113 70.1482 141.683 64.9305 141.683C64.3524 141.683 63.7858 141.675 63.2358 141.663C58.8274 141.555 55.4844 141.035 55.4844 140.409V138.473H74.3766Z" fill="#444395"/>
<path d="M74.3771 138.473V140.409C74.3771 141.113 70.1487 141.683 64.931 141.683C64.3529 141.683 63.7863 141.675 63.2363 141.663V138.473H74.3771Z" fill="#201B5F"/>
<path d="M64.9307 139.745C70.1478 139.745 74.3771 139.175 74.3771 138.472C74.3771 137.769 70.1478 137.199 64.9307 137.199C59.7137 137.199 55.4844 137.769 55.4844 138.472C55.4844 139.175 59.7137 139.745 64.9307 139.745Z" fill="#9BB5FA"/>
<path d="M64.9314 139.364C69.2946 139.364 72.8316 138.965 72.8316 138.472C72.8316 137.979 69.2946 137.58 64.9314 137.58C60.5683 137.58 57.0312 137.979 57.0312 138.472C57.0312 138.965 60.5683 139.364 64.9314 139.364Z" fill="#4856C8"/>
<path d="M74.3766 136.233V138.169C74.3766 138.874 70.1482 139.444 64.9305 139.444C64.3524 139.444 63.7858 139.436 63.2358 139.424C58.8274 139.315 55.4844 138.796 55.4844 138.169V136.233H74.3766Z" fill="#444395"/>
<path d="M74.3771 136.233V138.169C74.3771 138.874 70.1487 139.444 64.931 139.444C64.3529 139.444 63.7863 139.436 63.2363 139.424V136.233H74.3771Z" fill="#201B5F"/>
<path d="M64.9307 137.506C70.1478 137.506 74.3771 136.936 74.3771 136.233C74.3771 135.53 70.1478 134.96 64.9307 134.96C59.7137 134.96 55.4844 135.53 55.4844 136.233C55.4844 136.936 59.7137 137.506 64.9307 137.506Z" fill="#9BB5FA"/>
<path d="M64.9314 137.125C69.2946 137.125 72.8316 136.725 72.8316 136.233C72.8316 135.74 69.2946 135.341 64.9314 135.341C60.5683 135.341 57.0312 135.74 57.0312 136.233C57.0312 136.725 60.5683 137.125 64.9314 137.125Z" fill="#4856C8"/>
<path d="M74.3766 134.066V136.002C74.3766 136.707 70.1482 137.277 64.9305 137.277C64.3524 137.277 63.7858 137.269 63.2358 137.257C58.8274 137.148 55.4844 136.629 55.4844 136.002V134.066H74.3766Z" fill="#444395"/>
<path d="M74.3771 134.066V136.002C74.3771 136.707 70.1487 137.277 64.931 137.277C64.3529 137.277 63.7863 137.269 63.2363 137.257V134.066H74.3771Z" fill="#201B5F"/>
<path d="M64.9307 135.339C70.1478 135.339 74.3771 134.769 74.3771 134.066C74.3771 133.363 70.1478 132.793 64.9307 132.793C59.7137 132.793 55.4844 133.363 55.4844 134.066C55.4844 134.769 59.7137 135.339 64.9307 135.339Z" fill="#9BB5FA"/>
<path d="M64.9314 134.959C69.2946 134.959 72.8316 134.559 72.8316 134.067C72.8316 133.574 69.2946 133.175 64.9314 133.175C60.5683 133.175 57.0312 133.574 57.0312 134.067C57.0312 134.559 60.5683 134.959 64.9314 134.959Z" fill="#4856C8"/>
<path d="M74.3766 131.825V133.761C74.3766 134.466 70.1482 135.036 64.9305 135.036C64.3524 135.036 63.7858 135.028 63.2358 135.016C58.8274 134.907 55.4844 134.388 55.4844 133.761V131.825H74.3766Z" fill="#444395"/>
<path d="M74.3771 131.825V133.761C74.3771 134.466 70.1487 135.036 64.931 135.036C64.3529 135.036 63.7863 135.028 63.2363 135.016V131.825H74.3771Z" fill="#201B5F"/>
<path d="M64.9307 133.098C70.1478 133.098 74.3771 132.528 74.3771 131.825C74.3771 131.122 70.1478 130.552 64.9307 130.552C59.7137 130.552 55.4844 131.122 55.4844 131.825C55.4844 132.528 59.7137 133.098 64.9307 133.098Z" fill="#9BB5FA"/>
<path d="M64.9314 132.717C69.2946 132.717 72.8316 132.317 72.8316 131.825C72.8316 131.332 69.2946 130.933 64.9314 130.933C60.5683 130.933 57.0312 131.332 57.0312 131.825C57.0312 132.317 60.5683 132.717 64.9314 132.717Z" fill="#4856C8"/>
<path d="M120.553 145.918C124.916 145.918 128.453 145.518 128.453 145.026C128.453 144.533 124.916 144.134 120.553 144.134C116.189 144.134 112.652 144.533 112.652 145.026C112.652 145.518 116.189 145.918 120.553 145.918Z" fill="#4856C8"/>
<path d="M129.998 142.784V144.72C129.998 145.425 125.769 145.995 120.552 145.995C119.973 145.995 119.407 145.987 118.857 145.975C114.449 145.866 111.105 145.347 111.105 144.72V142.784H129.998Z" fill="#444395"/>
<path d="M129.998 142.784V144.72C129.998 145.425 125.77 145.995 120.552 145.995C119.974 145.995 119.407 145.987 118.857 145.975V142.784H129.998Z" fill="#201B5F"/>
<path d="M120.554 144.057C125.771 144.057 130 143.487 130 142.784C130 142.081 125.771 141.511 120.554 141.511C115.337 141.511 111.107 142.081 111.107 142.784C111.107 143.487 115.337 144.057 120.554 144.057Z" fill="#9BB5FA"/>
<path d="M120.553 143.676C124.916 143.676 128.453 143.276 128.453 142.784C128.453 142.291 124.916 141.892 120.553 141.892C116.189 141.892 112.652 142.291 112.652 142.784C112.652 143.276 116.189 143.676 120.553 143.676Z" fill="#4856C8"/>
<path d="M129.998 140.462V142.398C129.998 143.102 125.769 143.672 120.552 143.672C119.973 143.672 119.407 143.665 118.857 143.652C114.449 143.544 111.105 143.024 111.105 142.398V140.462H129.998Z" fill="#444395"/>
<path d="M129.998 140.462V142.398C129.998 143.102 125.77 143.672 120.552 143.672C119.974 143.672 119.407 143.665 118.857 143.652V140.462H129.998Z" fill="#201B5F"/>
<path d="M120.552 141.735C125.769 141.735 129.998 141.165 129.998 140.462C129.998 139.758 125.769 139.188 120.552 139.188C115.335 139.188 111.105 139.758 111.105 140.462C111.105 141.165 115.335 141.735 120.552 141.735Z" fill="#9BB5FA"/>
<path d="M120.553 141.353C124.916 141.353 128.453 140.954 128.453 140.461C128.453 139.969 124.916 139.569 120.553 139.569C116.189 139.569 112.652 139.969 112.652 140.461C112.652 140.954 116.189 141.353 120.553 141.353Z" fill="#4856C8"/>
<path d="M129.998 138.219V140.155C129.998 140.859 125.769 141.429 120.552 141.429C119.973 141.429 119.407 141.421 118.857 141.409C114.449 141.301 111.105 140.781 111.105 140.155V138.219H129.998Z" fill="#444395"/>
<path d="M129.998 138.219V140.155C129.998 140.859 125.77 141.429 120.552 141.429C119.974 141.429 119.407 141.421 118.857 141.409V138.219H129.998Z" fill="#201B5F"/>
<path d="M120.552 139.491C125.769 139.491 129.998 138.921 129.998 138.218C129.998 137.515 125.769 136.945 120.552 136.945C115.335 136.945 111.105 137.515 111.105 138.218C111.105 138.921 115.335 139.491 120.552 139.491Z" fill="#9BB5FA"/>
<path d="M120.553 139.111C124.916 139.111 128.453 138.712 128.453 138.219C128.453 137.727 124.916 137.327 120.553 137.327C116.189 137.327 112.652 137.727 112.652 138.219C112.652 138.712 116.189 139.111 120.553 139.111Z" fill="#4856C8"/>
<path d="M129.998 135.979V137.915C129.998 138.62 125.769 139.19 120.552 139.19C119.973 139.19 119.407 139.182 118.857 139.17C114.449 139.061 111.105 138.542 111.105 137.915V135.979H129.998Z" fill="#444395"/>
<path d="M129.998 135.979V137.915C129.998 138.62 125.77 139.19 120.552 139.19C119.974 139.19 119.407 139.182 118.857 139.17V135.979H129.998Z" fill="#201B5F"/>
<path d="M120.552 137.252C125.769 137.252 129.998 136.682 129.998 135.979C129.998 135.276 125.769 134.706 120.552 134.706C115.335 134.706 111.105 135.276 111.105 135.979C111.105 136.682 115.335 137.252 120.552 137.252Z" fill="#9BB5FA"/>
<path d="M120.553 136.871C124.916 136.871 128.453 136.472 128.453 135.979C128.453 135.486 124.916 135.087 120.553 135.087C116.189 135.087 112.652 135.486 112.652 135.979C112.652 136.472 116.189 136.871 120.553 136.871Z" fill="#4856C8"/>
<path d="M129.998 133.814V135.75C129.998 136.455 125.769 137.025 120.552 137.025C119.973 137.025 119.407 137.017 118.857 137.005C114.449 136.896 111.105 136.377 111.105 135.75V133.814H129.998Z" fill="#444395"/>
<path d="M129.998 133.814V135.75C129.998 136.455 125.77 137.025 120.552 137.025C119.974 137.025 119.407 137.017 118.857 137.005V133.814H129.998Z" fill="#201B5F"/>
<path d="M120.552 135.086C125.769 135.086 129.998 134.516 129.998 133.813C129.998 133.11 125.769 132.54 120.552 132.54C115.335 132.54 111.105 133.11 111.105 133.813C111.105 134.516 115.335 135.086 120.552 135.086Z" fill="#9BB5FA"/>
<path d="M120.553 134.706C124.916 134.706 128.453 134.307 128.453 133.814C128.453 133.321 124.916 132.922 120.553 132.922C116.189 132.922 112.652 133.321 112.652 133.814C112.652 134.307 116.189 134.706 120.553 134.706Z" fill="#4856C8"/>
<path d="M129.998 131.571V133.507C129.998 134.212 125.769 134.782 120.552 134.782C119.973 134.782 119.407 134.774 118.857 134.762C114.449 134.653 111.105 134.134 111.105 133.507V131.571H129.998Z" fill="#444395"/>
<path d="M129.998 131.571V133.507C129.998 134.212 125.77 134.782 120.552 134.782C119.974 134.782 119.407 134.774 118.857 134.762V131.571H129.998Z" fill="#201B5F"/>
<path d="M120.552 132.844C125.769 132.844 129.998 132.274 129.998 131.571C129.998 130.868 125.769 130.298 120.552 130.298C115.335 130.298 111.105 130.868 111.105 131.571C111.105 132.274 115.335 132.844 120.552 132.844Z" fill="#9BB5FA"/>
<path d="M120.553 132.463C124.916 132.463 128.453 132.063 128.453 131.571C128.453 131.078 124.916 130.679 120.553 130.679C116.189 130.679 112.652 131.078 112.652 131.571C112.652 132.063 116.189 132.463 120.553 132.463Z" fill="#4856C8"/>
<path d="M129.998 129.33V131.266C129.998 131.97 125.769 132.54 120.552 132.54C119.973 132.54 119.407 132.533 118.857 132.521C114.449 132.412 111.105 131.893 111.105 131.266V129.33H129.998Z" fill="#444395"/>
<path d="M129.998 129.33V131.266C129.998 131.97 125.77 132.54 120.552 132.54C119.974 132.54 119.407 132.533 118.857 132.521V129.33H129.998Z" fill="#201B5F"/>
<path d="M120.552 130.602C125.769 130.602 129.998 130.032 129.998 129.329C129.998 128.626 125.769 128.056 120.552 128.056C115.335 128.056 111.105 128.626 111.105 129.329C111.105 130.032 115.335 130.602 120.552 130.602Z" fill="#9BB5FA"/>
<path d="M120.553 130.221C124.916 130.221 128.453 129.821 128.453 129.329C128.453 128.836 124.916 128.437 120.553 128.437C116.189 128.437 112.652 128.836 112.652 129.329C112.652 129.821 116.189 130.221 120.553 130.221Z" fill="#4856C8"/>
<path d="M129.998 127.162V129.098C129.998 129.803 125.769 130.372 120.552 130.372C119.973 130.372 119.407 130.365 118.857 130.353C114.449 130.244 111.105 129.725 111.105 129.098V127.162H129.998Z" fill="#444395"/>
<path d="M129.998 127.162V129.098C129.998 129.803 125.77 130.372 120.552 130.372C119.974 130.372 119.407 130.365 118.857 130.353V127.162H129.998Z" fill="#201B5F"/>
<path d="M120.552 128.434C125.769 128.434 129.998 127.864 129.998 127.161C129.998 126.458 125.769 125.888 120.552 125.888C115.335 125.888 111.105 126.458 111.105 127.161C111.105 127.864 115.335 128.434 120.552 128.434Z" fill="#9BB5FA"/>
<path d="M120.553 128.054C124.916 128.054 128.453 127.654 128.453 127.162C128.453 126.669 124.916 126.27 120.553 126.27C116.189 126.27 112.652 126.669 112.652 127.162C112.652 127.654 116.189 128.054 120.553 128.054Z" fill="#4856C8"/>
<path d="M129.998 124.979V126.915C129.998 127.62 125.769 128.19 120.552 128.19C119.973 128.19 119.407 128.182 118.857 128.17C114.449 128.061 111.105 127.542 111.105 126.915V124.979H129.998Z" fill="#444395"/>
<path d="M129.998 124.979V126.915C129.998 127.62 125.77 128.19 120.552 128.19C119.974 128.19 119.407 128.182 118.857 128.17V124.979H129.998Z" fill="#201B5F"/>
<path d="M120.552 126.252C125.769 126.252 129.998 125.682 129.998 124.979C129.998 124.276 125.769 123.706 120.552 123.706C115.335 123.706 111.105 124.276 111.105 124.979C111.105 125.682 115.335 126.252 120.552 126.252Z" fill="#9BB5FA"/>
<path d="M120.553 125.871C124.916 125.871 128.453 125.472 128.453 124.979C128.453 124.486 124.916 124.087 120.553 124.087C116.189 124.087 112.652 124.486 112.652 124.979C112.652 125.472 116.189 125.871 120.553 125.871Z" fill="#4856C8"/>
<path d="M104.771 148.189C109.134 148.189 112.671 147.79 112.671 147.297C112.671 146.805 109.134 146.405 104.771 146.405C100.408 146.405 96.8711 146.805 96.8711 147.297C96.8711 147.79 100.408 148.189 104.771 148.189Z" fill="#4856C8"/>
<path d="M114.216 145.056V146.992C114.216 147.696 109.988 148.266 104.77 148.266C104.192 148.266 103.626 148.258 103.076 148.246C98.6673 148.138 95.3242 147.618 95.3242 146.992V145.056H114.216Z" fill="#444395"/>
<path d="M114.217 145.056V146.992C114.217 147.696 109.989 148.266 104.771 148.266C104.193 148.266 103.626 148.258 103.076 148.246V145.056H114.217Z" fill="#201B5F"/>
<path d="M104.773 146.328C109.99 146.328 114.219 145.758 114.219 145.055C114.219 144.352 109.99 143.782 104.773 143.782C99.5555 143.782 95.3262 144.352 95.3262 145.055C95.3262 145.758 99.5555 146.328 104.773 146.328Z" fill="#9BB5FA"/>
<path d="M104.771 145.947C109.134 145.947 112.671 145.548 112.671 145.055C112.671 144.562 109.134 144.163 104.771 144.163C100.408 144.163 96.8711 144.562 96.8711 145.055C96.8711 145.548 100.408 145.947 104.771 145.947Z" fill="#4856C8"/>
<path d="M114.216 142.732V144.668C114.216 145.373 109.988 145.943 104.77 145.943C104.192 145.943 103.626 145.935 103.076 145.923C98.6673 145.814 95.3242 145.295 95.3242 144.668V142.732H114.216Z" fill="#444395"/>
<path d="M114.217 142.732V144.668C114.217 145.373 109.989 145.943 104.771 145.943C104.193 145.943 103.626 145.935 103.076 145.923V142.732H114.217Z" fill="#201B5F"/>
<path d="M104.773 144.005C109.99 144.005 114.219 143.435 114.219 142.732C114.219 142.029 109.99 141.459 104.773 141.459C99.5555 141.459 95.3262 142.029 95.3262 142.732C95.3262 143.435 99.5555 144.005 104.773 144.005Z" fill="#9BB5FA"/>
<path d="M104.771 143.624C109.134 143.624 112.671 143.224 112.671 142.732C112.671 142.239 109.134 141.84 104.771 141.84C100.408 141.84 96.8711 142.239 96.8711 142.732C96.8711 143.224 100.408 143.624 104.771 143.624Z" fill="#4856C8"/>
<path d="M114.216 140.489V142.425C114.216 143.13 109.988 143.7 104.77 143.7C104.192 143.7 103.626 143.692 103.076 143.68C98.6673 143.571 95.3242 143.052 95.3242 142.425V140.489H114.216Z" fill="#444395"/>
<path d="M114.217 140.489V142.425C114.217 143.13 109.989 143.7 104.771 143.7C104.193 143.7 103.626 143.692 103.076 143.68V140.489H114.217Z" fill="#201B5F"/>
<path d="M104.773 141.762C109.99 141.762 114.219 141.192 114.219 140.489C114.219 139.786 109.99 139.216 104.773 139.216C99.5555 139.216 95.3262 139.786 95.3262 140.489C95.3262 141.192 99.5555 141.762 104.773 141.762Z" fill="#9BB5FA"/>
<path d="M104.771 141.382C109.134 141.382 112.671 140.982 112.671 140.49C112.671 139.997 109.134 139.598 104.771 139.598C100.408 139.598 96.8711 139.997 96.8711 140.49C96.8711 140.982 100.408 141.382 104.771 141.382Z" fill="#4856C8"/>
<path d="M114.216 138.251V140.187C114.216 140.891 109.988 141.461 104.77 141.461C104.192 141.461 103.626 141.454 103.076 141.441C98.6673 141.333 95.3242 140.813 95.3242 140.187V138.251H114.216Z" fill="#444395"/>
<path d="M114.217 138.251V140.187C114.217 140.891 109.989 141.461 104.771 141.461C104.193 141.461 103.626 141.454 103.076 141.441V138.251H114.217Z" fill="#201B5F"/>
<path d="M104.773 139.523C109.99 139.523 114.219 138.953 114.219 138.25C114.219 137.547 109.99 136.977 104.773 136.977C99.5555 136.977 95.3262 137.547 95.3262 138.25C95.3262 138.953 99.5555 139.523 104.773 139.523Z" fill="#9BB5FA"/>
<path d="M104.771 139.142C109.134 139.142 112.671 138.743 112.671 138.25C112.671 137.758 109.134 137.358 104.771 137.358C100.408 137.358 96.8711 137.758 96.8711 138.25C96.8711 138.743 100.408 139.142 104.771 139.142Z" fill="#4856C8"/>
<path d="M114.216 136.085V138.021C114.216 138.725 109.988 139.295 104.77 139.295C104.192 139.295 103.626 139.288 103.076 139.275C98.6673 139.167 95.3242 138.647 95.3242 138.021V136.085H114.216Z" fill="#444395"/>
<path d="M114.217 136.085V138.021C114.217 138.725 109.989 139.295 104.771 139.295C104.193 139.295 103.626 139.288 103.076 139.275V136.085H114.217Z" fill="#201B5F"/>
<path d="M104.773 137.358C109.99 137.358 114.219 136.788 114.219 136.085C114.219 135.381 109.99 134.812 104.773 134.812C99.5555 134.812 95.3262 135.381 95.3262 136.085C95.3262 136.788 99.5555 137.358 104.773 137.358Z" fill="#9BB5FA"/>
<path d="M104.771 136.976C109.134 136.976 112.671 136.577 112.671 136.084C112.671 135.592 109.134 135.192 104.771 135.192C100.408 135.192 96.8711 135.592 96.8711 136.084C96.8711 136.577 100.408 136.976 104.771 136.976Z" fill="#4856C8"/>
<path d="M114.216 133.843V135.779C114.216 136.483 109.988 137.053 104.77 137.053C104.192 137.053 103.626 137.045 103.076 137.033C98.6673 136.925 95.3242 136.405 95.3242 135.779V133.843H114.216Z" fill="#444395"/>
<path d="M114.217 133.843V135.779C114.217 136.483 109.989 137.053 104.771 137.053C104.193 137.053 103.626 137.045 103.076 137.033V133.843H114.217Z" fill="#201B5F"/>
<path d="M104.773 135.115C109.99 135.115 114.219 134.546 114.219 133.842C114.219 133.139 109.99 132.569 104.773 132.569C99.5555 132.569 95.3262 133.139 95.3262 133.842C95.3262 134.546 99.5555 135.115 104.773 135.115Z" fill="#9BB5FA"/>
<path d="M104.771 134.733C109.134 134.733 112.671 134.334 112.671 133.841C112.671 133.349 109.134 132.949 104.771 132.949C100.408 132.949 96.8711 133.349 96.8711 133.841C96.8711 134.334 100.408 134.733 104.771 134.733Z" fill="#4856C8"/>
<path d="M114.216 131.601V133.537C114.216 134.241 109.988 134.811 104.77 134.811C104.192 134.811 103.626 134.803 103.076 134.791C98.6673 134.683 95.3242 134.163 95.3242 133.537V131.601H114.216Z" fill="#444395"/>
<path d="M114.217 131.601V133.537C114.217 134.241 109.989 134.811 104.771 134.811C104.193 134.811 103.626 134.803 103.076 134.791V131.601H114.217Z" fill="#201B5F"/>
<path d="M104.773 132.873C109.99 132.873 114.219 132.303 114.219 131.6C114.219 130.897 109.99 130.327 104.773 130.327C99.5555 130.327 95.3262 130.897 95.3262 131.6C95.3262 132.303 99.5555 132.873 104.773 132.873Z" fill="#9BB5FA"/>
<path d="M104.771 132.492C109.134 132.492 112.671 132.093 112.671 131.6C112.671 131.107 109.134 130.708 104.771 130.708C100.408 130.708 96.8711 131.107 96.8711 131.6C96.8711 132.093 100.408 132.492 104.771 132.492Z" fill="#4856C8"/>
<path d="M114.216 129.434V131.37C114.216 132.074 109.988 132.644 104.77 132.644C104.192 132.644 103.626 132.636 103.076 132.624C98.6673 132.516 95.3242 131.996 95.3242 131.37V129.434H114.216Z" fill="#444395"/>
<path d="M114.217 129.434V131.37C114.217 132.074 109.989 132.644 104.771 132.644C104.193 132.644 103.626 132.636 103.076 132.624V129.434H114.217Z" fill="#201B5F"/>
<path d="M104.773 130.705C109.99 130.705 114.219 130.135 114.219 129.432C114.219 128.729 109.99 128.159 104.773 128.159C99.5555 128.159 95.3262 128.729 95.3262 129.432C95.3262 130.135 99.5555 130.705 104.773 130.705Z" fill="#9BB5FA"/>
<path d="M104.771 130.324C109.134 130.324 112.671 129.925 112.671 129.432C112.671 128.939 109.134 128.54 104.771 128.54C100.408 128.54 96.8711 128.939 96.8711 129.432C96.8711 129.925 100.408 130.324 104.771 130.324Z" fill="#4856C8"/>
<path d="M61.1872 142.597V144.533C61.1872 145.237 56.9588 145.807 51.741 145.807C51.1629 145.807 50.5964 145.799 50.0464 145.787C45.638 145.679 42.2949 145.159 42.2949 144.533V142.597H61.1872Z" fill="#444395"/>
<path d="M61.1896 142.597V144.533C61.1896 145.237 56.9612 145.807 51.7435 145.807C51.1654 145.807 50.5988 145.799 50.0488 145.787V142.597H61.1896Z" fill="#201B5F"/>
<path d="M51.7432 143.869C56.9603 143.869 61.1896 143.299 61.1896 142.596C61.1896 141.893 56.9603 141.323 51.7432 141.323C46.5262 141.323 42.2969 141.893 42.2969 142.596C42.2969 143.299 46.5262 143.869 51.7432 143.869Z" fill="#9BB5FA"/>
<path d="M51.742 143.488C56.1051 143.488 59.6421 143.089 59.6421 142.596C59.6421 142.103 56.1051 141.704 51.742 141.704C47.3788 141.704 43.8418 142.103 43.8418 142.596C43.8418 143.089 47.3788 143.488 51.742 143.488Z" fill="#4856C8"/>
<path d="M61.1872 140.354V142.29C61.1872 142.995 56.9588 143.565 51.741 143.565C51.1629 143.565 50.5964 143.557 50.0464 143.545C45.638 143.436 42.2949 142.917 42.2949 142.29V140.354H61.1872Z" fill="#444395"/>
<path d="M61.1896 140.354V142.29C61.1896 142.995 56.9612 143.565 51.7435 143.565C51.1654 143.565 50.5988 143.557 50.0488 143.545V140.354H61.1896Z" fill="#201B5F"/>
<path d="M51.7432 141.627C56.9603 141.627 61.1896 141.057 61.1896 140.354C61.1896 139.651 56.9603 139.081 51.7432 139.081C46.5262 139.081 42.2969 139.651 42.2969 140.354C42.2969 141.057 46.5262 141.627 51.7432 141.627Z" fill="#9BB5FA"/>
<path d="M51.742 141.246C56.1051 141.246 59.6421 140.847 59.6421 140.354C59.6421 139.861 56.1051 139.462 51.742 139.462C47.3788 139.462 43.8418 139.861 43.8418 140.354C43.8418 140.847 47.3788 141.246 51.742 141.246Z" fill="#4856C8"/>
<path d="M75.0153 144.983V146.919C75.0153 147.624 70.7869 148.194 65.5692 148.194C64.9911 148.194 64.4245 148.186 63.8745 148.174C59.4661 148.065 56.123 147.546 56.123 146.919V144.983H75.0153Z" fill="#444395"/>
<path d="M75.0138 144.983V146.919C75.0138 147.624 70.7854 148.194 65.5677 148.194C64.9896 148.194 64.423 148.186 63.873 148.174V144.983H75.0138Z" fill="#201B5F"/>
<path d="M65.5694 146.256C70.7865 146.256 75.0158 145.686 75.0158 144.983C75.0158 144.28 70.7865 143.71 65.5694 143.71C60.3523 143.71 56.123 144.28 56.123 144.983C56.123 145.686 60.3523 146.256 65.5694 146.256Z" fill="#9BB5FA"/>
<path d="M65.5701 145.875C69.9332 145.875 73.4703 145.475 73.4703 144.983C73.4703 144.49 69.9332 144.091 65.5701 144.091C61.207 144.091 57.6699 144.49 57.6699 144.983C57.6699 145.475 61.207 145.875 65.5701 145.875Z" fill="#4856C8"/>
<path d="M75.0153 142.741V144.677C75.0153 145.382 70.7869 145.952 65.5692 145.952C64.9911 145.952 64.4245 145.944 63.8745 145.932C59.4661 145.823 56.123 145.304 56.123 144.677V142.741H75.0153Z" fill="#444395"/>
<path d="M75.0138 142.741V144.677C75.0138 145.382 70.7854 145.952 65.5677 145.952C64.9896 145.952 64.423 145.944 63.873 145.932V142.741H75.0138Z" fill="#201B5F"/>
<path d="M65.5694 144.014C70.7865 144.014 75.0158 143.444 75.0158 142.741C75.0158 142.038 70.7865 141.468 65.5694 141.468C60.3523 141.468 56.123 142.038 56.123 142.741C56.123 143.444 60.3523 144.014 65.5694 144.014Z" fill="#9BB5FA"/>
<path d="M65.5701 143.634C69.9332 143.634 73.4703 143.234 73.4703 142.742C73.4703 142.249 69.9332 141.85 65.5701 141.85C61.207 141.85 57.6699 142.249 57.6699 142.742C57.6699 143.234 61.207 143.634 65.5701 143.634Z" fill="#4856C8"/>
<path d="M75.0153 140.419V142.355C75.0153 143.059 70.7869 143.629 65.5692 143.629C64.9911 143.629 64.4245 143.622 63.8745 143.609C59.4661 143.501 56.123 142.981 56.123 142.355V140.419H75.0153Z" fill="#444395"/>
<path d="M75.0138 140.419V142.355C75.0138 143.059 70.7854 143.629 65.5677 143.629C64.9896 143.629 64.423 143.622 63.873 143.609V140.419H75.0138Z" fill="#201B5F"/>
<path d="M65.5694 141.692C70.7865 141.692 75.0158 141.122 75.0158 140.419C75.0158 139.715 70.7865 139.146 65.5694 139.146C60.3523 139.146 56.123 139.715 56.123 140.419C56.123 141.122 60.3523 141.692 65.5694 141.692Z" fill="#9BB5FA"/>
<path d="M65.5701 141.31C69.9333 141.31 73.4703 140.911 73.4703 140.418C73.4703 139.926 69.9333 139.526 65.5701 139.526C61.207 139.526 57.6699 139.926 57.6699 140.418C57.6699 140.911 61.207 141.31 65.5701 141.31Z" fill="#4856C8"/>
<path d="M100.121 144.983V146.919C100.121 147.624 95.8924 148.194 90.6746 148.194C90.0965 148.194 89.53 148.186 88.98 148.174C84.5716 148.065 81.2285 147.546 81.2285 146.919V144.983H100.121Z" fill="#444395"/>
<path d="M100.121 144.983V146.919C100.121 147.624 95.8929 148.194 90.6751 148.194C90.097 148.194 89.5305 148.186 88.9805 148.174V144.983H100.121Z" fill="#201B5F"/>
<path d="M90.6749 146.256C95.892 146.256 100.121 145.686 100.121 144.983C100.121 144.28 95.892 143.71 90.6749 143.71C85.4578 143.71 81.2285 144.28 81.2285 144.983C81.2285 145.686 85.4578 146.256 90.6749 146.256Z" fill="#9BB5FA"/>
<path d="M90.6756 145.875C95.0387 145.875 98.5758 145.475 98.5758 144.983C98.5758 144.49 95.0387 144.091 90.6756 144.091C86.3124 144.091 82.7754 144.49 82.7754 144.983C82.7754 145.475 86.3124 145.875 90.6756 145.875Z" fill="#4856C8"/>
<path d="M100.121 142.741V144.677C100.121 145.382 95.8924 145.952 90.6746 145.952C90.0965 145.952 89.53 145.944 88.98 145.932C84.5716 145.823 81.2285 145.304 81.2285 144.677V142.741H100.121Z" fill="#444395"/>
<path d="M100.121 142.741V144.677C100.121 145.382 95.8929 145.952 90.6751 145.952C90.097 145.952 89.5305 145.944 88.9805 145.932V142.741H100.121Z" fill="#201B5F"/>
<path d="M90.6749 144.014C95.892 144.014 100.121 143.444 100.121 142.741C100.121 142.038 95.892 141.468 90.6749 141.468C85.4578 141.468 81.2285 142.038 81.2285 142.741C81.2285 143.444 85.4578 144.014 90.6749 144.014Z" fill="#9BB5FA"/>
<path d="M90.6756 143.634C95.0387 143.634 98.5758 143.234 98.5758 142.742C98.5758 142.249 95.0387 141.85 90.6756 141.85C86.3124 141.85 82.7754 142.249 82.7754 142.742C82.7754 143.234 86.3124 143.634 90.6756 143.634Z" fill="#4856C8"/>
<path d="M100.121 140.419V142.355C100.121 143.059 95.8924 143.629 90.6746 143.629C90.0965 143.629 89.53 143.622 88.98 143.609C84.5716 143.501 81.2285 142.981 81.2285 142.355V140.419H100.121Z" fill="#444395"/>
<path d="M100.121 140.419V142.355C100.121 143.059 95.8929 143.629 90.6751 143.629C90.097 143.629 89.5305 143.622 88.9805 143.609V140.419H100.121Z" fill="#201B5F"/>
<path d="M90.6768 141.692C95.8939 141.692 100.123 141.122 100.123 140.419C100.123 139.715 95.8939 139.146 90.6768 139.146C85.4598 139.146 81.2305 139.715 81.2305 140.419C81.2305 141.122 85.4598 141.692 90.6768 141.692Z" fill="#9BB5FA"/>
<path d="M90.6756 141.31C95.0387 141.31 98.5758 140.911 98.5758 140.418C98.5758 139.926 95.0387 139.526 90.6756 139.526C86.3124 139.526 82.7754 139.926 82.7754 140.418C82.7754 140.911 86.3124 141.31 90.6756 141.31Z" fill="#4856C8"/>
<path d="M53.1657 38.1103C53.1657 38.1103 66.1307 29.7755 73.8679 15.2338C73.8679 15.2338 65.9835 13.3285 65.6907 13.5249C65.3978 13.7214 54.7109 20.3343 54.7109 20.3343C54.7109 20.3343 49.332 29.2387 49.332 29.5661C49.332 29.8935 53.1657 38.1103 53.1657 38.1103Z" fill="#110F51"/>
<path d="M104.969 53.4776C105.425 55.3459 105.379 57.193 105.109 59.0897C104.956 60.1603 104.233 60.9932 103.573 61.8827C102.197 63.7386 100.575 65.4391 98.7541 66.9317C96.7622 68.5643 94.3564 70.0026 91.6952 70.0219C90.5491 70.0301 89.2759 69.6808 88.7272 68.7499C88.1344 67.7442 88.6098 66.4955 89.1995 65.4882C90.5804 63.1294 92.3582 61.4786 96.0109 57.7388C95.1511 56.8589 94.693 55.6934 94.5147 54.5184C94.3363 53.3448 94.419 52.1511 94.5277 50.9695C90.993 49.5786 87.6961 47.6686 84.8008 45.3335L86.5826 40.8135C90.2146 40.9805 94.6262 40.6668 97.9653 42.7704C99.4064 43.6784 100.51 44.974 101.477 46.3166C103.056 48.5083 104.343 50.9091 104.969 53.4776Z" fill="#EC6161"/>
<path d="M111.527 69.0744C110.162 72.2974 108.75 75.5728 106.375 78.2472C105.762 78.9366 104.997 79.6247 104.035 79.6918C102.54 79.7991 101.11 78.3909 101.492 76.2756L106.332 69.7074C107.934 68.9979 109.781 68.7739 111.527 69.0744Z" fill="#FD7069"/>
<path d="M117.127 62.7601C116.462 66.8845 115.656 70.9498 114.773 75.0447C114.418 76.685 113.916 78.3629 113.739 80.0261C113.622 81.1474 113.519 82.5571 112.352 83.2371C110.693 84.2028 109.123 83.1445 108.433 81.7C107.724 80.2139 107.699 78.5655 107.779 76.9747C107.85 75.5704 108.376 74.3539 108.659 72.9778C108.766 72.4561 108.823 71.6687 109.265 71.2757C105.15 74.9374 100.767 78.3415 96.1555 81.4559C94.8739 82.3223 92.7919 83.3363 91.5972 81.7805C91.184 81.2413 91.0942 80.5425 91.1275 79.8826C91.2217 78.0236 92.1236 76.2719 93.2065 74.7402C95.2899 71.7945 98.0313 70.4616 98.2984 70.1075C98.6411 69.6529 100.096 63.5264 103.506 58.2401C100.157 53.8246 97.9374 48.7654 96.083 43.6512C94.1287 44.6196 91.4218 45.0032 89.234 44.9147C88.2917 45.6991 87.1952 46.2955 86.0632 46.6757C86.562 48.2946 87.0418 49.8022 87.2666 51.4788C87.5319 53.4558 87.7233 55.4408 88.0408 57.4125C88.6584 61.2472 90.3127 64.7666 90.7143 68.6429C90.9173 70.5984 91.0362 72.6344 90.6432 74.5618C90.3663 75.9245 89.7676 77.2671 89.698 78.6473C89.6168 80.2461 89.1412 81.4827 87.8045 82.6228C86.546 83.6985 84.5554 84.3356 83.1288 83.4584C81.389 82.388 81.3585 79.8571 80.9627 78.1644C78.9061 69.3526 77.25 67.185 75.9332 62.9854C74.7081 59.0743 72.9277 55.5187 70.6239 52.0046C68.3056 48.4677 65.3625 45.3103 63.5038 41.5039C62.5173 39.4806 61.951 37.5398 60.9811 35.2992C58.1988 35.9162 55.3833 36.4057 52.5488 36.7692L54.5713 28.613C55.2733 25.5458 55.3862 21.3165 58.3583 18.9104C59.637 17.8747 60.7051 17.549 67.5749 14.8571C68.8558 14.3555 69.2474 14.3732 70.305 14.7391C74.7513 16.2738 77.4819 17.5784 96.3252 26.0164C100.566 27.9156 106.099 29.3829 108.594 33.3852C110.192 35.9495 110.273 37.398 114.418 48.811C116.171 53.6422 117.964 57.5735 117.127 62.7601Z" fill="#FF8F8F"/>
<path d="M73.8674 15.2332C53.1029 17.5134 53.1652 38.1097 53.1652 38.1097C53.1652 38.1097 46.5728 36.6075 45.3405 34.0055C44.1081 31.4021 48.0517 15.9736 56.4303 12.7251C64.8103 9.47658 73.8674 15.2332 73.8674 15.2332Z" fill="#444395"/>
<path d="M100.973 71.5347C99.4364 71.013 97.6922 71.0747 96.1814 71.6488C98.1383 70.0958 98.2348 70.4468 98.4519 69.767C99.7292 65.8062 101.218 61.7865 103.506 58.2402C100.157 53.8248 97.9372 48.7655 96.0829 43.6514C94.1285 44.6197 91.4217 45.0033 89.2338 44.9148C88.3364 45.6619 87.2867 46.2507 86.1573 46.6423C84.5712 44.7901 82.9865 42.9378 81.4004 41.0868C82.0064 41.7937 84.1145 42.1022 85.0134 42.3034C86.1066 42.5462 87.1287 42.8707 88.2465 42.463C88.9294 42.2149 89.5195 41.6113 89.4716 40.9326C90.6605 41.8393 92.2712 42.0834 93.8037 42.235C95.5218 42.4053 97.2471 42.4992 98.9739 42.518C98.5737 42.6065 98.4287 43.0625 98.4055 43.4434C98.3258 44.723 98.7912 45.9784 99.3363 47.1574C101.102 50.9773 103.796 54.4257 107.161 57.1766C102.642 60.5673 100.215 66.1979 100.973 71.5347Z" fill="#FD7069"/>
<path d="M108.723 71.7756C108.65 71.7459 108.617 71.667 108.65 71.5998C109.561 69.6954 110.443 67.748 111.273 65.8113C113.988 59.4726 114.017 57.0284 113.437 53.2121C112.562 47.4509 110.75 41.8644 108.053 36.6084C108.019 36.5418 108.05 36.4623 108.121 36.4306C108.194 36.3996 108.279 36.4277 108.313 36.4938C111.023 41.7746 112.843 47.3868 113.723 53.1751C114.487 58.1983 114.099 60.8683 108.913 71.7077C108.88 71.7757 108.794 71.8052 108.723 71.7756Z" fill="#FD7069"/>
<path d="M62.9685 28.4746C62.7235 32.4281 62.4974 36.1308 62.8337 40.0067C62.1987 38.4696 61.6753 36.8963 61.0156 35.3794C61.6666 33.0778 62.3176 30.7762 62.9685 28.4746Z" fill="#FD7069"/>
<path d="M87.1195 77.9681C86.9523 77.2 86.7496 76.4227 86.3108 75.7524C85.6581 74.7554 84.5182 74.0787 83.2983 73.787C81.808 73.4308 81.235 74.0985 81.2116 75.4783C81.1743 77.6727 81.5386 79.8692 82.2419 81.9652C82.2786 82.0745 83.3422 82.1177 83.4822 82.1273C84.7454 82.2139 85.9227 82.1135 87.0087 81.4456C87.1704 81.3462 87.1976 81.2934 87.2168 81.1317C87.3461 80.0434 87.3534 79.043 87.1195 77.9681Z" fill="#F9CACA"/>
<defs>
<linearGradient id="paint0_linear_125_4410" x1="127.492" y1="114.081" x2="50.9734" y2="47.3772" gradientUnits="userSpaceOnUse">
<stop stop-color="#ACCAF6"/>
<stop offset="1" stop-color="#F3EAF0"/>
</linearGradient>
<linearGradient id="paint1_linear_125_4410" x1="87.6582" y1="122.204" x2="120.61" y2="122.204" gradientUnits="userSpaceOnUse">
<stop stop-color="#677FF3"/>
<stop offset="1" stop-color="#91A9FB"/>
</linearGradient>
<linearGradient id="paint2_linear_125_4410" x1="105.536" y1="91.2697" x2="104.876" y2="96.5064" gradientUnits="userSpaceOnUse">
<stop stop-color="#07071F"/>
<stop offset="1" stop-color="#1E1873"/>
</linearGradient>
</defs>
</svg>
