<svg width="68" height="68" viewBox="0 0 68 68" fill="none" xmlns="http://www.w3.org/2000/svg">
<rect width="68" height="68" rx="34" fill="#FFF8ED"/>
<g clip-path="url(#clip0_125_4984)">
<path d="M58.1203 45.8842V19.8644C58.1203 18.0262 56.6302 16.5361 54.792 16.5361H13.4299C11.5916 16.5324 10.1016 18.0262 10.1016 19.8644V45.8842H58.1203Z" fill="#F43737"/>
<path d="M10.1016 45.3525V47.0859C10.1016 48.9242 11.5916 50.4142 13.4299 50.4142H54.792C56.6302 50.4142 58.1203 48.9242 58.1203 47.0859V45.3525H10.1016Z" fill="#BAD8E0"/>
<path d="M40.7591 50.4141L41.9721 55.0789H26.2441L27.4609 50.4141H40.7591Z" fill="#E9FDFF"/>
<path d="M45.8667 56.5356C45.8667 57.3406 45.2153 57.9882 44.4141 57.9882H23.8117C23.0067 57.9882 22.3516 57.3406 22.3516 56.5356C22.3516 56.1388 22.5163 55.7719 22.7746 55.5061C23.0404 55.2477 23.4073 55.083 23.8079 55.083H44.4066C45.2078 55.083 45.8592 55.7344 45.8592 56.5356H45.8667Z" fill="#BAD8E0"/>
<path d="M35.3919 47.9132C35.3919 48.6171 34.8153 49.1936 34.1115 49.1936C33.4076 49.1936 32.8311 48.6171 32.8311 47.9132C32.8311 47.2094 33.4076 46.6328 34.1115 46.6328C34.8153 46.6328 35.3919 47.2019 35.3919 47.9132Z" fill="#252528"/>
<path d="M52.8481 19.8984H15.3683C14.3386 19.8984 13.5039 20.7332 13.5039 21.7629V40.1527C13.5039 41.1824 14.3386 42.0171 15.3683 42.0171H52.8481C53.8778 42.0171 54.7125 41.1824 54.7125 40.1527V21.7629C54.7125 20.7332 53.8778 19.8984 52.8481 19.8984Z" fill="#E9FDFF"/>
<path d="M54.7125 23.5861V21.7629C54.7125 20.7333 53.8777 19.8984 52.8481 19.8984H15.3683C14.3388 19.8984 13.5039 20.7333 13.5039 21.7629V23.5861H54.7125Z" fill="#F8AE2E"/>
<path d="M45.7866 21.741C45.7866 22.2539 45.3711 22.6695 44.8582 22.6695C44.3453 22.6695 43.9297 22.2539 43.9297 21.741C43.9297 21.2281 44.3453 20.8125 44.8582 20.8125C45.3711 20.8125 45.7866 21.2243 45.7866 21.741ZM48.8154 21.741C48.8154 22.2539 48.3999 22.6695 47.8869 22.6695C47.374 22.6695 46.9585 22.2539 46.9585 21.741C46.9585 21.2281 47.374 20.8125 47.8869 20.8125C48.3999 20.8125 48.8154 21.2243 48.8154 21.741ZM51.8479 21.741C51.8479 22.2539 51.4324 22.6695 50.9195 22.6695C50.4066 22.6695 49.991 22.2539 49.991 21.741C49.991 21.2281 50.4066 20.8125 50.9195 20.8125C51.4324 20.8125 51.8479 21.2243 51.8479 21.741Z" fill="white"/>
<path d="M30.6957 21.7405C30.6957 21.9202 30.6208 22.0812 30.5047 22.201C30.3887 22.317 30.224 22.3881 30.0442 22.3881H16.0198C15.6603 22.3881 15.3721 22.0999 15.3721 21.7405C15.3721 21.5608 15.4432 21.3998 15.5593 21.28C15.6753 21.1639 15.8401 21.0928 16.0198 21.0928H30.0442C30.4037 21.0928 30.6957 21.3811 30.6957 21.7405Z" fill="white"/>
<path d="M19.8147 24.9229H16.3928C16.0475 24.9229 15.7676 25.2028 15.7676 25.5481V29.247C15.7676 29.5923 16.0475 29.8722 16.3928 29.8722H19.8147C20.16 29.8722 20.4399 29.5923 20.4399 29.247V25.5481C20.4399 25.2028 20.16 24.9229 19.8147 24.9229Z" fill="#BAD8E0"/>
<path d="M25.6819 24.9229H22.26C21.9147 24.9229 21.6348 25.2028 21.6348 25.5481V29.247C21.6348 29.5923 21.9147 29.8722 22.26 29.8722H25.6819C26.0272 29.8722 26.3071 29.5923 26.3071 29.247V25.5481C26.3071 25.2028 26.0272 24.9229 25.6819 24.9229Z" fill="#BAD8E0"/>
<path d="M31.5442 24.9229H28.1223C27.777 24.9229 27.4971 25.2028 27.4971 25.5481V29.247C27.4971 29.5923 27.777 29.8722 28.1223 29.8722H31.5442C31.8895 29.8722 32.1694 29.5923 32.1694 29.247V25.5481C32.1694 25.2028 31.8895 24.9229 31.5442 24.9229Z" fill="#BAD8E0"/>
<path d="M19.8147 31.1641H16.3928C16.0475 31.1641 15.7676 31.444 15.7676 31.7893V35.4882C15.7676 35.8335 16.0475 36.1134 16.3928 36.1134H19.8147C20.16 36.1134 20.4399 35.8335 20.4399 35.4882V31.7893C20.4399 31.444 20.16 31.1641 19.8147 31.1641Z" fill="#BAD8E0"/>
<path d="M25.6819 31.1641H22.26C21.9147 31.1641 21.6348 31.444 21.6348 31.7893V35.4882C21.6348 35.8335 21.9147 36.1134 22.26 36.1134H25.6819C26.0272 36.1134 26.3071 35.8335 26.3071 35.4882V31.7893C26.3071 31.444 26.0272 31.1641 25.6819 31.1641Z" fill="#BAD8E0"/>
<path d="M31.5442 31.1641H28.1223C27.777 31.1641 27.4971 31.444 27.4971 31.7893V35.4882C27.4971 35.8335 27.777 36.1134 28.1223 36.1134H31.5442C31.8895 36.1134 32.1694 35.8335 32.1694 35.4882V31.7893C32.1694 31.444 31.8895 31.1641 31.5442 31.1641Z" fill="#BAD8E0"/>
<path d="M32.234 37.8654C32.234 38.1013 32.0431 38.2922 31.811 38.2922H16.1916C15.9557 38.2922 15.7686 38.0976 15.7686 37.8654C15.7686 37.6333 15.9595 37.4424 16.1916 37.4424H31.811C32.0468 37.4424 32.234 37.6371 32.234 37.8654ZM32.234 40.0331C32.234 40.269 32.0431 40.4599 31.811 40.4599H16.1916C15.9557 40.4599 15.7686 40.2653 15.7686 40.0331C15.7686 39.801 15.9595 39.6101 16.1916 39.6101H31.811C32.0468 39.6101 32.234 39.8048 32.234 40.0331Z" fill="#35353A"/>
<path d="M46.4548 34.2666H45.0059C44.733 34.2666 44.5117 34.4879 44.5117 34.7608V39.3096C44.5117 39.5825 44.733 39.8038 45.0059 39.8038H46.4548C46.7277 39.8038 46.949 39.5825 46.949 39.3096V34.7608C46.949 34.4879 46.7277 34.2666 46.4548 34.2666Z" fill="#18773E"/>
<path d="M41.9657 32.8369H40.5655C40.2925 32.8369 40.0713 33.0582 40.0713 33.3311V39.31C40.0713 39.583 40.2925 39.8042 40.5655 39.8042H41.9657C42.2386 39.8042 42.4599 39.583 42.4599 39.31V33.3311C42.4599 33.0582 42.2386 32.8369 41.9657 32.8369Z" fill="#F43737"/>
<path d="M50.8202 29.9209H49.42C49.147 29.9209 48.9258 30.1422 48.9258 30.4151V39.3067C48.9258 39.5797 49.147 39.8009 49.42 39.8009H50.8202C51.0931 39.8009 51.3144 39.5797 51.3144 39.3067V30.4151C51.3144 30.1422 51.0931 29.9209 50.8202 29.9209Z" fill="#F49C1C"/>
<path d="M37.537 36.334H36.1368C35.8638 36.334 35.6426 36.5552 35.6426 36.8282V39.3066C35.6426 39.5795 35.8638 39.8008 36.1368 39.8008H37.537C37.8099 39.8008 38.0312 39.5795 38.0312 39.3066V36.8282C38.0312 36.5552 37.8099 36.334 37.537 36.334Z" fill="#A5206F"/>
<path d="M50.502 27.8425V25.9219C50.502 25.7085 50.3297 25.54 50.1201 25.54H48.1995C47.9861 25.54 47.8176 25.7085 47.8176 25.9219C47.8176 26.1316 47.9861 26.3038 48.1995 26.3038H49.2291L45.3167 30.3958C45.2868 30.422 45.2456 30.4333 45.2119 30.422L41.322 29.1678C41.0075 29.0668 40.6706 29.1529 40.4385 29.385L36.2603 33.6417C36.1106 33.7952 36.1143 34.0311 36.2603 34.1809C36.4138 34.3269 36.6534 34.3269 36.7994 34.1734L40.9776 29.9166C41.0075 29.8904 41.0487 29.8792 41.0824 29.8904L44.9723 31.1446C45.2868 31.2457 45.635 31.1558 45.8633 30.92L49.7345 26.8691V27.835C49.7345 28.0447 49.9029 28.2169 50.1163 28.2169C50.3297 28.2169 50.4982 28.0447 50.4982 27.835L50.502 27.8425Z" fill="#2D2C2C"/>
<path d="M48.4508 40.506L46.6338 42.0215L49.19 45.0863L51.0071 43.5708L48.4508 40.506Z" fill="#35353A"/>
<path d="M52.2246 43.489L57.0616 49.2883C57.8254 50.2055 57.7018 51.572 56.7846 52.3395C55.8674 53.107 54.5008 52.9797 53.7334 52.0625L48.8963 46.2632C48.1325 45.346 48.2561 43.9795 49.1733 43.212C49.6301 42.8301 50.2029 42.6691 50.757 42.7216C51.3111 42.7702 51.8427 43.0323 52.2246 43.489Z" fill="#A5206F"/>
<path d="M57.0616 49.2883C57.8254 50.2055 57.7018 51.572 56.7846 52.3395C55.8674 53.107 54.5008 52.9797 53.7334 52.0625L57.0579 49.2883H57.0616ZM48.8963 46.2632C48.1325 45.346 48.2561 43.9795 49.1733 43.212C49.6301 42.8301 50.2029 42.6691 50.757 42.7216C51.3111 42.7702 51.8427 43.0323 52.2246 43.489L48.9 46.2632H48.8963Z" fill="#F8AE2E"/>
<path d="M49.2273 29.2884C47.5201 27.2443 45.0941 26.151 42.6231 26.0724C40.5079 26.0013 38.3664 26.6827 36.6105 28.1428C32.8105 31.3101 32.2976 36.9633 35.4686 40.7671C36.9287 42.5154 38.9167 43.5637 41.0058 43.882C42.4023 44.0954 43.8474 43.9718 45.2139 43.5113C46.236 43.1669 47.2094 42.6352 48.0854 41.9015C48.9652 41.1714 49.6653 40.3066 50.182 39.3706C51.9266 36.2295 51.6608 32.2123 49.2273 29.2884ZM46.6815 40.2205C46.6216 40.2691 46.5617 40.3178 46.5018 40.3665C46.4419 40.4151 46.382 40.4601 46.3183 40.505C46.2247 40.5761 46.1311 40.6398 46.0301 40.6997C45.9814 40.7334 45.929 40.7633 45.8803 40.7933C45.8316 40.8232 45.783 40.8532 45.7305 40.8831C45.4834 41.0254 45.2289 41.1527 44.9705 41.2613C44.8432 41.3137 44.7085 41.3661 44.5812 41.411C44.4876 41.4447 44.394 41.4784 44.3004 41.5009C44.2405 41.5233 44.1768 41.5383 44.1207 41.5533C44.0121 41.587 43.8998 41.6169 43.7875 41.6356C43.649 41.6656 43.5142 41.6918 43.3794 41.7105C43.2446 41.733 43.1098 41.748 42.9713 41.7629C42.7092 41.7891 42.4472 41.7966 42.1814 41.7891C42.1626 41.7891 42.1402 41.7891 42.1215 41.7891C41.9305 41.7816 41.7433 41.7667 41.5524 41.7442C41.5187 41.7405 41.4888 41.733 41.4551 41.7292C41.2791 41.7068 41.1069 41.6768 40.9347 41.6394C40.9309 41.6394 40.9272 41.6394 40.9272 41.6394C40.7961 41.6132 40.6651 41.5795 40.5341 41.542C40.403 41.5083 40.272 41.4634 40.141 41.4185C39.8789 41.3286 39.6243 41.2238 39.3735 41.104C39.1226 40.9842 38.8793 40.8457 38.6472 40.6884C38.4113 40.5387 38.1829 40.3665 37.962 40.1793C37.8759 40.1044 37.7861 40.0258 37.7037 39.9434C37.6176 39.8611 37.5352 39.7787 37.4566 39.6963C37.3518 39.5877 37.2507 39.4717 37.1534 39.3556C36.603 38.6967 36.1987 37.9667 35.9404 37.1917C35.9141 37.1131 35.8879 37.0382 35.8655 36.9596C35.8205 36.8023 35.7794 36.6488 35.7419 36.4916C35.6371 36.0199 35.5847 35.5406 35.5809 35.0614C35.5809 34.8218 35.5884 34.586 35.6146 34.3463C35.6221 34.2677 35.6334 34.1854 35.6408 34.1067C35.6633 33.9495 35.6895 33.796 35.7195 33.6388C36.019 32.1936 36.7902 30.8384 38.0107 29.82C40.5977 27.6636 44.3154 27.7684 46.7788 29.9061C46.9585 30.0634 47.1345 30.2318 47.2992 30.4078C47.3816 30.4939 47.4602 30.5875 47.5426 30.6811C47.9806 31.209 48.3288 31.7818 48.5834 32.3883C48.6171 32.4632 48.6433 32.5381 48.6732 32.6167C49.6691 35.2374 48.9577 38.3111 46.6815 40.2092V40.2205Z" fill="#0793D8"/>
<path opacity="0.4" d="M46.6816 40.2202C46.5655 40.3176 46.442 40.4149 46.3222 40.501C46.135 40.6396 45.9366 40.7668 45.7381 40.8829C44.6674 41.5044 43.4731 41.8039 42.2863 41.7927C41.9082 41.7927 41.53 41.7552 41.1556 41.6878C39.9988 41.4819 38.8944 40.9765 37.9621 40.1828C37.7862 40.0331 37.6177 39.8721 37.4567 39.7036C37.3519 39.5988 37.2508 39.4827 37.1535 39.3629C34.7574 36.4951 35.143 32.2271 38.0146 29.831C40.8823 27.4387 45.1503 27.8243 47.5427 30.6959C49.9387 33.5637 49.5531 37.8317 46.6816 40.224V40.2202Z" fill="#F8F8FA"/>
<path d="M39.3728 41.107C39.6236 41.2268 39.8782 41.3316 40.1403 41.4215C39.8782 41.3353 39.6236 41.2305 39.3728 41.107ZM38.6465 40.6914C38.8823 40.8449 39.1257 40.9834 39.3728 41.107C39.122 40.9872 38.8786 40.8486 38.6465 40.6914ZM40.934 41.6386C41.1062 41.676 41.2784 41.7022 41.4544 41.7285C41.3533 41.7135 41.2522 41.7022 41.1549 41.6835C41.0837 41.6686 41.0051 41.6536 40.934 41.6386ZM42.1208 41.7884C41.9298 41.7809 41.7427 41.7659 41.5517 41.7434C41.7389 41.7659 41.9298 41.7809 42.1208 41.7884ZM42.1807 41.7884C42.4465 41.7958 42.7086 41.7884 42.9706 41.7621C42.7423 41.7846 42.5139 41.7958 42.2855 41.7921C42.2481 41.7921 42.2181 41.7921 42.1807 41.7921V41.7884ZM45.8834 40.7925C45.8347 40.8224 45.7898 40.8561 45.7373 40.8823C45.7898 40.8524 45.8384 40.8224 45.8871 40.7925H45.8834Z" fill="#F8F8FA"/>
<path d="M45.7334 35.0344C45.7334 36.9025 44.2059 38.4151 42.3377 38.4151C40.4695 38.4151 38.957 36.9025 38.957 35.0344C38.957 33.1662 40.4695 31.6387 42.3377 31.6387C44.2059 31.6387 45.7334 33.1662 45.7334 35.0344Z" fill="#0793D8"/>
<path d="M44.2435 35.0308C44.2435 36.0791 43.3862 36.9252 42.3417 36.9252C41.2971 36.9252 40.4473 36.0791 40.4473 35.0308C40.4473 33.9825 41.2934 33.1289 42.3417 33.1289C43.3899 33.1289 44.2435 33.9863 44.2435 35.0308Z" fill="#252528"/>
<path d="M41.982 35.9674C41.982 36.1621 41.821 36.3194 41.6263 36.3194C41.4317 36.3194 41.2744 36.1621 41.2744 35.9674C41.2744 35.7727 41.4317 35.6118 41.6263 35.6118C41.821 35.6118 41.982 35.7727 41.982 35.9674ZM44.2133 33.4253C44.2133 33.7398 43.955 33.9944 43.6405 33.9944C43.326 33.9944 43.0715 33.7398 43.0715 33.4253C43.0715 33.1109 43.326 32.8525 43.6405 32.8525C43.955 32.8525 44.2133 33.1109 44.2133 33.4253Z" fill="white"/>
<path d="M24.7543 50.7885C24.7543 54.8206 21.4934 58.0815 17.4688 58.0815C16.0798 58.0815 14.7882 57.7071 13.695 57.0257H13.6875L13.8485 56.7524L15.3984 54.1243H15.4059C16.0087 54.5061 16.7125 54.7195 17.4613 54.7195C19.629 54.7195 21.3886 52.9637 21.3886 50.7997C21.3886 48.6358 19.6253 46.8724 17.4613 46.8724H17.4314L17.5324 43.5029C19.3183 43.5254 20.9468 44.1768 22.2085 45.2738C22.4069 45.4422 22.5904 45.6182 22.7664 45.8017C22.8899 45.9402 23.0172 46.0824 23.1333 46.2285C23.2493 46.367 23.3691 46.5205 23.4702 46.6777C23.5226 46.7526 23.5788 46.8312 23.6237 46.9136C23.6761 46.9959 23.7248 47.0746 23.7697 47.1569C23.8633 47.3179 23.9532 47.4864 24.0355 47.6549L24.1254 47.8458C24.1254 47.8458 24.1404 47.8832 24.1478 47.9057C24.2077 48.0367 24.2564 48.1715 24.3088 48.31C24.3538 48.4186 24.3912 48.5309 24.4249 48.647C24.4623 48.7556 24.4923 48.8754 24.5222 48.9914C24.5597 49.1299 24.5896 49.2722 24.6158 49.4107C24.6607 49.6241 24.6907 49.8375 24.7094 50.0584C24.7319 50.3018 24.7469 50.5489 24.7469 50.7997L24.7543 50.7885Z" fill="#18773E"/>
<path d="M15.3985 54.1206L13.856 56.7487H13.8485L13.695 57.022H13.6875C11.5797 55.7454 10.1758 53.4392 10.1758 50.7885C10.1758 49.8039 10.3742 48.8567 10.7336 48.0068L13.826 49.3584C13.6426 49.8001 13.5453 50.2906 13.5453 50.796C13.5453 52.2 14.2865 53.4317 15.3947 54.1243L15.3985 54.1206Z" fill="#4DC45B"/>
<path d="M17.5361 43.4961L17.4313 46.8656C16.6526 46.8731 15.9225 47.1089 15.3123 47.5282C15.3048 47.5207 15.3048 47.5282 15.3048 47.5282C14.6421 47.9663 14.1218 48.6065 13.8297 49.3552L10.7373 48.0037C11.3101 46.6072 12.306 45.4317 13.5639 44.6342L13.5901 44.6754C13.5901 44.6754 13.5751 44.6492 13.5714 44.6342C14.6946 43.9079 16.0311 43.4961 17.4688 43.4961H17.5361Z" fill="#38B44A"/>
</g>
<defs>
<clipPath id="clip0_125_4984">
<rect width="48" height="48" fill="white" transform="translate(10 10)"/>
</clipPath>
</defs>
</svg>
